<?xml version="1.0" encoding="UTF-8"?>
<svg id="Layer_2" xmlns="http://www.w3.org/2000/svg" version="1.1" xmlns:xlink="http://www.w3.org/1999/xlink" viewBox="0 0 756.18 756.18">
  <!-- Generator: Adobe Illustrator 29.5.1, SVG Export Plug-In . SVG Version: 2.1.0 Build 141)  -->
  <defs>
    <style>
      .st0 {
        display: none;
        stroke-width: .5px;
      }

      .st0, .st1, .st2 {
        fill: none;
      }

      .st0, .st1, .st2, .st3, .st4, .st5 {
        stroke: #381b0f;
        stroke-miterlimit: 10;
      }

      .st1 {
        stroke-width: 1.5px;
      }

      .st6 {
        fill: #f3fcfb;
      }

      .st7 {
        filter: url(#drop-shadow-1);
      }

      .st8, .st3 {
        fill: #eef4d4;
      }

      .st9 {
        fill: #f4e650;
      }

      .st10 {
        fill: #1d1d2a;
      }

      .st11 {
        fill: #e0e896;
      }

      .st4, .st12 {
        fill: #9ed228;
      }

      .st13 {
        fill: #c7e2e0;
      }

      .st14 {
        fill: #0d0d0a;
      }

      .st15 {
        fill: #d7fdfb;
      }

      .st16, .st5 {
        fill: #381b0f;
      }

      .st17 {
        fill: #e5eae8;
      }

      .st18 {
        fill: #d1e4bf;
      }
    </style>
    <filter id="drop-shadow-1" x="163" y="80.18" width="450" height="607">
      <feOffset dx="5" dy="5"/>
      <feGaussianBlur result="blur" stdDeviation="6"/>
      <feFlood flood-color="#3b3b56" flood-opacity=".7"/>
      <feComposite in2="blur" operator="in"/>
      <feComposite in="SourceGraphic"/>
    </filter>
  </defs>
  <path class="st0" d="M512.89,156.68c-.05-.44-.29-.68-.71-.72-1.48-.65-2.96-1.3-4.44-1.94,8.41-1.67,16.83-3.33,25.24-5.02,5.06-1.01,10.14-1.97,14.82-4.52-3.28-4.85-6.36-5.82-11.5-4.59-16.9,4.07-33.72,8.56-50.78,11.79-13.4,2.54-27.07,3.93-40.69,5.01-20.64,1.64-41.33,2.61-62,3.75-2.7.15-5.5-.85-8.16-.53-15,1.83-29.98,2.01-45.08,1.19-16.21-.88-32.46-1.07-48.7-1.24-15.45-.16-30.26-3.28-44.71-8.5-1.77-.64-3.64-1.02-5.31-1.47-2.27,2.3-3.46,4.35-1.79,7.33,1.04.15,2.37,0,3.26.53,5.78,3.57,12.3,3.41,18.68,3.89,10.9.82,21.81,1.53,32.71,2.37,6.61.51,13.2,1.17,19.8,1.76-1.49.53-2.96,1.12-4.48,1.57-1.02.31-2.09.42-3.14.62h-7.48v5.89c-.29,0-.59-.02-.88-.03v-7.39c-5.97-.32-12.1-.64-18.52-.98-.13,1.98-.22,3.29-.31,4.61h-.87c-.43-1.41-.87-2.81-1.34-4.33-3.6-.36-7.18-.72-10.92-1.09-.34,1.37-.62,2.54-1.08,4.42-.26-1.92-.41-3.07-.59-4.38h-4.35c-.19,1.72-.37,3.37-.58,5.35,4.15.73,7.94,1.56,11.79,2.03,13.52,1.68,26.74,5.57,40.5,5.49,6.45.27,12.91.65,19.36.77,2.78.05,5.57-.45,8.36-.7.23-2.4.46-4.8.73-7.55.38,2.73.72,5.11,1.06,7.48,2.03.24,4.07.71,6.09.67,4.72-.11,9.43-.47,14.14-.72.52-2.35,1.04-4.69,1.56-7.04v7.66c5.69-.4,10.87-.76,16.55-1.15-.82-2.97-1.48-5.33-2.13-7.69-.38-.3-.77-.6-1.15-.9-3.67.53-7.34,1.05-11.01,1.58-1.27-.64-2.47-1.56-3.82-1.84-2.08-.43-4.25-.43-6.39-.61,1.17-.79,2.31-1.07,3.47-1.11,17.33-.65,34.67-.95,51.98-2,13.75-.84,27.44-2.59,41.14-3.94,1.26.5,2.51,1,3.77,1.5-2.2.61-4.4,1.21-6.6,1.82-.37-.13-.66-.03-.88.3-1.73.08-3.47.16-5.2.22-.9-.02-1.79-.03-2.69-.05-1.01.3-2.01.59-3.02.89-.4-.25-.72-.17-.95.24-1.92.13-3.83.25-5.77.38-.19,3.32-.36,6.13-.56,9.58,2.51-.95,5.09,1.32,6.39-1.96l.5.12h.51c-.03.29.09.5.37.62,4.53-.04,9.06-.07,13.59-.11.93-.25,1.87-.49,2.8-.74l.39.16.41-.07c1.28-.08,2.56-.15,3.84-.23.27.21.57.28.91.22,1.67.02,3.33.03,5,.05.66-.31,1.31-.62,1.97-.93,1.72,1.53,3.47,1.24,5.23.08l.33.19.31-.21c2.05-.02,4.09-.03,6.14-.05.79-.03,1.58-.05,2.37-.08.79-.04,1.57-.08,2.36-.11.82-.2,1.64-.4,2.46-.59h.03c2.7-.16,5.39-.32,8.09-.48.79-.05,1.58-.1,2.36-.16,9.97-1.47,19.99-2.64,29.88-4.52,7.96-1.51,15.83-3.67,22.87-7.33.27-2.77.5-5.18.74-7.58-8.32,1.45-16.26,2.81-24.19,4.24-.49.09-.88.67-1.32,1.03-.24-.08-.49-.14-.74-.21h-.03,0Z"/>
  <path class="st0" d="M542.45,175.14c2.97-2.37,5.7-4.19,7.97-6.46,2.02-2.03,3.03-4.67,1.06-7.43-1.65-2.31-5.31-2.98-8.35-1.49-9.37,4.63-19.37,7.32-29.54,9.35-24.39,4.88-49.12,6.35-73.92,7.13-9.97.32-19.94.72-29.9,1.22-10.34.52-20.67,1.36-31.02,1.77-11.73.46-23.48.84-35.22.82-16.04-.03-32.11.07-48.1-.93-11.06-.69-22.02-3.05-32.99-4.86-9.01-1.49-18.07-2.67-26.52-6.76-2.46-1.19-6.23-.65-9.07.19-4.59,1.36-5.16,6.61-1.27,9.46,1.65,1.21,3.59,2.03,5.4,3.03,2.19-3.98,2.49-4.13,6.9-2.73,28.38,9.03,57.59,12.64,87.22,12.83,19.75.12,39.51-.56,59.27-1.11,8.77-.24,17.52-1.04,26.28-1.59,7.63,1.19,15.26,2.31,22.93.31,1.29-.08,2.57-.16,3.86-.25,1.9-.2,3.8-.41,5.71-.61,20.92-2.52,41.88-4.77,62.75-7.66,11.4-1.58,22.68-4.14,33.25-9.05,1.12-.52,2.32-.84,3.49-1.26-3.64,3.95-8.35,5.7-13.13,7.24-12.87,4.15-26.17,6.31-39.52,8.06-14.68,1.92-29.4,3.63-44.15,4.96-15.74,1.42-31.52,2.58-47.3,3.26-7.57.32-15.21-1.04-22.82-1.1-8.98-.06-17.97.63-26.95.7-24.63.18-49.3.78-73.75-3.11-13.27-2.11-26.71-3.6-39.24-9.04-.93-.41-2.12-.22-3.06-.3,1.18,2.22,2.82,4.03,3.04,6"/>
  <path class="st0" d="M384.21,169.14l-.84-1.08h-14.24v8.83h8.1c-.1-2.81-1.97-5.2.72-8.19.34,3.22.6,5.73.86,8.21,4.23-.19,6.16-2.02,5.8-5.47-.08-.77-.27-1.54-.41-2.3h.01Z"/>
  <path class="st0" d="M404.79,175.46c1.67-.15,3.33-.29,5-.44h9.36c-.33-3.29-.62-6.1-.9-8.85-6.43-.74-6.52-.65-7.21,4.87-.09.69-.72,1.32-1.67,2.96v-8.5c-2.07,1.37-3.43,2.27-4.78,3.16-.38-.09-.76-.17-1.15-.26-1.4-3.2-3.75-.9-5.81-1.33-.29,1.56-.52,2.82-.76,4.15-.68-1.17-1.24-2.13-1.8-3.09-4.66-1.24-5.01-.99-4.62,3.33-.2.7-.4,1.39-.78,2.69-.23-2.6-.39-4.45-.58-6.72-1.33.35-2.77.38-2.92.83-.88,2.71-1.65,5.52-.17,8.58,2.34-.19,4.77-.96,6.84-.4,1.93.53,2.93-2.33,5.29-.5,1.31,1.02,4.39-.24,6.68-.48h-.02Z"/>
  <circle class="st9" cx="378.09" cy="378.09" r="378.09"/>
  <g class="st7">
    <path class="st5" d="M230.87,160.18c-1.66-1.33-2.72-2.21-3.81-3.04-3.52-2.68-4.41-7.2-1.2-10.12,2.52-2.29,2.5-4.55,2.14-7.33-.7-5.25-1.53-10.5-1.94-15.77-.53-6.84.19-7.69,6.18-10.19,12.28-5.13,25.31-7.1,38.34-8.66,20.63-2.48,41.31-4.61,62.02-6.4,14.46-1.25,28.99-1.61,43.49-2.47,31.23-1.86,62.49-2.68,93.76-2.14,18.45.32,36.89,1.53,55.31,2.79,6.61.45,13.14,2.12,19.67,3.43,1.88.38,3.94,1.09,5.32,2.33,1.27,1.13,2.87,3.82,2.37,4.69-2.88,5-2.18,10.71-3.78,15.92-1.03,3.36-1.65,6.84-2.47,10.32.88.89,2.05,1.69,2.7,2.81,2.03,3.5,2.62,9.17-3.17,11.23-2.27.81-3.22,2-2.08,4.69,4.06-.33,7.92.4,11.05,3.67,3.73,3.9,4.02,7.4.17,11.25-1.91,1.91-4.31,3.35-7.09,5.47.16,6.84-.19,14.22,2.45,21.4.97,2.63,2.39,4.42,5.08,5.2,4.88,1.42,8.76,4.4,11.92,8.24,8.42,10.22,13.9,21.7,14.95,35.13.49,6.25,1.79,12.44,2.35,18.69,1.41,15.83,3.26,31.66,3.73,47.52.79,26.33,1.23,52.69.74,79.02-.46,24.72-2.09,49.44-5.44,73.99-2.25,16.53-4.12,33.12-6.8,49.58-4.2,25.83-10.4,51.2-19.74,75.7-2.01,5.28-4.95,10.25-7.81,15.16-2.24,3.85-4.82,7.34-6.47,11.69-1.39,3.65-5.31,6.74-8.75,9.15-28.81,20.2-61.53,30.18-95.81,35.65-19.4,3.1-38.96,4.39-58.64,4.43-31.01.06-61.55-3.4-91.5-11.38-22.91-6.11-44.84-14.62-64.04-29.01-10.59-7.94-18.88-17.65-23.53-30.3-6.61-17.98-10.7-36.56-14.02-55.36-5.47-31.02-8.12-62.35-9.26-93.76-.82-22.74-.21-45.55.2-68.32.21-11.56,1.04-23.14,2.17-34.66,1.79-18.15,3.56-36.33,6.3-54.35,2.92-19.19,6.52-38.29,11.77-57.04,2.8-10.02,9.95-15.59,18.29-20.31,1.69-.96,3.6-1.71,5.5-2.1,5.5-1.13,7.57-5.01,8.49-9.95.92-4.9.65-9.77-.72-14.54-.28-.96-1.25-1.91-2.15-2.47-1.48-.93-3.21-1.44-4.73-2.31-5.53-3.19-5.93-10.58-.55-13.92,2.22-1.38,5.02-1.83,9.07-3.21l-.03-.04h0ZM512.85,153.85c-.05-.44-.29-.68-.71-.72-1.49-.65-2.97-1.3-4.46-1.95,8.45-1.68,16.91-3.34,25.36-5.04,5.08-1.02,10.19-1.98,14.89-4.54-3.29-4.87-6.38-5.85-11.55-4.61-16.97,4.09-33.87,8.6-51.01,11.85-13.46,2.55-27.2,3.95-40.88,5.04-20.73,1.65-41.52,2.62-62.29,3.76-2.72.15-5.53-.86-8.19-.53-15.07,1.84-30.12,2.02-45.29,1.19-16.28-.89-32.61-1.08-48.92-1.24-15.52-.16-30.4-3.3-44.91-8.54-1.78-.64-3.66-1.02-5.33-1.48-2.28,2.31-3.48,4.37-1.8,7.36,1.05.15,2.38,0,3.27.54,5.81,3.58,12.35,3.42,18.77,3.91,10.95.83,21.91,1.54,32.86,2.38,6.64.51,13.27,1.17,19.89,1.77-1.5.53-2.98,1.12-4.5,1.58-1.02.31-2.1.42-3.16.63h-7.51v5.92c-.29,0-.59-.02-.88-.03v-7.42c-6-.32-12.15-.64-18.61-.98-.14,1.99-.23,3.31-.31,4.63h-.87c-.44-1.42-.87-2.83-1.34-4.35-3.61-.36-7.21-.72-10.97-1.1-.34,1.37-.63,2.55-1.09,4.44-.26-1.93-.42-3.08-.59-4.4h-4.37c-.19,1.73-.37,3.38-.58,5.37,4.17.73,7.98,1.56,11.84,2.04,13.58,1.69,26.86,5.59,40.68,5.51,6.48.27,12.97.66,19.45.77,2.79.05,5.6-.45,8.4-.7.23-2.41.46-4.83.73-7.58.39,2.74.72,5.13,1.06,7.52,2.04.24,4.09.72,6.12.67,4.74-.11,9.47-.47,14.2-.73.52-2.36,1.04-4.72,1.56-7.07v7.69c5.72-.4,10.92-.76,16.63-1.16-.83-2.98-1.48-5.36-2.14-7.73-.39-.3-.77-.6-1.16-.91-3.69.53-7.37,1.06-11.06,1.59-1.27-.64-2.49-1.57-3.83-1.85-2.09-.44-4.27-.43-6.42-.61,1.17-.79,2.32-1.07,3.48-1.12,17.41-.66,34.83-.95,52.22-2.01,13.81-.84,27.56-2.6,41.33-3.95,1.26.5,2.52,1,3.78,1.5-2.21.61-4.42,1.22-6.63,1.83-.37-.13-.67-.03-.88.3-1.74.08-3.49.16-5.22.23-.9-.02-1.8-.03-2.7-.05-1.01.3-2.02.59-3.03.89-.4-.25-.72-.17-.96.24-1.93.13-3.85.25-5.8.38-.2,3.34-.36,6.16-.56,9.62,2.53-.95,5.11,1.32,6.42-1.97l.5.12h.51c-.03.29.09.5.37.62,4.55-.04,9.1-.07,13.65-.11.94-.25,1.87-.5,2.81-.75l.39.16.41-.07c1.29-.08,2.57-.16,3.86-.23.27.21.58.28.92.22,1.67.02,3.35.03,5.02.05.66-.31,1.32-.62,1.98-.94,1.73,1.54,3.48,1.25,5.25.08l.33.19.31-.21c2.06-.02,4.11-.03,6.17-.05.79-.03,1.59-.05,2.38-.08.79-.04,1.58-.08,2.37-.11.82-.2,1.65-.4,2.47-.6h.03c2.71-.16,5.42-.32,8.13-.48.79-.05,1.58-.1,2.38-.16,10.01-1.48,20.08-2.65,30.02-4.54,8-1.52,15.9-3.69,22.97-7.37.27-2.78.51-5.2.74-7.61-8.36,1.45-16.34,2.83-24.3,4.26-.49.09-.88.68-1.32,1.03-.25-.08-.49-.14-.74-.21h-.04ZM437.04,184.96c1.91-.2,3.82-.41,5.73-.61,21.02-2.53,42.08-4.79,63.04-7.7,11.45-1.59,22.78-4.16,33.4-9.09,1.12-.52,2.34-.85,3.51-1.26-3.65,3.96-8.38,5.72-13.19,7.27-12.93,4.17-26.29,6.34-39.7,8.09-14.75,1.93-29.54,3.65-44.35,4.98-15.81,1.42-31.66,2.6-47.52,3.27-7.61.32-15.28-1.05-22.92-1.1-9.02-.07-18.05.64-27.08.7-24.75.18-49.53.78-74.09-3.13-13.34-2.12-26.84-3.62-39.42-9.08-.94-.41-2.13-.22-3.07-.3,1.18,2.23,2.84,4.05,3.06,6.03.52,4.66.74,9.43.35,14.09-.43,5.08-2.72,9.45-7.51,11.99-2.94,1.56-5.91,3.05-8.9,4.52-8.19,4.03-14.01,9.75-15.29,19.4-2.03,15.37-4.45,30.69-6.64,46.05-1.04,7.31-1.92,14.65-2.91,22.25,4.84-1.21,9-2.33,13.2-3.27,10.78-2.43,21.62-4.03,32.69-2.17,11.22,1.89,22.48,3.55,33.64,5.75,21.24,4.17,42.47,5.06,63.73.5,10.75-2.3,21.4-5.07,32.11-7.53,12.45-2.86,24.94-5.44,37.8-5.4,1.72,0,3.44-.37,5.54-.61,0-2.84.12-5.35-.02-7.85-.43-7.64-1.05-15.27-1.41-22.91-.3-6.54,1.1-8.95,7.27-11.1,5.54-1.93,11.24-3.67,17.02-4.61,26.97-4.42,54.08-7.26,81.45-5.23,5.62.42,11.25,1.57,16.71,3.02,3.33.89,3.63,2.5,2.56,5.36-3.98,10.64-8.02,21.26-11.85,31.95-1.97,5.48-3.55,11.1-5.55,17.45,4.9-.45,9.17-.48,13.28-1.29,7.3-1.43,14.49-3.4,21.75-5.02,8.53-1.9,16.71-5.81,25.8-4.61.45.06,1-.57,1.75-1.03-1.16-12.6-2.13-25.33-3.56-38-2.05-18.1-9.29-33.15-26.14-42.2-4.5-2.41-6.71-6.21-7.01-11.41-.38-6.55-1.21-13.08-1.76-18.73,2.99-2.38,5.73-4.21,8.01-6.49,2.03-2.04,3.04-4.69,1.06-7.46-1.65-2.32-5.34-3-8.39-1.49-9.42,4.65-19.46,7.35-29.68,9.4-24.5,4.91-49.35,6.38-74.26,7.17-10.01.32-20.03.72-30.04,1.23-10.39.52-20.77,1.37-31.16,1.78-11.79.46-23.59.85-35.38.82-16.11-.03-32.26.07-48.33-.94-11.11-.7-22.12-3.06-33.15-4.88-9.06-1.5-18.15-2.69-26.65-6.79-2.47-1.19-6.26-.65-9.12.19-4.61,1.36-5.18,6.64-1.28,9.5,1.66,1.22,3.61,2.04,5.43,3.04,2.2-4,2.5-4.15,6.94-2.74,28.51,9.08,57.86,12.7,87.63,12.89,19.84.12,39.7-.57,59.54-1.12,8.81-.24,17.6-1.05,26.41-1.6,7.66,1.2,15.33,2.32,23.04.31,1.29-.08,2.58-.17,3.87-.25h0ZM383.57,166.38l-.84-1.08h-14.3v8.87h8.13c-.1-2.82-1.98-5.23.73-8.23.34,3.24.6,5.76.86,8.24,4.25-.19,6.19-2.02,5.83-5.49-.08-.78-.27-1.54-.41-2.31ZM317.8,150.95c.05.77-.11,2.1.19,2.21,3.19,1.21,5.89.64,8.43-1.96,5.16-5.29,10.61-10.31,15.93-15.45.84-.81,1.65-1.64,2.5-2.5-3.96-.92-6.88.23-9.34,2.83-.14.15-.86-.24-1.31-.38-.08-.8-.16-1.61-.22-2.29-4.44-1.18-7.38.64-10.39,3.66-5.21,5.21-10.95,9.89-16.44,14.82-.54.48-.96,1.1-1.86,2.16,4.3-.38,8.02-.1,10.72-3.36.2-.24,1.18.17,1.8.27h0ZM294.09,150.97c1.7,3.3,5.34,4.29,8.14,1.76,6.9-6.25,13.58-12.74,20.44-19.21-4.22-1.4-7.24.27-10.24,3.22-5,4.91-10.33,9.49-15.63,14.09-.56.49-1.83.16-2.77.21,2.12-2.66,3.94-5.67,6.44-7.91,3.71-3.33,7.91-6.12,12.09-9.29-7.09-1.29-9.07-1.27-11.24.83-5.85,5.67-11.58,11.47-17.34,17.2,3.15,2.35,6.23,2.55,9.04-.84.15-.18.7-.04,1.07-.05h0ZM405.07,147.49c.68-1.09,1.17-2.36,2.07-3.22,4.82-4.67,9.73-9.24,14.74-13.97-4.2-.33-7.72.65-10.55,2.92-.84.67-1.74,1.83-2.71.11.14-.7.28-1.39.44-2.19-5.7-1.28-10.2-.04-14.44,4.51-4.73,5.08-10.46,9.25-15.83,13.71-.81.67-1.87,2.4-3.23.47,3.56-3.66,7-7.45,10.71-10.95,2.73-2.57,5.81-4.77,9.12-7.45-5.14-.71-9.26-.48-12.16,3.54-.54-.42-1.08-.83-1.62-1.25.72-2.12-.39-2.02-1.47-.99-3.24,3.05-6.21,6.4-9.53,9.36-3.31,2.95-6.88,5.62-10.4,8.33-1.02.78-2.3,1.79-3.32-.13,6.2-5.92,12.4-11.85,19.52-18.66-5.09.68-8.9,1.18-12.71,1.69-2.76-2.24-5.07-.57-7.42.83-.33-.36-.66-.73-.99-1.09-3.6-1.57-6.12-.31-8.62,2.58-3.71,4.29-7.82,8.24-11.91,12.18-2.15,2.07-4.62,3.81-7.68,6.29,7.14.88,12.5-.11,16.72-5.01,1.66-1.93,3.4-3.86,5.41-5.39,4.77-3.63,9.72-7.02,14.61-10.51,1.28,3.06-1.72,3.86-3.09,5.15-5.32,4.98-10.94,9.65-17.18,15.08,3.96-.23,6.99-.41,10.03-.59,7.53.24,15.35,2.48,22.07-3.08-.21,1.12-.41,2.23-.8,4.3,5.31-1.53,10.15-2.92,14.99-4.31.05.69.1,1.38.2,2.67,4.3-.89,8.52-1.76,12.75-2.63,1.27.38,2.52.96,3.82,1.1,4.32.46,8.14-.97,11.61-3.47.18.94.37,1.89.51,2.61,5.22-.28,10.42-.4,15.59-.89,4.37-.42,9.04-.24,12.34-4.07.16-.19.73-.02,1.11-.02-.43.9-.86,1.8-1.48,3.1,5-.41,9.45-.81,13.91-1.12,5.26-.37,10.53-.49,15.77-1.03,3.97-.41,7.74-1.83,11.88-1.84,3.62,0,7.89-.5,10.64-2.49,2.16-1.56,3.1.88,4.41-.12,2.5-.89,5.67-1.09,7.37-2.78,6.5-6.45,12.52-13.38,19.09-20.52-3.9.07-6.58.92-8.96,3.82-3.97,4.83-8.48,9.22-12.88,13.67-.71.72-2.07.8-3.13,1.18.64-1.3,1.04-2.82,1.97-3.87,3.68-4.17,7.53-8.19,11.7-12.67-3.09-.17-5.17.22-6.91,2.25-1.91,2.22-3.99,4.33-6.23,6.22-4.74,4.01-9.62,7.86-14.45,11.77-.49-.38-.99-.75-1.48-1.13,6.22-5.84,12.44-11.68,18.95-17.78-4.93.03-8.99.63-11.79,5.14-1.72,2.77-4.38,4.97-6.67,7.38-.65.68-2.05,1.79-2.19,1.66-3.08-2.75-3.73,1.01-5.34,1.96-1.49.88-2.81,2.04-4.21,3.07-.61-.29-1.23-.59-1.84-.88,1.48-1.78,2.84-3.69,4.47-5.33,3.47-3.47,7.08-6.8,10.86-10.4-4.6-1.36-5.92,2.55-8.56,3.92-.38-.45-.75-.9-1.13-1.36.22-.48.43-.96.86-1.92-1.43.07-2.55.28-3.63.14-3.97-.51-6.64,1.09-8.43,4.63-.69,1.36-1.79,2.54-2.84,3.67-.61.66-1.98,1.66-2.19,1.49-2.13-1.72-3.01.31-4.23,1.24-2.92,2.25-5.78,4.59-8.77,6.75-.5.36-1.53-.02-2.31-.06,1.01-1.32,1.84-2.84,3.06-3.94,4.52-4.09,9.16-8.04,14.37-12.58-2.29.15-3.65.3-5.01.33-4.71.08-8.5,1.75-11.66,5.48-2.89,3.42-6.37,6.36-9.73,9.35-3.56,3.17-7.34,6.08-12.74,6.45,6.89-6.64,13.77-13.28,20.66-19.92-3.64.3-6.81,1.49-9.99,2.6-.13.05-.47-.52-.72-.8-4.04-1.92-7.39-1.25-10.26,2.36-1.94,2.43-4.23,4.57-6.37,6.84-2.11,2.25-4.22,4.5-6.33,6.75-.25-.23-.49-.45-.74-.68.8-1.37,1.6-2.74,2.39-4.11-3.23,1.8-5.8,4.08-8.54,6.13-.83.62-1.96,2.34-3.28.4l-.04.02h0ZM404.25,172.72c1.67-.15,3.35-.29,5.02-.44h9.4c-.34-3.3-.62-6.13-.9-8.89-6.46-.74-6.55-.65-7.25,4.89-.09.7-.72,1.33-1.68,2.98v-8.54c-2.08,1.38-3.44,2.28-4.8,3.18-.38-.09-.77-.17-1.15-.26-1.41-3.22-3.77-.91-5.84-1.33-.29,1.57-.52,2.83-.77,4.17-.68-1.18-1.25-2.14-1.81-3.11-4.68-1.25-5.04-.99-4.64,3.34-.2.7-.41,1.4-.78,2.7-.23-2.61-.39-4.47-.59-6.75-1.34.35-2.79.38-2.93.83-.89,2.72-1.66,5.54-.17,8.62,2.35-.19,4.79-.97,6.87-.4,1.94.53,2.94-2.34,5.31-.5,1.32,1.02,4.41-.24,6.71-.48h0ZM245.56,145.03l.2.22c1.48,1.9,3.16,3.02,5.84,2.93,2.67-.09,5.35.74,8.04.99,2.46.22,5.06.68,6.72-2.04.12-.19,1.17.19,1.79.3-.22.71-.44,1.42-.67,2.19,2.22,1.12,4.14,1.71,6.25-.64,5.06-5.65,10.37-11.07,15.46-16.45-2.45-.66-4.44.13-6.67,2.37-4.52,4.53-9.62,8.47-14.48,12.65-.09-1.09-.17-2.18-.25-3.17-.75.24-1.99.62-3.23,1.01-.19-.28-.39-.57-.58-.85,1.49-2.14,2.98-4.29,4.44-6.38-4.19,3.77-7.67,6-10.44,6.69,2.26-2.81,4.03-5.41,6.21-7.61,1.99-2,4.42-3.55,6.63-5.27-3.02-.26-6.49-.62-9.98-.83-4.1-.24-8.27.09-12.29-.58-5.96-1-11.8-2.68-18.1-4.16.25,2.49.09,4.73.76,6.68,1.36,3.97,1.05,9.42,7.36,9.7l-.04-.05c1.8,2.41,4.21,2.97,7.02,2.31h.01ZM201.5,316.14c-3.57,5.63-3.16,8.7,2.27,12.08,2.4,1.5,5.41,2.97,8.07,2.86,2.84-.12,5.23,1.59,8.11.92,5.31-1.25,10.71-2.1,16.07-3.11,7.01-1.33,14-2.9,21.06-3.82,2.11-.28,4.45,1.25,7.76,2.29-4.46-1.97-8-2.03-11.6-1.41-13.06,2.28-25.52,7.69-39.42,7.04v9.89c.9.23,1.82.53,2.76.7,8.5,1.55,16.75-.22,25.04-1.8,22.14-4.23,43.34-12.6,66.05-14.42,12.09-.97,23.93-4.55,36.23-3.9,6.08.32,12.16.67,18.24.71,11.87.07,23.47,1.65,34.87,5.02,4.42,1.31,9.06,1.88,14.36,2.94.98-13.79,2.67-26.78,1.26-40.09-8.02-1.07-15.66-.1-23.1,1.37-16.33,3.24-32.57,6.98-48.81,10.69-15.06,3.43-30.35,4.81-45.65,3.29-12.65-1.25-25.15-4.05-37.72-6.08-13.15-2.12-26.29-4.82-39.71-2.55-8.28,1.4-16.59,2.75-24.33,6.49-.9,8.42-1.76,16.62-2.68,24.82-.27,2.4.62,4.04,2.47,5.58,5.2,4.33,11.38,5.62,17.97,6.65.64-3.17,1.21-5.99,1.72-8.48-3.84-1.93-7.58-3.27-10.68-5.51-4.88-3.53-4.8-8.46-.34-12.59l-.28.14.02.31v-.03h0ZM529.34,553l.02-.11c-.31,4.06-2.97,7.09-4.9,10.33-4.29,7.2-9.05,14.13-13.91,21.63,2.19.77,4.33,1.52,6.47,2.27,3.8-3.13,7.31-6.02,10.82-8.9.11.12.22.23.33.35-2.25,3.29-4.5,6.59-6.39,9.35,7.48,5.06,14.39,9.73,21.46,14.51,5.08-9.34,9.04-19.49,12.19-30.11,10.69-36.1,17.36-72.94,21.41-110.29,3.43-31.68,4.83-63.49,5.73-95.33.2-7.17.03-14.36.03-22.38-10.39,5.97-20.61,5.15-30.5,2.39-13.2-3.69-26.11-8.41-39.15-12.69-1.22-.4-2.44-.8-4.79-1.58,2.75,7.12,4.81,13.38,7.55,19.33,3.21,6.97,1.86,13.03-2.79,18.53-3.21,3.8-3.28,7.71-1.6,11.97.86,2.19,1.98,4.28,2.87,6.46,3.58,8.7,7.59,17.26,10.51,26.18,2.45,7.48,3.3,15.35-.12,23.05-4.68,10.55-10.96,19.97-19.44,27.8-8.92,8.25-17.45,17.05-31.21,16.73-8.05-.19-16.15.85-23.82-2.38-2.91-1.22-4.92-.53-7.47,1.26-8.97,6.29-15.64,14.9-23.39,22.41-11.07,10.73-18.78,23.58-24.5,37.76-3.17,7.85-6.65,15.52-12.35,21.97-.81.92-1.34,2.09-2.31,3.66,5.2.29,9.71.51,14.21.8,13.34.84,26.74,1.19,40,2.68,15.78,1.77,31.47,4.4,47.14,6.98,2.97.49,4.83-.07,6.71-2.13,4.37-4.79,8.81-9.52,13.26-14.24,1.08-1.15,2.27-2.18,3.41-3.27-.44,9.18-7.43,14.53-11.69,21.99,4.43,1.18,8.35,2.22,12.62,3.35,6.71-8.09,12.88-16.4,18.42-25.19.38-.57.75-1.13,1.13-1.7-.85.02-1.69.04-2.54.06-4.65.38-9.31.76-14.61,1.19,6.66-5,13.92-4.9,21.19-4.7h0ZM325,584.47c13.81.16,26.28-4.35,37.99-10.21,9.46-4.74,17.99-11.38,22.45-21.72,2.01-4.65,3.9-9.36,5.95-14,.79-1.77,1.79-3.47,2.83-5.11,2.65-4.14,5.36-8.24,8.08-12.34,2.59-3.92,4.84-8.14,7.89-11.67,5.78-6.69,11.84-13.16,18.14-19.36,5.3-5.21,11.11-9.91,16.8-14.93-.86-1.11-1.73-2.24-3.31-4.29,2.15.67,3.2,1.03,4.26,1.31,7.38,1.97,14.69,4.34,22.18,5.74,5.55,1.04,11.47,1.12,16.71-1.6,3.81-1.97,7.3-4.61,10.78-7.16,10.07-7.38,16.87-17.61,22.92-28.16,2.92-5.1,5.64-11.1,4.07-17.43-2.3-9.3-3.66-18.92-8.51-27.44-2.03-3.57-4.04-7.16-6.01-10.77-2.82-5.16-2.26-10.18.78-15.05.94-1.5,1.92-2.97,2.85-4.47,2.8-4.51,2.95-9.27,1.11-14.12-2.09-5.51-4.37-10.94-6.39-16.47-1.24-3.39-3.26-4.64-7.01-4.72-14.85-.33-29.44,1.2-43.71,5.32-10.76,3.1-21.61,3.93-32.68,2.11-2.87-.47-5.83-.45-9-.68-1.41,6.08-5.85,9.81-10.03,13.56-10.56,9.47-20.3,19.67-29.57,30.42-15.37,17.84-28.42,36.98-37.68,58.79-6.29,14.8-13.61,29.15-22.79,42.54-6.72,9.79-15.54,16.65-26.01,21.42-5.46,2.49-11.61,3.46-17.41,5.23-5.35,1.64-6.55,3.56-6.56,10.33,7.2-.05,13.12-5.03,20.25-5.25-6.68,3.33-13.53,6.14-20.45,8.72-9.87,3.68-10.02,4.04-3.76,12.59.2.27.68.32,1.38.63,10.9-2.42,21.19-7.07,31.22-12.58-2.02,1.9-3.98,4.09-6.43,5.22-6.57,3.04-13.31,5.73-20.07,8.34-3.65,1.41-7.51,2.28-11.21,3.58-3.94,1.38-4.48,2.7-4.33,7.07.15,4.36,2.83,6.6,6.05,8.49,12.23-3.93,23.97-8.52,34.55-15.75-5.14,6.6-12.21,10.21-19.6,13.3-3.98,1.66-8.06,3.07-12.06,4.67-3.5,1.4-6.47,3.44-8.34,7.15,1.82,1.68,3.36,3.1,4.29,3.96,3.56-.66,6.4-1.74,9.17-1.6,6.1.32,11.64-1.25,17.09-3.65,9.04-3.98,17.64-8.65,25.15-15.16.9-.78,2.07-1.23,3.6-2.11-.33,1.15-.36,1.57-.57,1.89-.31.49-.73.91-1.12,1.34-6.23,6.79-13.85,11.55-22.2,15.24-6.46,2.86-12.83,5.95-20.14,6.09-6.44.12-7.62,1.07-9.67,7.26-.43,1.3-.61,2.68-.98,4-1.29,4.68.15,8.53,3.77,11.52,2.72,2.25,5.54,4.43,8.53,6.3,7.28,4.58,15.41,8.21,23.87,7.06,10.67-1.46,21.04-4.91,28.81-13.42,2.21-2.42,5.06-4.26,7.7-6.26.83-.63,1.9-.94,2.87-1.4-.35-.35-.7-.69-1.04-1.04-1.82-.43-3.64-.85-5.46-1.28h.01ZM190.27,339.32c-.31,2.18-.89,4.67-.99,7.18-.82,19.45-1.64,38.89-2.28,58.35-.86,26.55-.17,53.07,1.63,79.58,2.23,32.84,6.83,65.28,15.96,96.97,1.7,5.89,3.78,11.67,6.09,18.74,9.66-18.41,26.66-21.86,43.22-25.56-1.92-3.36-3.82-6.2-5.21-9.26-1.99-4.38,1.52-6.09,4.26-7.5-1.56-3.12-3.33-5.75-4.23-8.66-1.88-6.05-.19-8.97,5.73-11.15.83-.3,1.58-.82,2.4-1.25-1.24-2.46-2.52-4.48-3.3-6.66-1.4-3.89-.46-5.89,3.25-7.54,1.76-.78,3.6-1.39,5.28-2.03,0-.73.07-1.13-.01-1.49-1.76-7.94-.53-9.24,7.28-11.39,7.74-2.13,15.24-5.15,22.78-7.97,1.59-.59,2.94-1.91,4.31-3.01,12.26-9.85,20.05-23.08,27.08-36.73,6.74-13.1,12.42-26.74,19.29-39.76,12.24-23.19,30.17-42.07,47.9-61.01,5.23-5.59,10.87-10.8,16.3-16.21,1.68-1.67,3.25-3.43,2.49-6.08-6.69-1.75-13.26-3.68-19.94-5.17-17.2-3.84-34.71-4.22-52.17-3.45-10.14.44-20.21,2.57-30.3,4.06-8.72,1.29-17.51,2.36-26.1,4.26-13.79,3.05-27.41,6.86-41.18,10.06-7.49,1.74-15.14,2.41-22.84,1.26-1.24-.19-2.5-.27-3.83-.4-5.59,71.61,1.62,141.91,14.15,211.94-2.95-7.1-5.6-14.24-7.63-21.56-7.05-25.46-9.23-51.68-11.56-77.85-.9-10.17-1.06-20.41-1.35-30.62-.64-22.22-.41-44.42,1.99-66.56.59-5.4.92-10.83,1.31-15.6-6.8-2.73-13.08-5.25-19.77-7.93h0ZM250.91,580.53c-8.7,3.21-16.67,5.96-24.48,9.1-4.04,1.63-7.45,4.3-9.77,8.22-2.81,4.76-2.83,5.88,1.03,9.7,13.21,13.05,28.84,22.31,46,29.1,23.89,9.46,48.67,15.06,74.21,17.97,15.07,1.72,30.14,2.79,45.22,2.5,14.9-.29,29.86-1.26,44.64-3.11,28.02-3.51,55.3-10.12,80.63-23.18,9.81-5.06,19.23-10.73,27.11-18.63,4.5-4.52,4.56-6.24-.34-10.43-4.98-4.25-10.8-7.08-17.09-9.3-12.69,11.97-23.65,26.18-42.59,31.26,10.27-9.15,19.72-17.57,28.93-25.77-.18-.81-.16-1.09-.26-1.15-1.16-.65-2.33-1.27-3.79-2.06-9.89,8.9-20.54,16.7-32.4,22.71.16-.41.41-.68.7-.91,8-6.32,16.03-12.59,23.95-19,1.18-.95,1.81-2.58,2.86-4.14-2.69-.8-4.7-1.05-6.34-1.95-4.01-2.2-7.09-1.09-9.7,2.21-1.21,1.53-1.86,3.8-3.38,4.71-5.87,3.53-11.87,6.9-18.06,9.84-5.79,2.76-12.04,4.57-17.79,7.4-7.17,3.52-14.06,7.62-21.04,11.52-3.94,2.2-7.82,4.51-11.72,6.77,14.92-9.35,30.29-17.86,45.64-26.43,1.52-.85,2.98-1.89,4.28-3.06,3.93-3.54,7.77-7.18,11.63-10.78,1.32-1.23,2.61-2.5,3.92-3.75-.28-.41-.57-.82-.85-1.23-23.11,8.51-45.05,19.78-67.27,29.11,21.08-11.71,43.79-21.09,66.68-30.42-9.19-1.68-18.02-5.48-27.09-2,.58-.32,1.17-.65,1.75-.97-2.91-1.56-5-2.1-7.12-2.24-15.51-1.07-31.01-2.14-46.53-2.97-2.43-.13-5.07.6-7.35,1.55-9.02,3.78-17.95,7.78-26.89,11.75-1.3.58-2.51,1.39-3.75,2.09,2.83.58,5.35.23,7.88.1,7.65-.41,15.31-1.18,22.94-.94,4.48.14,8.53-.49,12.57-2.12,4.66-1.89,9.34-3.74,14.01-5.6-2.54,1.52-5.28,2.56-7.94,3.77-2.51,1.15-4.94,2.48-8.54,4.3,2.03.42,2.62.55,3.22.67-14.5,2.42-26.54,11.29-41.14,16.5,9.54-5.99,19.43-9.4,27.94-15.44-6.02-.08-11.89.1-17.67.91-8.94,1.25-17.85,2.77-26.71,4.5-3.33.65-6.74,1.73-9.51,5.13,2.47,1.32,4.44,2.54,6.53,3.47,2.51,1.11,5.13,1.98,7.71,2.94,2.39.9,4.78,2.01,7.3.37.91,2.85,3.64,2.67,5.79,3.42,1.61.57,3.27,1,4.9,1.5-9.13-.92-18.08-2.28-26.63-5.48-3.69-1.38-7.17-3-9.21-6.65,1.85-3.42,4.77-5.25,8.25-6.36,2.99-.95,6.07-1.72,8.96-2.93,11.92-4.98,23.79-10.09,35.67-15.18.88-.38,1.65-1.03,2.47-1.55-9.16-1.49-17.94-2.83-26.6,1.01-4.27,1.89-8.85,3.69-13.42,4.16-6.24.64-11.18,3.53-15.99,6.92-2.22,1.57-3.96,3.81-5.99,5.67-12.56,11.5-26.82,16.51-43.72,11.4-1.12-.34-2.27-.61-3.42-.85-8.94-1.89-16.65-5.42-20.04-14.83-.19-.52-.62-.96-.9-1.39-10.26.38-18.92,8.39-17.34,15.93-2.75-4.12-2.92-6.88.52-10.37,2.57-2.6,5.88-4.51,8.99-6.52,2.06-1.34,4.36-2.31,6.39-3.37-.28-2.35-.48-4.09-.83-7.11h-.02,0ZM529.44,249.07c-5.52,1.31-10.22,2.59-14.98,3.52-16.58,3.23-33.34,4.96-50.21,5.61-14.92.58-29.83,1-44.6-1.85-2.27-.44-4.51-.7-6.71.45,3.64,25.25,5.82,50.31,2.65,75.74,13.71,2.14,26.68,2.86,39.62-1.04,5.24-1.58,10.65-2.9,16.08-3.46,10.83-1.12,21.73-1.64,32.58-2.41,8.38-25.09,16.86-50.47,25.58-76.57h-.01ZM581.38,287.47c-6.2-1.64-11.28-.88-16.48.47-15.52,4.02-30.75,9.52-46.93,9.3-4.99,8.77-9.8,23.35-9.75,29.39,13.5,6.42,27.69,10.83,42.08,14.76,6.35,1.73,12.66,2.36,19.17,2.31,3.98-.03,7.17-1.59,10.32-3.73,1.97-1.34,2.86-2.86,2.78-5.35-.48-15.66-.81-31.33-1.2-47.14h0ZM531.82,242.23c-5.5-2.21-11.42-2.49-17.22-2.51-13.74-.04-27.5.06-41.22.69-15.89.74-31.64,2.97-47.15,6.57-3.89.9-8.02,1.65-11.78,5.05,1.86.79,3.15,1.67,4.54,1.87,5.04.75,10.09,1.66,15.16,1.83,21.23.68,42.42-.26,63.46-3.19,9.88-1.38,19.62-3.76,29.4-5.83,2.2-.47,4.85-.89,4.81-4.48h0ZM481.17,581.63c-10.65-1.75-20.75-3.97-30.98-4.97-22.87-2.25-45.8-3.91-68.72-5.74-1.93-.15-3.94.01-5.85.35-2.04.36-3.77,1.39-5.01,4.23,9.87,0,19.08-.38,28.26.11,8.97.48,17.9,1.71,26.83,2.83,16.33,2.05,32.66,4.08,48.93,6.56,3.19.49,4.67-.3,6.55-3.37h0ZM513.83,139.21c4.1-1.04,8.41-2.26,12.77-3.2,2.9-.63,4.62-2.23,6.22-4.73,3.95-6.16,8.33-12.04,12.9-18.55-2.5,2.04-4.67,3.8-6.85,5.57-2.72-2.42-4.4-2.47-6.8-.02-.54.55-.9,1.28-1.41,1.87-5.52,6.27-11.06,12.53-16.83,19.07h0ZM298.09,133.27c-1.18-.97-2.78-1.29-4.33.14-6.17,5.66-12.29,11.37-18.48,17.11,5.42,1.82,5.38,1.78,8.59-1.77,4.67-5.16,9.42-10.26,14.22-15.47h0ZM502.45,587.05c-3.88-1.01-6.93-1.57-9.81-2.6-3.39-1.21-4.99.28-6.27,3.31,4.04,1.33,7.86,2.6,11.87,3.92,1.24-1.36,2.38-2.61,4.21-4.63ZM533.78,132.91c9.28-1.31,10.06-1.47,10.1-13.77-3.75,5.11-6.81,9.29-10.1,13.77ZM512.81,590.99c-7.01-3.95-7-2.36-10.43,2.41,1.72.8,3.37,1.56,5.12,2.38,1.83-1.65,3.4-3.06,5.31-4.79ZM247.4,167.1c-.16-1.63-.36-2.38-.28-3.1.54-5.01-4.46-.55-5.42-3.14-.09-.23-1.52-.26-2.1.04-1.7.89-1.54,3.36.38,4.12,2.14.85,4.45,1.27,7.43,2.07h0ZM281.72,132.38h-5.42c-.76,1.95-1.38,3.53-2.42,6.18,3.03-2.39,5.11-4.03,7.84-6.18h0ZM233.73,159.27c-.06,2.84.91,4.15,3.81,4.02.1-2.54-.82-3.91-3.81-4.02Z"/>
    <path class="st11" d="M325,584.47c1.82.43,3.64.85,5.46,1.28.35.35.7.69,1.04,1.04-.96.46-2.04.76-2.87,1.4-2.63,2.01-5.49,3.85-7.7,6.26-7.77,8.51-18.14,11.97-28.81,13.42-8.45,1.16-16.58-2.48-23.87-7.06-2.99-1.88-5.81-4.05-8.53-6.3-3.62-3-5.06-6.84-3.77-11.52.37-1.32.55-2.7.98-4,2.04-6.19,3.23-7.14,9.67-7.26,7.31-.13,13.68-3.23,20.14-6.09,8.35-3.69,15.97-8.45,22.2-15.24.39-.43.81-.85,1.12-1.34.2-.32.23-.74.57-1.89-1.53.88-2.71,1.34-3.6,2.11-7.51,6.51-16.11,11.18-25.15,15.16-5.45,2.4-10.99,3.97-17.09,3.65-2.77-.15-5.6.93-9.17,1.6-.93-.86-2.48-2.28-4.29-3.96,1.88-3.71,4.84-5.76,8.34-7.15,4-1.6,8.08-3.01,12.06-4.67,7.39-3.08,14.46-6.7,19.6-13.3-10.58,7.23-22.32,11.82-34.55,15.75-3.22-1.89-5.9-4.13-6.05-8.49-.15-4.37.39-5.69,4.33-7.07,3.7-1.3,7.56-2.17,11.21-3.58,6.76-2.61,13.5-5.3,20.07-8.34,2.45-1.13,4.4-3.32,6.43-5.22-10.03,5.51-20.32,10.16-31.22,12.58-.7-.31-1.18-.37-1.38-.63-6.26-8.55-6.1-8.91,3.76-12.59,6.93-2.59,13.77-5.39,20.45-8.72-7.13.21-13.05,5.2-20.25,5.25.02-6.76,1.22-8.69,6.56-10.33,5.8-1.77,11.94-2.75,17.41-5.23,10.48-4.77,19.29-11.63,26.01-21.42,9.18-13.39,16.5-27.73,22.79-42.54,9.27-21.81,22.31-40.95,37.68-58.79,9.26-10.75,19-20.95,29.57-30.42,4.18-3.75,8.62-7.47,10.03-13.56,3.17.23,6.12.21,9,.68,11.07,1.82,21.92.99,32.68-2.11,14.28-4.12,28.86-5.65,43.71-5.32,3.75.08,5.77,1.33,7.01,4.72,2.02,5.53,4.3,10.97,6.39,16.47,1.84,4.86,1.69,9.61-1.11,14.12-.93,1.5-1.91,2.97-2.85,4.47-3.04,4.87-3.6,9.89-.78,15.05,1.97,3.61,3.97,7.2,6.01,10.77,4.85,8.52,6.21,18.14,8.51,27.44,1.57,6.33-1.15,12.33-4.07,17.43-6.05,10.55-12.86,20.78-22.92,28.16-3.48,2.55-6.97,5.18-10.78,7.16-5.24,2.72-11.16,2.64-16.71,1.6-7.49-1.4-14.8-3.77-22.18-5.74-1.07-.28-2.11-.65-4.26-1.31,1.58,2.05,2.45,3.18,3.31,4.29-5.7,5.02-11.5,9.72-16.8,14.93-6.3,6.2-12.36,12.67-18.14,19.36-3.05,3.53-5.3,7.75-7.89,11.67-2.71,4.1-5.43,8.2-8.08,12.34-1.05,1.64-2.05,3.33-2.83,5.11-2.05,4.64-3.94,9.34-5.95,14-4.47,10.34-13,16.99-22.45,21.72-11.72,5.87-24.18,10.37-37.99,10.21h-.01ZM397.74,372.88c-3.94,2.3-9.91,10.01-10.87,14.95,4.24-5.43,7.8-10,11.37-14.57,1.35-1.12,3.02-2.05,2.03-4.57-.84,1.4-1.68,2.79-2.53,4.19ZM500.87,375.43c2.39-2.97,5.5-5.45,7.18-10.45-3.7,3.64-6.3,6.48-7.1,10.52-.48.47-.96.95-1.44,1.42-.04-.04-.08-.09-.12-.13.49-.45.99-.91,1.48-1.36ZM428.96,472.37c-.33-.27-.67-.54-1-.82-10.19,12.16-20.39,24.31-30.58,36.47.02.01.03.03.05.04,10.51-11.9,21.03-23.8,31.54-35.7h-.01ZM496.96,342.98c1.22,4.76,2.18,8.5,3.2,12.48,1.75-7.09,1.36-8.95-3.2-12.48Z"/>
    <path class="st15" d="M410.13,184.89c-8.8.55-17.6,1.35-26.41,1.6-19.84.55-39.7,1.24-59.54,1.12-29.77-.19-59.12-3.81-87.63-12.89-4.43-1.41-4.74-1.26-6.94,2.74-1.81-1-3.76-1.83-5.43-3.04-3.91-2.86-3.34-8.14,1.28-9.5,2.86-.85,6.65-1.38,9.12-.19,8.49,4.11,17.59,5.3,26.65,6.79,11.02,1.82,22.04,4.19,33.15,4.88,16.07,1.01,32.21.91,48.33.94,11.79.02,23.59-.36,35.38-.82,10.39-.41,20.77-1.26,31.16-1.78,10.01-.5,20.02-.91,30.04-1.23,24.91-.79,49.76-2.26,74.26-7.17,10.22-2.05,20.26-4.75,29.68-9.4,3.05-1.51,6.73-.82,8.39,1.49,1.98,2.78.97,5.43-1.06,7.46-2.28,2.28-5.02,4.11-8.01,6.49.55,5.66,1.38,12.18,1.76,18.73.3,5.2,2.51,9,7.01,11.41,16.85,9.04,24.08,24.09,26.14,42.2,1.44,12.67,2.4,25.4,3.56,38-.75.46-1.3,1.09-1.75,1.03-9.1-1.2-17.27,2.71-25.8,4.61-7.26,1.62-14.45,3.59-21.75,5.02-4.12.81-8.38.84-13.28,1.29,2-6.34,3.58-11.97,5.55-17.45,3.83-10.69,7.87-21.31,11.85-31.95,1.07-2.86.77-4.47-2.56-5.36-5.46-1.46-11.09-2.61-16.71-3.02-27.37-2.03-54.48.8-81.45,5.23-5.78.95-11.48,2.68-17.02,4.61-6.17,2.15-7.57,4.56-7.27,11.1.35,7.64.98,15.27,1.41,22.91.14,2.5.02,5.01.02,7.85-2.1.24-3.82.61-5.54.61-12.87-.03-25.36,2.54-37.8,5.4-10.72,2.46-21.36,5.23-32.11,7.53-21.26,4.56-42.49,3.67-63.73-.5-11.16-2.19-22.42-3.86-33.64-5.75-11.07-1.87-21.91-.26-32.69,2.17-4.2.95-8.36,2.07-13.2,3.27.99-7.6,1.87-14.94,2.91-22.25,2.19-15.35,4.61-30.67,6.64-46.05,1.27-9.65,7.09-15.37,15.29-19.4,2.99-1.47,5.96-2.96,8.9-4.52,4.79-2.54,7.08-6.91,7.51-11.99.39-4.66.17-9.43-.35-14.09-.22-1.98-1.87-3.8-3.06-6.03.94.08,2.14-.11,3.07.3,12.59,5.46,26.09,6.96,39.42,9.08,24.57,3.91,49.35,3.31,74.09,3.13,9.03-.07,18.05-.77,27.08-.7,7.65.06,15.31,1.43,22.92,1.1,15.86-.68,31.71-1.85,47.52-3.27,14.81-1.33,29.6-3.05,44.35-4.98,13.41-1.76,26.77-3.93,39.7-8.09,4.81-1.55,9.54-3.31,13.19-7.27-1.17.42-2.38.74-3.51,1.26-10.62,4.93-21.95,7.5-33.4,9.09-20.97,2.91-42.02,5.17-63.04,7.7-.17-.09-.37-.15-.51-.28-.22-.22-.4-.48-.61-.74,2.91-.54,5.81-1.08,8.71-1.62-.08-.45-.16-.9-.24-1.34-3.76.4-7.54.7-11.28,1.24-4.92.72-9.82,1.63-14.73,2.46-1.99.09-3.97.19-5.96.28-2.68.18-5.36.36-8.04.54h.01ZM351.47,221.63c-2.98,2.02-4.54,4.41-4.69,7.18,2.05-2.61,3.69-4.7,5.34-6.8.42-.61.84-1.22,1.26-1.83-.29-.16-.58-.32-.86-.48-.35.64-.7,1.28-1.04,1.92h-.01ZM299.1,214.36c4.23-1.68,8.46-3.37,13.12-5.23-5.74-.78-10.49.13-14.34,4.13-10.1,9.4-19.09,19.75-26.58,31.37-3.56,4.86-6.33,10.07-7.04,16.22,2.74-4.93,5.48-9.85,8.22-14.78,4.92-6.28,9.7-12.68,14.8-18.82,3.72-4.48,7.87-8.61,11.82-12.9h0ZM296.81,200.29c-1.8-1.45-4.07-1.07-6.13.21-3.15,1.96-6.3,3.98-9.16,6.33-11.13,9.16-20.67,19.89-29.34,31.31-6.51,8.58-12.26,17.74-18.3,26.68-1.68,2.48-2.2,5.02.77,7.98,1.66-1.57,3.65-2.85,4.81-4.66,12.62-19.77,27.04-38.12,43.26-55.04,4.29-4.47,9.17-8.37,14.1-12.81h-.01ZM315.75,213.57l-1.13-1.13c-13.71,10.72-24.24,23.98-31.68,39.39,10.82-12.62,21.81-25.44,32.81-38.26ZM353.87,218.3c.33.34.67.67,1,1.01.79-.87,1.58-1.75,2.37-2.62l-.71-.7c-.89.77-1.78,1.54-2.67,2.32h.01Z"/>
    <path class="st12" d="M190.27,339.32c6.69,2.68,12.97,5.2,19.77,7.93-.39,4.77-.72,10.2-1.31,15.6-2.41,22.14-2.64,44.34-1.99,66.56.3,10.21.45,20.45,1.35,30.62,2.32,26.17,4.51,52.39,11.56,77.85,2.03,7.32,4.69,14.47,7.63,21.56-12.53-70.03-19.74-140.33-14.15-211.94,1.33.14,2.59.22,3.83.4,7.7,1.15,15.35.48,22.84-1.26,13.76-3.2,27.38-7.01,41.18-10.06,8.59-1.9,17.38-2.96,26.1-4.26,10.08-1.5,20.16-3.62,30.3-4.06,17.46-.77,34.98-.39,52.17,3.45,6.68,1.49,13.25,3.42,19.94,5.17.76,2.65-.81,4.41-2.49,6.08-5.43,5.41-11.07,10.62-16.3,16.21-17.73,18.95-35.65,37.82-47.9,61.01-6.87,13.02-12.56,26.66-19.29,39.76-7.02,13.65-14.82,26.87-27.08,36.73-1.37,1.1-2.72,2.42-4.31,3.01-7.54,2.81-15.04,5.83-22.78,7.97-7.81,2.15-9.03,3.45-7.28,11.39.08.36.01.75.01,1.49-1.67.64-3.51,1.25-5.28,2.03-3.71,1.65-4.65,3.65-3.25,7.54.79,2.19,2.06,4.2,3.3,6.66-.82.44-1.57.95-2.4,1.25-5.91,2.18-7.6,5.1-5.73,11.15.9,2.91,2.67,5.54,4.23,8.66-2.74,1.41-6.25,3.13-4.26,7.5,1.39,3.07,3.3,5.9,5.21,9.26-16.56,3.7-33.56,7.15-43.22,25.56-2.31-7.07-4.39-12.85-6.09-18.74-9.14-31.69-13.73-64.13-15.96-96.97-1.8-26.51-2.49-53.03-1.63-79.58.63-19.45,1.46-38.9,2.28-58.35.11-2.51.68-5,.99-7.18h0ZM232.13,538.42c-9.88-58.85-13.41-117.71-13.05-176.92-1.62,13.68-2.77,27.34-3.1,41.02-.73,29.69.52,59.31,3.85,88.84,1.82,16.12,5.79,31.68,12.3,47.06Z"/>
    <path class="st12" d="M524.17,558.14c-5.54,8.79-11.71,17.1-18.42,25.19-4.27-1.13-8.19-2.18-12.62-3.35,4.26-7.46,11.24-12.81,11.69-21.99-1.14,1.09-2.34,2.12-3.41,3.27-4.44,4.72-8.89,9.45-13.26,14.24-1.88,2.06-3.74,2.62-6.71,2.13-15.67-2.59-31.36-5.21-47.14-6.98-13.27-1.49-26.66-1.84-40-2.68-4.5-.28-9.01-.51-14.21-.8.98-1.57,1.5-2.74,2.31-3.66,5.7-6.44,9.18-14.11,12.35-21.97,5.72-14.17,13.43-27.03,24.5-37.76,7.75-7.51,14.42-16.11,23.39-22.41,2.55-1.79,4.56-2.48,7.47-1.26,7.68,3.23,15.78,2.19,23.82,2.38,13.76.32,22.29-8.48,31.21-16.73,8.48-7.84,14.76-17.26,19.44-27.8,3.41-7.7,2.57-15.57.12-23.05-2.92-8.92-6.94-17.48-10.51-26.18-.9-2.18-2.01-4.27-2.87-6.46-1.68-4.26-1.61-8.17,1.6-11.97,4.65-5.5,6-11.56,2.79-18.53-2.74-5.95-4.8-12.21-7.55-19.33,2.34.77,3.57,1.18,4.79,1.58,13.04,4.28,25.95,9,39.15,12.69,9.89,2.76,20.11,3.58,30.5-2.39,0,8.02.17,15.21-.03,22.38-.9,31.84-2.3,63.65-5.73,95.33-4.04,37.35-10.72,74.2-21.41,110.29-3.15,10.63-7.12,20.77-12.19,30.11-7.07-4.78-13.98-9.46-21.46-14.51,1.88-2.76,4.14-6.05,6.39-9.35-.11-.12-.22-.23-.33-.35-3.51,2.89-7.02,5.77-10.82,8.9-2.14-.75-4.27-1.5-6.47-2.27,4.87-7.5,9.62-14.43,13.91-21.63,1.93-3.24,4.59-6.27,4.9-10.34-.05-.17-.14-.34-.13-.5,0-.09.18-.17.27-.26-.05.29-.11.58-.16.87-7.28-.2-14.53-.3-21.19,4.7,5.3-.43,9.95-.81,14.61-1.19.47.54.94,1.09,1.41,1.63h0Z"/>
    <path class="st4" d="M250.91,580.53c.35,3.03.56,4.76.83,7.11-2.03,1.06-4.32,2.03-6.39,3.37-3.11,2.01-6.42,3.92-8.99,6.52-3.44,3.48-3.27,6.25-.52,10.37-1.59-7.54,7.07-15.55,17.34-15.93.29.43.71.87.9,1.39,3.39,9.41,11.1,12.93,20.04,14.83,1.15.24,2.29.51,3.42.85,16.9,5.11,31.16.1,43.72-11.4,2.03-1.86,3.77-4.1,5.99-5.67,4.81-3.4,9.75-6.28,15.99-6.92,4.58-.47,9.15-2.26,13.42-4.16,8.66-3.84,17.44-2.5,26.6-1.01-.82.52-1.59,1.17-2.47,1.55-11.88,5.1-23.75,10.2-35.67,15.18-2.89,1.21-5.96,1.97-8.96,2.93-3.48,1.11-6.4,2.94-8.25,6.36,2.04,3.65,5.51,5.27,9.21,6.65,8.55,3.2,17.51,4.57,26.63,5.48-1.64-.49-3.29-.93-4.9-1.5-2.14-.76-4.87-.57-5.79-3.42-2.52,1.64-4.91.53-7.3-.37-2.58-.97-5.2-1.83-7.71-2.94-2.1-.93-4.07-2.14-6.53-3.47,2.77-3.4,6.18-4.48,9.51-5.13,8.86-1.73,17.77-3.26,26.71-4.5,5.78-.81,11.65-.98,17.67-.91-8.51,6.04-18.4,9.46-27.94,15.44,14.6-5.22,26.65-14.09,41.14-16.5-.59-.12-1.19-.25-3.22-.67,3.6-1.82,6.03-3.16,8.54-4.3,2.66-1.21,5.39-2.25,7.94-3.77-4.67,1.87-9.35,3.71-14.01,5.6-4.04,1.64-8.09,2.26-12.57,2.12-7.63-.24-15.29.53-22.94.94-2.53.14-5.05.48-7.88-.1,1.25-.7,2.45-1.51,3.75-2.09,8.94-3.96,17.87-7.97,26.89-11.75,2.28-.96,4.92-1.68,7.35-1.55,15.52.83,31.03,1.91,46.53,2.97,2.12.15,4.21.69,7.12,2.24-.58.32-1.17.65-1.75.97,9.07-3.48,17.9.31,27.09,2-22.89,9.32-45.6,18.7-66.68,30.42,22.22-9.33,44.16-20.6,67.27-29.11.28.41.57.82.85,1.23-1.3,1.25-2.6,2.52-3.92,3.75-3.86,3.61-7.7,7.25-11.63,10.78-1.3,1.17-2.75,2.21-4.28,3.06-15.35,8.56-30.72,17.07-45.64,26.43,3.91-2.26,7.79-4.57,11.72-6.77,6.98-3.9,13.87-8,21.04-11.52,5.75-2.82,12-4.64,17.79-7.4,6.18-2.94,12.18-6.32,18.06-9.84,1.52-.91,2.17-3.18,3.38-4.71,2.61-3.3,5.69-4.41,9.7-2.21,1.64.9,3.65,1.15,6.34,1.95-1.05,1.56-1.68,3.19-2.86,4.14-7.92,6.41-15.96,12.68-23.95,19-.29.23-.54.5-.7.91,11.87-6.01,22.51-13.81,32.4-22.71,1.46.78,2.63,1.4,3.79,2.06.11.06.09.34.26,1.15-9.21,8.2-18.66,16.62-28.93,25.77,18.94-5.09,29.91-19.29,42.59-31.26,6.3,2.22,12.11,5.05,17.09,9.3,4.91,4.18,4.85,5.9.34,10.43-7.87,7.91-17.3,13.58-27.11,18.63-25.33,13.06-52.6,19.67-80.63,23.18-14.78,1.85-29.74,2.82-44.64,3.11-15.08.29-30.16-.78-45.22-2.5-25.54-2.92-50.32-8.52-74.21-17.97-17.16-6.79-32.79-16.06-46-29.1-3.86-3.81-3.84-4.93-1.03-9.7,2.32-3.93,5.73-6.6,9.77-8.22,7.81-3.15,15.77-5.89,24.48-9.1h.02,0ZM297.18,641.78s-.02.05-.02.07c4.65.18,9.3.28,13.94.54,30.77,1.76,61.51,3.91,92.37,1.76,22.53-1.57,45.02-3.25,66.96-9.03,5.94-1.57,12-2.97,17.2-6.56-1.65-.14-3.14.2-4.61.6-9.21,2.51-18.39,5.02-27.86,6.55-22.27,3.6-44.71,4.91-67.2,5.74-10.76.4-21.53.83-32.3.87-12.37.04-24.73-.38-37.1-.53-7.12-.08-14.25-.01-21.37-.01h-.01ZM374.09,620.12c-.18-.57-.35-1.14-.53-1.7,21.53-10.68,43.2-21.07,64.61-32.03-23.48,11.15-46.95,22.3-71.01,33.72,5.15.43,9.57.79,13.99,1.16-.04.28-.09.55-.13.83-2.31-.66-4.62-1.32-6.93-1.98h0ZM282.74,628c-13.63-5.36-27.24-10.75-40.91-15.99-.99-.38-2.43.4-3.24.56,13.83,7.9,28.74,12.37,44.15,15.43Z"/>
    <path class="st3" d="M529.44,249.07c-8.72,26.09-17.2,51.48-25.58,76.57-10.85.77-21.75,1.28-32.58,2.41-5.43.56-10.84,1.88-16.08,3.46-12.95,3.9-25.91,3.18-39.62,1.04,3.17-25.43.99-50.49-2.65-75.74,2.2-1.15,4.44-.89,6.71-.45,14.77,2.85,29.69,2.44,44.6,1.85,16.87-.66,33.63-2.38,50.21-5.61,4.77-.93,9.46-2.21,14.98-3.52h0Z"/>
    <path class="st18" d="M201.76,315.69c-4.46,4.14-4.54,9.07.34,12.59,3.1,2.24,6.84,3.58,10.68,5.51-.51,2.5-1.08,5.32-1.72,8.48-6.59-1.03-12.78-2.32-17.97-6.65-1.84-1.54-2.74-3.18-2.47-5.58.93-8.19,1.78-16.39,2.68-24.82,7.74-3.74,16.05-5.1,24.33-6.49,13.42-2.27,26.56.43,39.71,2.55,12.58,2.03,25.07,4.83,37.72,6.08,15.3,1.52,30.58.14,45.65-3.29,16.24-3.7,32.47-7.45,48.81-10.69,7.44-1.47,15.08-2.43,23.1-1.37,1.41,13.3-.27,26.29-1.26,40.09-5.3-1.06-9.94-1.63-14.36-2.94-11.4-3.37-23-4.95-34.87-5.02-6.08-.04-12.16-.39-18.24-.71-12.3-.65-24.13,2.93-36.23,3.9-22.71,1.83-43.91,10.19-66.05,14.42-8.29,1.58-16.54,3.36-25.04,1.8-.94-.17-1.85-.47-2.76-.7v-9.89c13.9.65,26.36-4.76,39.42-7.04,3.6-.63,7.15-.57,11.6,1.41-3.3-1.04-5.65-2.57-7.76-2.29-7.07.93-14.05,2.5-21.06,3.82-5.36,1.01-10.76,1.86-16.07,3.11-2.88.68-5.26-1.04-8.11-.92-2.66.11-5.66-1.36-8.07-2.86-5.43-3.38-5.85-6.45-2.27-12.07,2.04-1.34,4.09-2.69,6.13-4.03-3.08-.24-4.99,1.01-5.87,3.57v.03h0ZM293.02,324.75c4.72-1.14,9.4-2.55,14.18-3.35,5.01-.83,10.12-1.15,15.2-1.55,7.42-.58,11.66-1.42,13.49-2.86-9.2-1.38-36.41,3.08-42.86,7.75h0ZM368.57,302.22c.05.43.11.87.16,1.31,3.11,0,6.38-.63,9.28.15,4.29,1.16,8.05.12,12.01-.98,3.34-.92,6.7-2.26,10.29-.83.54.21,1.33-.23,3.25-.62-4.88-2.19-8.62-1.47-12.39-.92-5.01.72-10.03,1.37-15.06,1.86-2.49.24-5.03.04-7.54.04h0ZM397.75,322.77c-8.55-3.33-20.65-5-24.89-3.17,9,1.15,16.95,2.16,24.89,3.17ZM241.2,311.72c-6.8-1.16-13.12,1.18-17.35,5.81,3.13-1.28,5.73-2.51,8.43-3.4,2.92-.96,5.94-1.62,8.92-2.41ZM344.17,307.35c3.23,2.81,5.51,1.72,7.74,1.01-2.15-.28-4.29-.56-7.74-1.01ZM245.08,309.97c.13.57.26,1.14.39,1.71l5.34-1.14c-.08-.44-.16-.88-.24-1.31-1.83.25-3.66.49-5.49.74h0Z"/>
    <path class="st18" d="M581.38,287.47c.39,15.81.72,31.48,1.2,47.14.08,2.49-.81,4.01-2.78,5.35-3.15,2.14-6.34,3.7-10.32,3.73-6.51.05-12.82-.57-19.17-2.31-14.39-3.93-28.58-8.34-42.08-14.76-.05-6.04,4.76-20.62,9.75-29.39,16.18.23,31.41-5.28,46.93-9.3,5.2-1.35,10.27-2.1,16.48-.47h0ZM540.29,327.69c.01.25.03.49.04.74,2.77.38,5.53.83,8.3,1.11,4.27.43,8.56,1.03,12.84,1.02,5.32-.02,10.06-2.04,13.46-6.25,1.28-1.59,2.24-3.76,2.49-5.77.35-2.79-4.09-8.71-8.45-11.45,2.17,3.26,3.87,5.53,5.26,7.99,1.95,3.44,1.41,6.63-1.67,8.86-5.21,3.76-10.95,5.71-17.54,4.49-3.64-.68-7.36-1.02-11.06-1.33-1.2-.1-2.46.38-3.69.6h.02,0ZM532.33,304.05c8.81.88,27.8-3.65,32.02-7.42-10.55,2.44-20.61,4.77-32.02,7.42Z"/>
    <path class="st15" d="M329.9,174.83c-.34-2.39-.67-4.78-1.06-7.52-.27,2.76-.5,5.17-.73,7.58-1.69-.23-3.39-.47-5-.69-.39-2.83-.72-5.3-1.15-8.39-3.61,2.99-.19,5.92-1.71,8.52-.89-.33-1.75-.66-2.62-.98-.1-1.99-.21-3.99-.31-5.99-.35.06-.7.11-1.05.17.48,1.91.97,3.83,1.45,5.74-2.35,2.43-5.01,1-7.34,1.02-1.62-2.62.4-5.79-2.77-8.53v8.72c-1.53-.16-2.58-.28-3.48-.37v-8.42c2.94-.24,5.45-.45,7.97-.66-2.99-2.77-6.26-2.45-9.55-2.06-6.63-.59-13.26-1.26-19.9-1.77-10.95-.84-21.91-1.55-32.86-2.38-6.41-.48-12.96-.33-18.77-3.91-.89-.55-2.22-.38-3.27-.54-1.67-3-.48-5.06,1.8-7.36,1.68.46,3.55.84,5.33,1.48,14.52,5.24,29.4,8.38,44.91,8.54,16.31.17,32.64.36,48.92,1.24,15.16.83,30.22.64,45.29-1.19,2.67-.33,5.48.68,8.19.53,20.77-1.14,41.55-2.12,62.29-3.76,13.68-1.09,27.41-2.48,40.88-5.04,17.14-3.25,34.04-7.76,51.01-11.85,5.16-1.24,8.26-.26,11.55,4.61-4.7,2.56-9.8,3.52-14.89,4.54-8.45,1.69-16.91,3.36-25.36,5.04-1.46.43-2.93.86-4.39,1.29-1.74,0-3.5-.2-5.21,0-11.73,1.41-23.45,2.9-35.18,4.36-.13-3.43-2.67-2.14-4.35-2.05-5.83.31-11.32,3.12-17.31,2.46-.12,0-.27.26-.41.41-13.78,1.35-27.53,3.11-41.34,3.96-17.38,1.06-34.81,1.36-52.22,2.01-1.16.04-2.31.33-3.48,1.12,2.14.18,4.33.18,6.42.61,1.35.28,2.56,1.21,3.84,1.85-.76.17-1.52.34-2.27.51-.52,2.36-1.04,4.72-1.56,7.07-1.22-.38-2.83-.14-2.85-2.21,0-1.56-.27-3.12-.43-4.85-3.97,1.7-.75,4.57-1.97,6.37h-9.32c0-1.65.07-2.83-.02-4-.09-1.09-.35-2.16-.54-3.24-.29,0-.57,0-.86-.02-.25,2.44-.51,4.87-.77,7.39-1.27.22-2.42.42-3.57.62l.02.02h0ZM330.83,164.29h-12.11v.68h17.85c-.02-.32-.03-.63-.05-.95-1.9.09-3.79.18-5.69.27h0ZM341.63,167.35c-.46-.09-.92-.19-1.38-.28-.46,1.87-2.28,3.56-.08,6.88.64-2.87,1.05-4.74,1.46-6.61h0Z"/>
    <path class="st8" d="M531.82,242.23c.04,3.59-2.61,4.01-4.81,4.48-9.78,2.07-19.52,4.45-29.4,5.83-21.03,2.94-42.23,3.87-63.46,3.19-5.07-.16-10.13-1.07-15.16-1.83-1.39-.21-2.68-1.08-4.54-1.87,3.76-3.39,7.89-4.14,11.78-5.05,15.51-3.6,31.26-5.84,47.15-6.57,13.72-.64,27.48-.73,41.22-.69,5.81.02,11.73.3,17.22,2.51h0ZM491.13,247.49c-.03-.6-.07-1.2-.1-1.81-1.53-.73-3-1.88-4.6-2.11-8.71-1.26-17.49-3.23-26.03.82-2.18,1.03-5.91.86-5.68,4.1.24,3.46,3.99,3.43,6.55,3.75,8.27,1.01,16.49.47,24.49-1.98,1.9-.58,3.59-1.83,5.37-2.77h0Z"/>
    <path class="st13" d="M482.62,128.25c2.64-1.37,3.96-5.28,8.56-3.92-3.77,3.6-7.39,6.93-10.86,10.4-1.63,1.63-2.99,3.54-4.46,5.32.08.57.16,1.14.23,1.71.53-.28,1.07-.55,1.6-.83,1.4-1.03,2.72-2.19,4.21-3.07,1.61-.95,2.27-4.71,5.34-1.96.14.12,1.54-.98,2.19-1.66,2.29-2.4,4.95-4.6,6.67-7.38,2.8-4.51,6.85-5.11,11.79-5.14-6.5,6.11-12.73,11.94-18.94,17.78-1.25.95-2.51,1.9-3.76,2.85.28.41.57.82.85,1.23,1.46-.98,2.92-1.97,4.39-2.95,4.83-3.91,9.71-7.75,14.45-11.77,2.23-1.89,4.32-4,6.23-6.22,1.74-2.03,3.82-2.43,6.91-2.25-4.17,4.49-8.02,8.51-11.7,12.67-.93,1.05-1.33,2.56-1.97,3.87l.09-.07c-.78.6-1.56,1.2-2.34,1.8l1.87.65c-.37.75-.73,1.51-1.1,2.26-1.32,1-2.25-1.44-4.41.12-2.75,1.98-7.02,2.48-10.64,2.49-4.14,0-7.91,1.43-11.88,1.84-5.24.53-10.51.66-15.77,1.03-4.46.31-8.91.71-13.91,1.12.62-1.29,1.05-2.19,1.48-3.1l-.13.11c1.55-.09,3.33.04,2.44-2.46l-.09.12c.78.04,1.81.42,2.31.06,2.99-2.16,5.84-4.5,8.77-6.75,1.21-.93,2.1-2.96,4.23-1.24.21.17,1.58-.83,2.19-1.49,1.05-1.13,2.16-2.31,2.84-3.67,1.79-3.54,4.45-5.14,8.43-4.63,1.08.14,2.2-.07,3.63-.14-.43.96-.65,1.44-.86,1.92-8.04,5.11-14.51,11.94-20.71,19.09,8.58-4.34,15.37-10.83,21.84-17.73h-.01ZM475.39,142.02c-.31-.29-.62-.59-.94-.88-.67.83-1.33,1.67-2,2.5.52.47,1.04.93,1.56,1.4.46-1.01.92-2.01,1.38-3.02h0Z"/>
    <path class="st15" d="M513.59,154.06c.44-.36.84-.95,1.32-1.03,7.97-1.44,15.95-2.81,24.3-4.26-.23,2.41-.47,4.83-.74,7.61-7.07,3.68-14.97,5.85-22.97,7.37-9.94,1.89-20.01,3.06-30.02,4.54.44-1.09.87-2.18,1.31-3.27,1.39-2.28,1.52-4.57.01-6.86-1.27-.05-2.53-.1-3.8-.15.18-.32.31-.88.54-.92,5.5-.93,11-1.81,16.5-2.69.41,2.77.82,5.54,1.24,8.31.15,0,.29-.03.44-.04v-8.56c.5-.34,1-.69,1.49-1.03,1.68.22,3.53.22,3.48,2.68-1.72,1.85-1.28,3.8.11,5.78v-5.7c1.12-2.17,3.03-2.8,5.31-2.71.44.05.68.29.72.73-.29,2.39-.58,4.78-.87,7.18,2.29-2.06,1.74-4.55,1.62-6.97h0Z"/>
    <path class="st13" d="M238.58,142.77c-6.31-.28-6-5.73-7.36-9.7-.67-1.95-.51-4.19-.76-6.68,6.3,1.48,12.14,3.15,18.1,4.16,4.01.68,8.19.35,12.29.58,3.49.2,6.96.57,9.98.83-2.21,1.72-4.64,3.27-6.63,5.27-2.18,2.19-3.95,4.8-6.21,7.61,2.77-.69,6.25-2.92,10.44-6.69-1.46,2.1-2.95,4.24-4.44,6.38.19.28.39.57.58.85,1.24-.39,2.47-.77,3.23-1.01.08.99.16,2.08.25,3.17l.11-.12c-.62-.11-1.68-.49-1.79-.3-1.66,2.72-4.26,2.27-6.72,2.04-2.69-.25-5.38-1.08-8.04-.99-2.69.09-4.36-1.02-5.84-2.93.98-.5,1.96-1,2.94-1.5,1.93-2.13,3.86-4.26,5.79-6.39,1.61-.97,2.39-2.27.56-5.26-.63,1.17-1.26,2.34-1.89,3.51-1.86,2.24-3.72,4.48-5.59,6.71-.67.9-1.34,1.81-2.02,2.71-2.81.66-5.22.1-7.02-2.31,6.65-1.13,8.55-6.67,11-11.68-5.59,2.13-8.02,7.17-10.96,11.73h0ZM255.81,142.65c4.76-3.55,6.9-6.39,7.34-10.02-3.61,2.28-6.58,4.85-8.45,8.54-1.05,1.16-2.1,2.32-3.15,3.49l.93.84c1.11-.95,2.22-1.89,3.33-2.84h0ZM234.77,140.03c4.42-2.68,6.04-6.26,7.11-10.22-3.49,2.3-6.55,4.9-7.11,10.22Z"/>
    <path class="st12" d="M481.17,581.63c-1.88,3.07-3.36,3.85-6.55,3.37-16.27-2.48-32.6-4.51-48.93-6.56-8.92-1.12-17.86-2.35-26.83-2.83-9.17-.49-18.39-.11-28.26-.11,1.24-2.84,2.97-3.87,5.01-4.23,1.92-.34,3.92-.5,5.85-.35,22.91,1.83,45.84,3.49,68.72,5.74,10.23,1,20.33,3.22,30.98,4.97h0Z"/>
    <path class="st13" d="M447.73,145.06c-.38,0-.95-.17-1.11.02-3.31,3.82-7.98,3.65-12.34,4.07-5.16.5-10.36.61-15.59.89-.14-.73-.32-1.67-.51-2.61l-.1.08c.44.02.88.05,1.33.07-.02-.44-.05-.88-.07-1.33l-.06.05c.59.24,1.49.86,1.71.68,6-5.11,11.94-10.29,17.83-15.53.17-.15-.38-1.13-.6-1.72l-.02.06c.24.28.59.85.71.8,3.19-1.12,6.35-2.3,9.99-2.6-6.89,6.64-13.77,13.28-20.66,19.92,5.4-.37,9.17-3.28,12.74-6.45,3.36-2.99,6.84-5.94,9.73-9.35,3.16-3.73,6.94-5.39,11.66-5.48,1.36-.02,2.72-.17,5.01-.33-5.21,4.53-9.85,8.49-14.37,12.58-1.21,1.1-2.05,2.62-3.06,3.94l.09-.12c-.81.82-1.63,1.64-2.44,2.46l.13-.11h0Z"/>
    <path class="st15" d="M300.26,174.83c-13.82.08-27.1-3.82-40.68-5.51-3.86-.48-7.68-1.31-11.84-2.04.22-1.99.4-3.65.58-5.37h4.37c.18,1.32.33,2.47.59,4.4.46-1.89.75-3.06,1.09-4.44,3.76.38,7.36.73,10.97,1.1.47,1.52.91,2.93,1.34,4.34h.87c.09-1.31.18-2.63.31-4.62,6.46.34,12.61.67,18.61.98v7.42c.29,0,.59.02.88.03v-5.92h7.5c2.22.17,4.45.34,6.86.53.12,2.69.36,4.98.24,7.24-.03.65-1.11,1.24-1.71,1.86h.02Z"/>
    <path class="st13" d="M375.62,149.77c-6.72,5.56-14.54,3.32-22.07,3.08,1.11-.85,2.22-1.71,3.33-2.56,1.03,1.92,2.31.91,3.32.13,3.52-2.7,7.09-5.37,10.4-8.33,3.32-2.96,6.29-6.31,9.53-9.36,1.09-1.02,2.19-1.13,1.47.99-4.77,5.13-9.6,10.21-11.88,17.05,5.79-4.23,9.86-9.83,13.5-15.8,2.9-4.02,7.02-4.25,12.16-3.54-3.31,2.68-6.39,4.88-9.12,7.45-3.71,3.5-7.15,7.29-10.71,10.95l.06-.07h.01Z"/>
    <path class="st15" d="M404.04,165.89c1.36-.9,2.72-1.8,4.8-3.18v8.54c.95-1.65,1.59-2.28,1.68-2.98.69-5.54.78-5.63,7.25-4.89.28,2.77.57,5.59.9,8.89h-9.39c-1.67.15-3.35.29-5.03.44-2.29.24-5.39,1.5-6.71.48-2.37-1.84-3.37,1.03-5.31.5-2.08-.57-4.52.21-6.87.4-1.48-3.08-.72-5.9.17-8.62.15-.45,1.59-.48,2.93-.83.2,2.27.36,4.14.59,6.75.38-1.3.58-2,.78-2.7,2.2-.21,5.01.43,4.64-3.34.56.97,1.12,1.93,1.81,3.11.25-1.34.48-2.6.77-4.17,2.07.43,4.43-1.88,5.84,1.33-.13,1.64-.25,3.28-.38,4.92.51.03,1.02.05,1.53.08v-4.73h0Z"/>
    <path class="st13" d="M363.79,133.21c-4.88,3.49-9.83,6.88-14.6,10.51-2.01,1.53-3.75,3.46-5.41,5.39-4.22,4.9-9.58,5.89-16.72,5.01,3.06-2.49,5.53-4.22,7.68-6.29,4.09-3.94,8.2-7.9,11.91-12.18,2.5-2.89,5.02-4.14,8.62-2.58-1.65,1.49-3.3,2.98-4.96,4.47-2.88,3.06-5.76,6.13-8.64,9.19-.59.82-1.19,1.63-1.79,2.45.47.44.94.87,1.41,1.31.46-.95.91-1.89,1.37-2.84,3.02-2.96,6.03-5.91,9.05-8.87,1.51-1.54,3.02-3.08,4.54-4.62,2.35-1.41,4.66-3.08,7.42-.83l.11-.11h.01Z"/>
    <path class="st13" d="M389.8,149.77c-4.84,1.39-9.68,2.78-14.99,4.31.38-2.07.59-3.19.8-4.3l-.06.07c1.36,1.92,2.42.2,3.23-.48,5.38-4.46,11.1-8.63,15.83-13.71,4.24-4.55,8.74-5.79,14.44-4.51-.16.8-.3,1.49-.44,2.19l.08-.05c-6.64,2.69-11.28,7.88-16.01,12.95-.11.12.4.84.63,1.27l.04-.03c-1.89-.92-2.74-.35-3.63,2.42l.09-.12h0Z"/>
    <path class="st13" d="M513.83,139.21c5.77-6.53,11.3-12.79,16.83-19.07.51-.58.87-1.31,1.41-1.87,2.4-2.45,4.08-2.41,6.8.02,2.18-1.77,4.35-3.53,6.85-5.57-4.57,6.51-8.95,12.39-12.9,18.55-1.6,2.5-3.32,4.1-6.22,4.73-4.36.95-8.67,2.16-12.77,3.2h0ZM526.4,130.95c5.38-1.91,10.68-8.31,11.13-13.67-4.99,4.28-8.79,8.32-11.13,13.67Z"/>
    <path class="st13" d="M402.76,149.8c-4.22.87-8.45,1.75-12.75,2.63-.1-1.29-.15-1.98-.2-2.67l-.09.12c2.06.46,3.34-.23,3.63-2.42l-.04.03c.35.1.86.4,1.02.27,4.9-4.05,9.79-8.12,14.59-12.3.32-.28-.13-1.44-.22-2.19l-.08.05c.97,1.72,1.87.56,2.71-.11,2.84-2.27,6.36-3.24,10.55-2.92-5.01,4.73-9.92,9.3-14.74,13.97-.89.87-1.39,2.14-2.07,3.22l.09-.05c-.81.82-1.63,1.64-2.44,2.46l.04-.09h0Z"/>
    <path class="st13" d="M356.87,150.28c-1.11.85-2.22,1.71-3.33,2.56-3.03.18-6.07.36-10.02.59,6.24-5.43,11.86-10.1,17.18-15.08,1.38-1.29,4.37-2.09,3.09-5.15l-.11.11c3.81-.51,7.62-1.01,12.71-1.69-7.13,6.81-13.32,12.73-19.52,18.66h0Z"/>
    <path class="st15" d="M472.48,169.53c-.79.04-1.58.08-2.37.11-.14-2.89.68-5.93-1.15-9.6-2.21,3.69-.97,6.78-1.23,9.68-2.06.02-4.11.03-6.16.05v-7.38l-.99.04c.11,2.45.23,4.91.34,7.36-1.77,1.17-3.52,1.46-5.25-.07-.3-3.2-.6-6.4-.98-10.52h15.31c1.64.1,3.28.2,4.98.3v9.44h-.03c-.82.2-1.65.4-2.48.6h.01Z"/>
    <path class="st13" d="M294.09,150.97c-.36,0-.91-.14-1.07.05-2.81,3.39-5.89,3.19-9.04.84,5.76-5.73,11.49-11.52,17.34-17.2,2.17-2.1,4.15-2.12,11.24-.83-4.18,3.16-8.38,5.96-12.09,9.29-2.5,2.24-4.32,5.25-6.44,7.91l.06-.06h0Z"/>
    <path class="st13" d="M405.07,147.49c1.32,1.94,2.45.22,3.28-.4,2.74-2.05,5.31-4.32,8.54-6.13-.8,1.37-1.6,2.74-2.39,4.11.25.23.49.45.74.68,2.11-2.25,4.22-4.5,6.33-6.75,2.13-2.27,4.43-4.41,6.37-6.84,2.87-3.6,6.22-4.28,10.26-2.36l.02-.06c-.69.11-1.56,0-2.03.37-3.79,3.03-7.63,6-11.18,9.3-2.17,2.02-3.84,4.58-5.74,6.9l.06-.05c-.42.42-.84.84-1.26,1.26l.1-.08c-3.47,2.5-7.29,3.93-11.61,3.47-1.3-.14-2.55-.72-3.82-1.1l-.04.09c1.87.23,3.07-.2,2.44-2.46l-.09.05h.02Z"/>
    <path class="st15" d="M437.99,160.98c2.21-.61,4.42-1.22,6.62-1.83,1.4.42,2.96.42,2.84,2.73-.14,2.82.19,5.66.31,8.5-1.29.08-2.57.16-3.86.24v-9.19h-1.3c.16,3.03.33,6.06.49,9.09-.94.25-1.87.5-2.81.74-2.79-.21-5.58-.43-8.42-.64v-9.1c1.74-.08,3.49-.16,5.23-.24-.7,2.77-1.1,5.53,1.27,8.11-.13-2.8-.26-5.6-.39-8.4h.02Z"/>
    <path class="st13" d="M317.8,150.95c-.62-.11-1.6-.51-1.8-.27-2.71,3.26-6.43,2.98-10.72,3.36.91-1.06,1.32-1.68,1.86-2.16,5.5-4.92,11.24-9.6,16.44-14.82,3.01-3.02,5.95-4.84,10.39-3.66.07.69.14,1.49.22,2.29l.08-.05c-.33-.13-.83-.48-.95-.37-5.36,4.64-10.7,9.3-15.97,14.04-.23.2.22,1.15.35,1.76l.1-.12h0Z"/>
    <path class="st13" d="M294.03,151.03c.94-.05,2.21.28,2.77-.21,5.3-4.6,10.62-9.18,15.63-14.09,3-2.95,6.02-4.61,10.24-3.22-6.86,6.47-13.55,12.96-20.44,19.21-2.79,2.53-6.43,1.55-8.14-1.76l-.06.06h0Z"/>
    <path class="st13" d="M334.19,135.7c.45.14,1.17.53,1.31.38,2.46-2.6,5.38-3.75,9.34-2.83-.86.85-1.67,1.69-2.5,2.5-5.32,5.14-10.76,10.16-15.93,15.45-2.54,2.6-5.24,3.17-8.43,1.96-.3-.11-.14-1.44-.19-2.21l-.1.12c7.19-3.15,12.32-8.75,17.19-14.62.05-.06-.4-.52-.62-.8l-.08.05h0Z"/>
    <path class="st13" d="M502.87,141.57c.37-.75.73-1.51,1.1-2.26.16-.81.32-1.63.47-2.44l-.09.07c1.06-.38,2.42-.46,3.13-1.18,4.41-4.45,8.92-8.84,12.88-13.67,2.38-2.9,5.06-3.74,8.96-3.82-6.56,7.14-12.59,14.07-19.09,20.52-1.7,1.69-4.87,1.89-7.37,2.78h0Z"/>
    <path class="st15" d="M383.57,166.38c.14.77.33,1.54.41,2.31.37,3.47-1.58,5.3-5.83,5.49-.26-2.48-.52-5.01-.86-8.24-2.71,3-.83,5.41-.73,8.23h-8.13v-8.87h14.3l.84,1.08Z"/>
    <path class="st15" d="M351.78,167.7c.76-.17,1.52-.34,2.27-.51,3.69-.53,7.37-1.06,11.06-1.59.39.3.77.6,1.16.9.66,2.37,1.31,4.74,2.14,7.73-5.71.4-10.91.76-16.63,1.16v-7.69Z"/>
    <path class="st16" d="M447.76,170.37c-.12-2.83-.45-5.68-.31-8.5.11-2.3-1.44-2.31-2.84-2.73-1.26-.5-2.52-1-3.77-1.5.14-.14.29-.42.41-.41,5.99.66,21.52-3.84,21.66-.41,1.7,3.08,4.72.8,6.95,1.72.06.21.11.42.15.64h-15.31c.39,4.12.68,7.32.98,10.52-.66.31-1.32.62-1.98.94-.4-3.54-.8-7.08-1.22-10.83-1,.38-2.18.83-3.32,1.27-.17,3.36-.33,6.44-.48,9.51-.34.06-.64,0-.92-.22Z"/>
    <path class="st13" d="M298.09,133.27c-4.79,5.21-9.54,10.31-14.22,15.47-3.22,3.55-3.17,3.59-8.59,1.77,6.19-5.74,12.31-11.45,18.48-17.11,1.55-1.42,3.15-1.1,4.33-.14h0Z"/>
    <path class="st16" d="M300.26,174.83c.6-.62,1.67-1.21,1.71-1.86.12-2.27-.12-4.55-.24-7.24-2.41-.19-4.64-.36-6.86-.53,1.06-.2,2.14-.32,3.17-.63,1.52-.46,3-1.05,4.5-1.58,3.29-.39,6.57-.7,9.55,2.06-2.52.21-5.03.42-7.97.66v8.42c.9.1,1.96.21,3.48.37v-8.72c3.17,2.74,1.16,5.91,2.77,8.53,2.33-.03,4.99,1.4,7.34-1.02l-.08.07c.86.32,1.73.65,2.62.98,1.52-2.6-1.9-5.53,1.71-8.52.42,3.09.76,5.56,1.15,8.39,1.62.22,3.31.45,5,.69-2.8.25-5.61.75-8.4.7-6.49-.12-12.97-.5-19.45-.77h0Z"/>
    <path class="st13" d="M268.04,147.54c4.86-4.18,9.96-8.13,14.48-12.65,2.23-2.24,4.23-3.03,6.67-2.37-5.09,5.39-10.4,10.81-15.46,16.45-2.11,2.35-4.03,1.76-6.25.64.23-.77.45-1.48.67-2.19l-.11.12h0Z"/>
    <path class="st16" d="M410.13,184.89c2.68-.18,5.36-.36,8.04-.54,2.06,1.47,4.07,1.98,5.96-.28,4.91-.83,9.8-1.75,14.73-2.46,3.74-.55,7.52-.84,11.28-1.24.08.45.16.9.24,1.34-2.9.54-5.79,1.08-8.71,1.62.21.26.38.53.61.74.13.13.34.19.51.28-1.91.2-3.83.41-5.74.61-1.29.08-2.58.17-3.87.25-7.71,2.01-15.37.88-23.04-.31h-.01Z"/>
    <path class="st15" d="M470.01,159.19c-.04-.21-.09-.43-.15-.64,2.91-.35,5.81-.9,8.72-.96,1.42-.03,2.86.88,4.28,1.36.08,3.16.17,6.32.25,9.48-2.71.16-5.42.32-8.13.48v-9.44c-1.69-.1-3.34-.2-4.98-.3v.02h.01Z"/>
    <path class="st12" d="M502.45,587.05c-1.83,2.02-2.98,3.27-4.21,4.63-4.01-1.33-7.84-2.59-11.87-3.92,1.28-3.03,2.88-4.52,6.27-3.31,2.88,1.03,5.93,1.59,9.81,2.6Z"/>
    <path class="st13" d="M533.78,132.91c3.28-4.48,6.35-8.66,10.1-13.77-.04,12.3-.82,12.46-10.1,13.77Z"/>
    <path class="st15" d="M425.25,170.61c-1.31,3.3-3.9,1.03-6.42,1.98.2-3.46.37-6.28.56-9.62,1.95-.13,3.87-.26,5.8-.39-2.14,2.69-.19,5.35.06,8.03h0Z"/>
    <path class="st12" d="M512.81,590.99c-1.92,1.73-3.48,3.13-5.31,4.79-1.75-.81-3.41-1.58-5.12-2.38,3.43-4.77,3.43-6.36,10.43-2.41Z"/>
    <path class="st16" d="M329.9,174.83c1.15-.2,2.3-.4,3.57-.62.26-2.52.52-4.95.77-7.39.29,0,.57,0,.86.02.19,1.08.45,2.15.54,3.24.09,1.17.02,2.35.02,4h9.32c1.22-1.79-2-4.67,1.97-6.37.16,1.73.42,3.29.43,4.85.01,2.07,1.63,1.83,2.85,2.21-4.74.26-9.47.62-14.21.73-2.03.05-4.08-.43-6.12-.67h0Z"/>
    <path class="st15" d="M448.68,170.59c.16-3.07.31-6.15.48-9.51,1.15-.44,2.33-.89,3.32-1.27.42,3.75.82,7.29,1.22,10.83-1.67-.02-3.35-.04-5.02-.05h0Z"/>
    <path class="st15" d="M483.11,168.44c-.08-3.16-.17-6.32-.25-9.48-.12-.35-.07-.66.16-.95,1.27.05,2.53.1,3.8.15,0,2.29,0,4.57-.01,6.86-.44,1.09-.88,2.18-1.31,3.27-.79.05-1.58.1-2.38.16h0Z"/>
    <path class="st15" d="M426.15,162.34c1.01-.3,2.02-.59,3.03-.89.23,3.01.46,6.01.69,9.01-1.42.4-2.32.65-3.23.91-.28-.12-.4-.33-.37-.63-.04-2.79-.08-5.59-.12-8.39h0Z"/>
    <path class="st16" d="M426.63,171.36c.91-.25,1.81-.51,3.23-.91-.23-2.99-.46-6-.69-9.01.91,0,1.81.03,2.7.05v9.11c2.83.22,5.63.43,8.42.64-4.56.04-9.11.07-13.66.11h0Z"/>
    <path class="st15" d="M247.4,167.1c-2.98-.81-5.29-1.23-7.43-2.07-1.92-.76-2.08-3.24-.38-4.12.58-.3,2.02-.27,2.1-.04.97,2.59,5.96-1.87,5.42,3.14-.08.72.12,1.47.28,3.1h0Z"/>
    <path class="st13" d="M281.72,132.38c-2.73,2.15-4.81,3.79-7.84,6.18,1.04-2.65,1.65-4.23,2.42-6.18h5.42,0Z"/>
    <path class="st16" d="M467.74,169.72c.25-2.9-.99-5.99,1.23-9.68,1.83,3.67,1.01,6.71,1.15,9.6-.79.03-1.59.05-2.38.08h0Z"/>
    <path class="st15" d="M394.48,165.36c.36,3.77-2.45,3.13-4.64,3.34-.4-4.33-.04-4.59,4.64-3.34Z"/>
    <path class="st16" d="M506.71,155.76c.05-2.46-1.8-2.46-3.48-2.68-.08-.21-.06-.42.06-.62,1.47-.43,2.93-.86,4.39-1.29,1.48.65,2.97,1.3,4.45,1.95-2.28-.09-4.19.55-5.31,2.71l-.11-.08h0Z"/>
    <path class="st16" d="M426.15,162.34c.04,2.8.08,5.6.12,8.39h-.52s-.5-.12-.5-.13c-.25-2.68-2.2-5.34-.06-8.03.24-.41.56-.49.96-.24h0Z"/>
    <path class="st16" d="M201.76,315.69c.88-2.56,2.8-3.82,5.87-3.57-2.04,1.34-4.09,2.69-6.13,4.03l-.02-.31.28-.14h0Z"/>
    <path class="st16" d="M443.1,170.51c-.16-3.03-.33-6.06-.49-9.09h1.3v9.19l-.42.07-.39-.16h0Z"/>
    <path class="st16" d="M513.59,154.11c.12,2.96.67,6.01-1.62,8.54.29-2.93.58-5.87.87-8.8.25.08.5.17.74.26h.01Z"/>
    <path class="st15" d="M233.73,159.27c3,.12,3.91,1.48,3.81,4.02-2.9.13-3.87-1.18-3.81-4.02Z"/>
    <path class="st16" d="M437.99,160.98c.13,2.8.26,5.6.39,8.4-2.37-2.58-1.97-5.34-1.27-8.11.22-.32.51-.42.88-.29h0Z"/>
    <path class="st16" d="M460.93,169.78c-.11-2.45-.23-4.91-.34-7.36l.99-.04v7.38l-.32.21-.33-.19h0Z"/>
    <path class="st12" d="M404.25,172.72c1.68-.15,3.36-.29,5.03-.44-1.68.15-3.35.29-5.03.44Z"/>
    <path class="st16" d="M404.04,165.89v4.73c-.51-.03-1.02-.05-1.53-.08.13-1.64.25-3.29.38-4.92.38.09.77.18,1.15.27Z"/>
    <path class="st6" d="M433.17,185.21c1.29-.08,2.58-.17,3.87-.25-1.29.08-2.58.17-3.87.25Z"/>
    <path class="st18" d="M472.48,169.53c.83-.2,1.65-.4,2.48-.6-.83.2-1.65.4-2.48.6Z"/>
    <path class="st12" d="M522.76,556.51c.85-.02,1.69-.04,2.54-.06-.38.57-.75,1.13-1.13,1.7-.47-.54-.94-1.09-1.41-1.63h0Z"/>
    <path class="st6" d="M366.27,166.51c-.39-.3-.77-.6-1.16-.9.39.3.77.6,1.16.9Z"/>
    <path class="st18" d="M383.57,166.38l-.84-1.08.84,1.08Z"/>
    <path class="st16" d="M428.96,472.37c-10.51,11.9-21.03,23.8-31.54,35.7-.02-.01-.03-.03-.05-.04,10.19-12.16,20.39-24.31,30.58-36.47.33.27.67.54,1,.82h.01Z"/>
    <path class="st16" d="M496.96,342.98c4.55,3.53,4.95,5.39,3.2,12.48-1.02-3.98-1.98-7.72-3.2-12.48Z"/>
    <path class="st16" d="M500.95,375.5c.8-4.04,3.4-6.87,7.1-10.52-1.68,4.99-4.79,7.48-7.18,10.45l.09.07h-.01Z"/>
    <path class="st16" d="M398.24,373.27c-3.56,4.57-7.13,9.14-11.37,14.57.95-4.94,6.92-12.65,10.87-14.95.18.12.34.25.5.38Z"/>
    <path class="st12" d="M386.91,530.5c-3.47,3.27-6.63,6.24-10.73,10.11,2.67-5.86,6.31-9.15,10.73-10.11Z"/>
    <path class="st10" d="M397.74,372.88c.84-1.4,1.68-2.79,2.53-4.19.99,2.52-.68,3.45-2.02,4.57-.16-.14-.33-.27-.5-.38h-.01Z"/>
    <path class="st14" d="M500.87,375.43c-.49.45-.99.91-1.48,1.36.04.04.08.09.12.13.48-.47.96-.95,1.44-1.42l-.08-.07h0Z"/>
    <path class="st16" d="M296.81,200.29c-4.93,4.45-9.82,8.34-14.1,12.81-16.21,16.92-30.64,35.27-43.26,55.04-1.16,1.81-3.15,3.09-4.81,4.66-2.96-2.96-2.44-5.51-.77-7.98,6.04-8.93,11.79-18.1,18.3-26.68,8.67-11.42,18.21-22.15,29.34-31.31,2.86-2.35,6.01-4.37,9.16-6.33,2.06-1.28,4.33-1.66,6.13-.21h0Z"/>
    <path class="st16" d="M315.75,213.57c-10.99,12.82-21.99,25.64-32.81,38.26,7.44-15.4,17.97-28.67,31.68-39.39l1.13,1.13Z"/>
    <path class="st16" d="M271.3,244.64c7.49-11.62,16.48-21.96,26.58-31.36.41.36.81.73,1.22,1.09-3.96,4.29-8.1,8.42-11.82,12.9-5.1,6.13-9.88,12.53-14.79,18.81-.39-.48-.79-.96-1.18-1.43h0Z"/>
    <path class="st16" d="M271.3,244.64c.4.48.79.95,1.18,1.43-2.74,4.93-5.49,9.86-8.23,14.79.71-6.15,3.48-11.36,7.04-16.22h.01Z"/>
    <path class="st16" d="M299.1,214.36c-.41-.36-.82-.72-1.22-1.09,3.85-4.01,8.6-4.91,14.34-4.14-4.66,1.86-8.89,3.54-13.12,5.23Z"/>
    <path class="st16" d="M352.11,222.01c-1.65,2.09-3.29,4.19-5.34,6.8.15-2.77,1.72-5.16,4.69-7.18.23.1.45.23.65.39h0Z"/>
    <path class="st16" d="M353.87,218.3c.89-.77,1.78-1.54,2.67-2.32l.71.7c-.79.87-1.58,1.75-2.37,2.62-.33-.34-.67-.67-1-1.01h-.01Z"/>
    <path class="st14" d="M424.12,184.06c-1.88,2.26-3.89,1.76-5.96.28,1.98-.09,3.97-.19,5.96-.28Z"/>
    <path class="st16" d="M351.47,221.63c.35-.64.7-1.28,1.04-1.92.29.16.58.32.86.48-.42.61-.84,1.22-1.26,1.83-.2-.16-.41-.29-.65-.39h.01Z"/>
    <path class="st16" d="M232.13,538.42c-6.5-15.38-10.48-30.94-12.3-47.06-3.32-29.52-4.58-59.15-3.85-88.84.33-13.68,1.49-27.35,3.1-41.02-.36,59.21,3.17,118.08,13.05,176.92Z"/>
    <path class="st14" d="M529.34,553c.05-.29.11-.58.16-.87-.1.09-.27.17-.27.26-.01.16.08.33.13.5v.12h-.02s0-.01,0-.01Z"/>
    <path class="st16" d="M297.18,641.78c7.12,0,14.25-.07,21.37.01,12.37.14,24.73.57,37.1.53,10.77-.04,21.54-.47,32.3-.87,22.49-.83,44.93-2.14,67.2-5.74,9.47-1.53,18.65-4.04,27.86-6.55,1.47-.4,2.96-.74,4.61-.6-5.2,3.59-11.26,4.99-17.2,6.56-21.94,5.78-44.43,7.45-66.96,9.03-30.85,2.15-61.6,0-92.37-1.76-4.64-.27-9.29-.37-13.94-.54,0-.02.02-.05.02-.07h.01Z"/>
    <path class="st14" d="M374.09,620.12c2.31.66,4.62,1.32,6.93,1.98.04-.28.09-.56.13-.83-4.42-.37-8.84-.73-13.99-1.16,24.06-11.42,47.53-22.57,71.01-33.72-21.4,10.96-43.08,21.35-64.61,32.03.18.57.35,1.14.53,1.7h0Z"/>
    <path class="st16" d="M282.74,628c-15.4-3.06-30.32-7.53-44.15-15.43.8-.16,2.24-.94,3.24-.56,13.67,5.24,27.28,10.63,40.91,15.99Z"/>
    <path class="st16" d="M293.02,324.75c6.45-4.67,33.66-9.13,42.86-7.75-1.83,1.44-6.07,2.28-13.49,2.86-5.08.4-10.18.71-15.2,1.55-4.78.79-9.46,2.21-14.18,3.35h0Z"/>
    <path class="st16" d="M368.57,302.22c2.51,0,5.05.2,7.54-.04,5.03-.49,10.05-1.14,15.06-1.86,3.77-.55,7.51-1.26,12.39.92-1.92.39-2.72.83-3.25.62-3.59-1.43-6.95-.09-10.29.83-3.96,1.09-7.72,2.14-12.01.98-2.89-.78-6.17-.15-9.28-.15-.05-.43-.11-.87-.16-1.31h0Z"/>
    <path class="st16" d="M397.75,322.77c-7.95-1.01-15.9-2.03-24.89-3.17,4.25-1.82,16.34-.16,24.89,3.17Z"/>
    <path class="st16" d="M241.2,311.72c-2.98.79-6,1.44-8.92,2.41-2.71.9-5.3,2.12-8.43,3.4,4.22-4.63,10.55-6.97,17.35-5.81h0Z"/>
    <path class="st16" d="M344.17,307.35c3.45.45,5.59.73,7.74,1.01-2.24.72-4.51,1.8-7.74-1.01Z"/>
    <path class="st16" d="M245.08,309.97c1.83-.25,3.66-.49,5.49-.74.08.44.16.88.24,1.31l-5.34,1.14c-.13-.57-.26-1.14-.39-1.71h0Z"/>
    <path class="st16" d="M540.29,327.69c1.23-.22,2.49-.7,3.69-.6,3.7.31,7.41.66,11.06,1.33,6.59,1.22,12.33-.72,17.54-4.49,3.08-2.23,3.62-5.42,1.67-8.86-1.39-2.46-3.1-4.73-5.26-7.99,4.36,2.73,8.8,8.65,8.45,11.45-.25,2.01-1.21,4.18-2.49,5.77-3.4,4.21-8.14,6.23-13.46,6.25-4.28.01-8.57-.59-12.84-1.02-2.78-.28-5.54-.73-8.3-1.11-.01-.25-.03-.49-.04-.74h-.02,0Z"/>
    <path class="st16" d="M532.33,304.05c11.41-2.64,21.47-4.97,32.02-7.42-4.22,3.76-23.21,8.29-32.02,7.42Z"/>
    <path class="st16" d="M503.29,152.46c-.12.2-.14.4-.06.62-.5.34-.99.69-1.49,1.02-.56.09-1.12.2-1.68.3-5.5.89-11.01,1.76-16.5,2.69-.22.04-.36.6-.54.92-.23.29-.28.61-.16.95-1.43-.48-2.86-1.39-4.28-1.36-2.91.05-5.81.61-8.72.96-2.23-.92-5.26,1.36-6.96-1.72,11.72-1.46,23.45-2.96,35.18-4.36,1.71-.21,3.47,0,5.21,0v-.02Z"/>
    <path class="st16" d="M330.89,164.96h-12.16v-.68h12.11c-.14.24-.12.47.06.68h0Z"/>
    <path class="st16" d="M341.63,167.35c-.41,1.87-.83,3.73-1.46,6.61-2.19-3.33-.37-5.01.08-6.88.46.09.92.19,1.38.28h0Z"/>
    <path class="st16" d="M330.89,164.96c-.18-.21-.2-.44-.06-.68,1.9-.09,3.8-.18,5.69-.27.02.32.03.63.05.95h-5.68Z"/>
    <path class="st16" d="M317.72,173.29c-.48-1.91-.97-3.83-1.45-5.74.35-.06.7-.11,1.05-.17.1,2,.21,3.99.31,5.99l.08-.07h.01Z"/>
    <path class="st16" d="M491.13,247.49c-1.79.94-3.48,2.19-5.37,2.77-8,2.45-16.22,2.99-24.49,1.98-2.56-.31-6.3-.29-6.55-3.75-.23-3.24,3.51-3.07,5.68-4.1,8.54-4.05,17.32-2.09,26.03-.82,1.6.23,3.07,1.39,4.6,2.11.03.6.07,1.2.1,1.81h0ZM487.9,246.9c-10.43-2.79-20.77-3.97-31.93,1.87,11.65,3.67,21.86,2.12,31.93-1.87Z"/>
    <path class="st16" d="M482.62,128.25c-6.47,6.9-13.26,13.4-21.84,17.73,6.2-7.15,12.67-13.97,20.71-19.09.38.45.75.9,1.13,1.36Z"/>
    <path class="st16" d="M490.42,140.64c-1.46.98-2.92,1.97-4.39,2.95-.28-.41-.57-.82-.85-1.23,1.25-.95,2.51-1.9,3.76-2.85.49.38.98.75,1.48,1.13Z"/>
    <path class="st16" d="M504.44,136.86c-.16.81-.31,1.63-.47,2.44-.63-.21-1.25-.43-1.87-.65.78-.6,1.56-1.2,2.34-1.8h0Z"/>
    <path class="st16" d="M447.6,145.17c.81-.82,1.63-1.64,2.44-2.46.88,2.5-.89,2.38-2.44,2.46Z"/>
    <path class="st16" d="M475.39,142.02c-.46,1.01-.92,2.01-1.38,3.02-.52-.47-1.04-.93-1.56-1.4.67-.83,1.33-1.67,2-2.5.31.29.62.59.94.88h0Z"/>
    <path class="st14" d="M477.69,140.94c-.53.28-1.07.55-1.6.83-.07-.57-.15-1.15-.23-1.71.6.3,1.22.59,1.83.88h0Z"/>
    <path class="st16" d="M500.06,154.48c.56-.13,1.12-.26,1.68-.38v10.82c-.15.02-.29.04-.44.06-.41-3.5-.82-7-1.24-10.5h0Z"/>
    <path class="st16" d="M486.8,166.7c0-2.85.01-5.69.02-8.54,2.15,2.85,1.97,5.7-.02,8.54Z"/>
    <path class="st16" d="M506.82,155.85v6.7c-1.39-2.33-1.83-4.63-.11-6.8l.11.09h0Z"/>
    <path class="st16" d="M238.58,142.77c2.94-4.56,5.37-9.6,10.96-11.73-2.46,5.01-4.35,10.55-11,11.68l.04.05Z"/>
    <path class="st16" d="M254.7,141.16c1.87-3.69,4.84-6.25,8.45-8.54-.43,3.63-2.57,6.47-7.34,10.02-.37-.5-.74-.99-1.11-1.49h0Z"/>
    <path class="st16" d="M234.77,140.03c.56-5.32,3.62-7.92,7.11-10.22-1.07,3.96-2.69,7.55-7.11,10.22Z"/>
    <path class="st16" d="M247.58,142.32c1.86-2.24,3.72-4.48,5.59-6.71.44.58.89,1.17,1.33,1.75-1.93,2.13-3.86,4.26-5.79,6.39-.37-.48-.75-.95-1.12-1.43h-.01Z"/>
    <path class="st16" d="M255.81,142.65c-1.11.95-2.22,1.89-3.33,2.84l-.93-.84c1.05-1.16,2.1-2.32,3.15-3.49.37.5.74.99,1.11,1.49Z"/>
    <path class="st16" d="M253.16,135.6c.63-1.17,1.26-2.34,1.89-3.51,1.83,2.99,1.05,4.29-.56,5.26-.44-.58-.89-1.17-1.33-1.75Z"/>
    <path class="st16" d="M245.56,145.03c.67-.9,1.34-1.81,2.02-2.71.38.48.75.95,1.12,1.43-.98.5-1.96,1-2.94,1.5l-.2-.22h0Z"/>
    <path class="st16" d="M419.28,146.31c1.9-2.32,3.56-4.88,5.74-6.9,3.54-3.3,7.39-6.27,11.18-9.3.47-.38,1.34-.26,2.03-.37.21.59.77,1.56.6,1.72-5.88,5.24-11.83,10.42-17.83,15.53-.22.19-1.12-.43-1.71-.68h-.01Z"/>
    <path class="st14" d="M418.08,147.52c.42-.42.84-.84,1.26-1.26.02.44.05.88.07,1.33-.44-.02-.88-.05-1.33-.07h0Z"/>
    <path class="st16" d="M383.22,134.97c-3.64,5.97-7.71,11.57-13.5,15.8,2.28-6.84,7.11-11.92,11.88-17.05.54.42,1.08.83,1.62,1.25Z"/>
    <path class="st16" d="M351.73,138.77c-3.02,2.96-6.03,5.91-9.05,8.87-.33-.31-.67-.61-1-.92,2.88-3.06,5.76-6.13,8.64-9.19.47.41.94.83,1.41,1.24h0Z"/>
    <path class="st16" d="M356.26,134.15c-1.51,1.54-3.03,3.08-4.54,4.62-.47-.41-.94-.83-1.41-1.24,1.65-1.49,3.3-2.98,4.96-4.47.33.36.66.73.99,1.09h0Z"/>
    <path class="st13" d="M342.67,147.64c-.46.95-.91,1.89-1.37,2.84-.47-.44-.94-.87-1.41-1.31.6-.82,1.19-1.63,1.79-2.45.33.31.66.61,1,.92h-.01Z"/>
    <path class="st16" d="M408.69,133.28c.09.75.54,1.91.22,2.19-4.8,4.18-9.69,8.25-14.59,12.3-.16.13-.67-.17-1.02-.27-.22-.44-.74-1.15-.63-1.27,4.73-5.06,9.36-10.25,16.01-12.95h0Z"/>
    <path class="st16" d="M393.35,147.47c-.29,2.18-1.58,2.88-3.63,2.42.89-2.77,1.74-3.33,3.63-2.42Z"/>
    <path class="st16" d="M526.4,130.95c2.35-5.35,6.14-9.39,11.13-13.67-.45,5.36-5.75,11.76-11.13,13.67Z"/>
    <path class="st16" d="M405.16,147.44c.63,2.26-.57,2.69-2.44,2.46.81-.82,1.63-1.64,2.44-2.46Z"/>
    <path class="st16" d="M334.27,135.65c.22.27.67.74.62.8-4.88,5.88-10,11.47-17.19,14.62-.13-.6-.58-1.55-.35-1.76,5.27-4.74,10.61-9.4,15.97-14.04.12-.1.63.24.95.37h0Z"/>
    <path class="st17" d="M487.9,246.9c-10.08,3.99-20.28,5.54-31.93,1.87,11.16-5.84,21.51-4.66,31.93-1.87Z"/>
    <path class="st16" d="M521.46,151.78c.51,2.99,1.03,5.98,1.54,8.97-.43.05-.86.11-1.29.16-.35-3.05-.71-6.09-1.06-9.13l.41-.11.4.11Z"/>
    <path class="st16" d="M527.64,160.66c-.45-2.77-.9-5.53-1.36-8.3,2.65,2.29,2.57,5.07,2.2,7.91-.18.35-.46.48-.84.39Z"/>
    <path class="st16" d="M474.81,168.83c-.11-2.45-.23-4.91-.34-7.36l.99-.04v7.38l-.32.21-.33-.19h0Z"/>
    <path class="st16" d="M482.88,158.29c.22,2.86.45,5.72.67,8.58-.51,0-1.02,0-1.54-.02-.11-2.99-.21-5.98-.32-8.96.4.14.79.27,1.19.39h0Z"/>
    <path class="st2" d="M201.5,316.14c-3.57,5.63-3.16,8.7,2.27,12.08,2.4,1.5,5.41,2.97,8.07,2.86,2.84-.12,5.23,1.59,8.11.92,5.31-1.25,10.71-2.1,16.07-3.11,7.01-1.33,14-2.9,21.06-3.82,2.11-.28,4.45,1.25,7.76,2.29-4.46-1.97-8-2.03-11.6-1.41-13.06,2.28-25.52,7.69-39.42,7.04v9.89c.9.23,1.82.53,2.76.7,8.5,1.55,16.75-.22,25.04-1.8,22.14-4.23,43.34-12.6,66.05-14.42,12.09-.97,23.93-4.55,36.23-3.9,6.08.32,12.16.67,18.24.71,11.87.07,23.47,1.65,34.87,5.02,4.42,1.31,9.06,1.88,14.36,2.94.98-13.79,2.67-26.78,1.26-40.09-8.02-1.07-15.66-.1-23.1,1.37-16.33,3.24-32.57,6.98-48.81,10.69-15.06,3.43-30.35,4.81-45.65,3.29-12.65-1.25-25.15-4.05-37.72-6.08-13.15-2.12-26.29-4.82-39.71-2.55-8.28,1.4-16.59,2.75-24.33,6.49-.9,8.42-1.76,16.62-2.68,24.82-.27,2.4.62,4.04,2.47,5.58,5.2,4.33,11.38,5.62,17.97,6.65.64-3.17,1.21-5.99,1.72-8.48-3.84-1.93-7.58-3.27-10.68-5.51-4.88-3.53-4.8-8.46-.34-12.59l-.28.14.02.31v-.03h0ZM581.38,284.8c-6.2-1.75-11.28-.94-16.48.5-15.52,4.31-30.75,10.2-46.93,9.95-4.99,9.39-9.8,25-9.75,31.47,13.5,6.87,27.69,11.59,42.08,15.8,6.35,1.86,12.66,2.53,19.17,2.47,3.98-.03,7.17-1.71,10.32-3.99,1.97-1.43,2.86-3.06,2.78-5.73-.48-16.77-.81-33.55-1.2-50.48h0Z"/>
    <path class="st2" d="M531.82,242.23c-5.5-2.21-11.42-2.49-17.22-2.51-13.74-.04-27.5.06-41.22.69-15.89.74-31.64,2.97-47.15,6.57-3.89.9-8.02,1.65-11.78,5.05,1.86.79,3.15,1.67,4.54,1.87,5.04.75,10.09,1.66,15.16,1.83,21.23.68,42.42-.26,63.46-3.19,9.88-1.38,19.62-3.76,29.4-5.83,2.2-.47,4.85-.89,4.81-4.48h0Z"/>
    <path class="st1" d="M325,584.47c13.81.16,26.28-4.35,37.99-10.21,9.46-4.74,17.99-11.38,22.45-21.72,2.01-4.65,3.9-9.36,5.95-14,.79-1.77,1.79-3.47,2.83-5.11,2.65-4.14,5.36-8.24,8.08-12.34,2.59-3.92,4.84-8.14,7.89-11.67,5.78-6.69,11.84-13.16,18.14-19.36,5.3-5.21,11.11-9.91,16.8-14.93-.86-1.11-1.73-2.24-3.31-4.29,2.15.67,3.2,1.03,4.26,1.31,7.38,1.97,14.69,4.34,22.18,5.74,5.55,1.04,11.47,1.12,16.71-1.6,3.81-1.97,7.3-4.61,10.78-7.16,10.07-7.38,16.87-17.61,22.92-28.16,2.92-5.1,5.64-11.1,4.07-17.43-2.3-9.3-3.66-18.92-8.51-27.44-2.03-3.57-4.04-7.16-6.01-10.77-2.82-5.16-2.26-10.18.78-15.05.94-1.5,1.92-2.97,2.85-4.47,2.8-4.51,2.95-9.27,1.11-14.12-2.09-5.51-4.37-10.94-6.39-16.47-1.24-3.39-3.26-4.64-7.01-4.72-14.85-.33-29.44,1.2-43.71,5.32-10.76,3.1-21.61,3.93-32.68,2.11-2.87-.47-5.83-.45-9-.68-1.41,6.08-5.85,9.81-10.03,13.56-10.56,9.47-20.3,19.67-29.57,30.42-15.37,17.84-28.42,36.98-37.68,58.79-6.29,14.8-13.61,29.15-22.79,42.54-6.72,9.79-15.54,16.65-26.01,21.42-5.46,2.49-11.61,3.46-17.41,5.23-5.35,1.64-6.55,3.56-6.56,10.33,7.2-.05,13.12-5.03,20.25-5.25-6.68,3.33-13.53,6.14-20.45,8.72-9.87,3.68-10.02,4.04-3.76,12.59.2.27.68.32,1.38.63,10.9-2.42,21.19-7.07,31.22-12.58-2.02,1.9-3.98,4.09-6.43,5.22-6.57,3.04-13.31,5.73-20.07,8.34-3.65,1.41-7.51,2.28-11.21,3.58-3.94,1.38-4.48,2.7-4.33,7.07.15,4.36,2.83,6.6,6.05,8.49,12.23-3.93,23.97-8.52,34.55-15.75-5.14,6.6-12.21,10.21-19.6,13.3-3.98,1.66-8.06,3.07-12.06,4.67-3.5,1.4-6.47,3.44-8.34,7.15,1.82,1.68,3.36,3.1,4.29,3.96,3.56-.66,6.4-1.74,9.17-1.6,6.1.32,11.64-1.25,17.09-3.65,9.04-3.98,17.64-8.65,25.15-15.16.9-.78,2.07-1.23,3.6-2.11-.33,1.15-.36,1.57-.57,1.89-.31.49-.73.91-1.12,1.34-6.23,6.79-13.85,11.55-22.2,15.24-6.46,2.86-12.83,5.95-20.14,6.09-6.44.12-7.62,1.07-9.67,7.26-.43,1.3-.61,2.68-.98,4-1.29,4.68.15,8.53,3.77,11.52,2.72,2.25,5.54,4.43,8.53,6.3,7.28,4.58,15.41,8.21,23.87,7.06,10.67-1.46,21.04-4.91,28.81-13.42,2.21-2.42,5.06-4.26,7.7-6.26.83-.63,1.9-.94,2.87-1.4-.35-.35-.7-.69-1.04-1.04-1.82-.43-3.64-.85-5.46-1.28h.01Z"/>
  </g>
</svg>