<?xml version="1.0" encoding="UTF-8"?><svg id="Layer_3" xmlns="http://www.w3.org/2000/svg" width="870.48" height="780.26" viewBox="0 0 870.48 780.26"><defs><style>.cls-1{fill:#282a32;}.cls-2{fill:#9bce29;}.cls-3{fill:#f8e852;}.cls-4{fill:#ada8cb;}.cls-5{fill:#e0faf8;}</style></defs><path class="cls-4" d="M701.26,47.98c16.87,16.59,24.91,43.79,28.95,66.57,7.99,45,5.67,92.95,6.53,138.58l-57.36-.05-43.29,3.18-43.41,1c-41.18,2.63-82.05,7.29-122.58,14.77-31.07,5.73-61.6,14.03-92.75,19.3l-.04-114.16c2.16-51.32,14.68-113.02,62.72-140.72C503.78-.28,645.83-6.53,701.26,47.98ZM473.41,95.13c-.95-.92-.86-9.22-8.34-3.68-6.86,5.08-12.17,38.23-9.79,46.06s11.08,3.85,13.48-2.1c3.61,5.78,9.35,6.87,14.93,2.52,1.69-1.32,1.5-3.33,3.13-3.56-.39,4.43-.67,10.19,5.53,8.11,4.71-1.58,11.16-32.71,2.73-36.49-5.13-2.3-8.87.17-12.37,3.59-.74-5.14,2.77-15.06-4.72-15.46-1.38-.07-4.25,1.32-4.57,1.01ZM526.82,110.85c-11.49,2.38-17.03,20.2-6.44,27.65,12.9,9.07,29.77-6.31,22.07-20.01-.36-.64-5.66-7.11-6.06-7.36-1.72-1.05-7.42-.73-9.57-.28ZM574.59,146.76c2.14,11.55,13.96,17.27,18.81,3.82,2.22-6.14,3.78-36.42-2.26-39.47-7.21-3.63-8.65,6.91-9.32,11.89-2.95-2.66-5.36-4.15-9.59-2.88-5.25,1.58-14.91,26.99-15.75,32.78-.66,4.55-2.47,14.64,4.19,14.61,8.25-.03,11.55-22.56,13.92-20.75ZM701.37,128.36c-4.05.36-16.64,8.06-17.24,12.78-.74,23.79,1.46,47.45,1.02,71.24-.17,8.93-6.31,27.42,8.48,25,27.5-4.49,22.51-67.24,19.03-86.69-1.1-6.14-3.12-23.05-11.29-22.33ZM634.5,180.82c-1.58-1.78,6.71-8.3,1.09-15.02-6.99-8.35-24.45-1.75-27.47,7.76-1.84,5.8,1.77,5.75,3.87,9.65,2.43,4.51,9.07,23.39,12.43,24.81,10.62,4.49,10-6.69,8.03-13.77,27.75,9.13,25.42-8.95,2.05-13.44ZM543.65,195.36c9.38-1.67,19.49-13.19,3.54-13.53-4.66-.1-29.34,5.29-31.94,8.32-8.03,9.37,8.76,10.08,14.84,9.38,1.96,5.63,1.86,25.76,8.94,26.77,11.39,1.63,6.62-24.9,4.62-30.95ZM599.29,201.58c-2.7-3.85-23.2-1.8-27.28,1.95-.88,7.04-1.06,30.4,5.3,33.98,8.19,4.61,35.96-9.07,17.96-13.31,8.35-6.22,7.65-11.26-3.1-12.39,1.3-2.71,9.84-6.36,7.13-10.22ZM507.2,210.01c-6.96-7.43-25.66,2.01-24.33,12.37,1.15,8.92,14.86,10.85,15.3,12.69.81,3.31-14.66,5.88-10.43,11.39,7,9.12,34.33,2.16,32.08-13.39-1.17-8.11-13.8-8.3-14.4-10.46-.66-2.36,6.19-7.89,1.78-12.59Z"/><path class="cls-4" d="M368.96,294.29l-52.51,16.66-2.12-32.49c.03-52.19,3.57-111.06,31.63-156.41,11.08-17.91,26.34-32.45,41.73-46.56-3.4,8.65-7.99,16.76-11.09,25.56-12.48,35.55-12.16,74.12-11.58,111.22.43,27.44,1.06,54.73,3.95,82Z"/><path class="cls-1" d="M701.37,128.36c8.17-.72,10.19,16.2,11.29,22.33,3.48,19.45,8.48,82.2-19.03,86.69-14.79,2.41-8.65-16.07-8.48-25,.45-23.79-1.76-47.45-1.02-71.24.59-4.72,13.19-12.42,17.24-12.78ZM702.61,134.4c-6.6-.7-10.26,5.03-11.22,10.89-.29,20.62,1.93,41.27.98,61.91-.4,8.81-3.54,18.04-2.1,27.33,13.81-1.28,18.69-22.03,19.6-33.58,1.74-22.03-.78-45.53-7.26-66.55Z"/><path class="cls-1" d="M473.41,95.13c.32.32,3.19-1.08,4.57-1.01,7.49.4,3.98,10.32,4.72,15.46,3.5-3.42,7.24-5.89,12.37-3.59,8.43,3.78,1.98,34.91-2.73,36.49-6.19,2.08-5.91-3.68-5.53-8.11-1.64.24-1.44,2.24-3.13,3.56-5.58,4.36-11.32,3.26-14.93-2.52-2.39,5.95-11.15,9.75-13.48,2.1s2.94-40.98,9.79-46.06c7.48-5.54,7.39,2.76,8.34,3.68ZM467.21,104.41l1.02-10.32c-2.15.62-2.27,3.18-2.78,4.95-3.21,11.08-4.2,24.86-4.43,36.35,1.62-.48,2.59-4.12,3.13-5.64,1.73-4.9,2.84-13.94,4.89-17.83,1.84-3.49,3.28-2.22,6.4-1.25-.74,5.86-4.32,19.97-.47,24.7,4.25,5.22,10.35-11.33,12.9-12.93,2.11-1.32,4.11.43,6.18.55.35-9.28,1.11-22-8.28-8.8-3.19,4.48-4.03,11.65-10.3,9.83l3.09-26.84c-1.94-2.19-7.91,10.64-11.35,7.22Z"/><path class="cls-1" d="M574.59,146.76c-2.37-1.81-5.68,20.73-13.92,20.75-6.66.02-4.85-10.07-4.19-14.61.84-5.79,10.5-31.2,15.75-32.78,4.23-1.27,6.64.22,9.59,2.88.67-4.98,2.12-15.53,9.32-11.89,6.05,3.05,4.48,33.33,2.26,39.47-4.85,13.44-16.67,7.72-18.81-3.82ZM590.09,117.84c-2.93-.48-1.73.6-2.2,2.38-.84,3.15-1.35,15.37-3.57,16.12-5.67,1.91-5.14-7.43-7.38-11-.66-1.06.05-1.81-2.31-1.31-2.53,5.92-4.82,12.01-7.4,17.92-1.28,2.94-3.91,5.53-4.74,7.66-1.51,3.87-1.29,9.53-1.3,13.66,5.15-2.21,7.44-28.9,16.25-20.38,1.47,1.42,4.93,11.7,5.48,12.07,4.96,3.39,7.92-11.97,8.19-14.94.68-7.42-.53-14.84-1.02-22.18Z"/><path class="cls-1" d="M634.5,180.82c23.37,4.48,25.7,22.57-2.05,13.44,1.97,7.08,2.59,18.26-8.03,13.77-3.36-1.42-10-20.3-12.43-24.81-2.1-3.9-5.71-3.85-3.87-9.65,3.02-9.51,20.48-16.11,27.47-7.76,5.63,6.72-2.66,13.24-1.09,15.02ZM626.24,177.73c2.75-.99,3.59-2.4,4.07-5.76,2.27-15.82-18.18.56-17.38,5.09.21,1.17,4.79,5.13,5.22,7.21l10.14,20.31c1.29-6.69-3.77-11.02-6.18-16.51,2.5-2.19,19.39,7.49,24.12,6.11s-2.79-6.88-5.15-8.05c-2.75-1.36-14.27-3.79-14.71-4.42-.54-.76-.03-2.83-.14-3.97-13.31,4.8-7.6-8.11-1.67-6.12,2.42.81,1.49,4.25,1.67,6.12Z"/><path class="cls-1" d="M543.65,195.36c2.01,6.04,6.77,32.58-4.62,30.95-7.09-1.02-6.98-21.14-8.94-26.77-6.08.7-22.87-.01-14.84-9.38,2.59-3.03,27.28-8.42,31.94-8.32,15.95.34,5.84,11.85-3.54,13.53ZM549.81,184.97c-1.1-.95-26.17,4.72-28.3,6.28-1.43,1.05-2.51,4.17-1.65,5.06,1.6,1.65,12.36-3.43,15.57.44s2.11,19.89,4.06,25.37c1.51.18,1.85-2.7,1.96-3.7.96-8.72-1.46-16.2-3.09-24.56.15-.74,12.28-4.33,11.44-8.9Z"/><path class="cls-1" d="M507.2,210.01c4.41,4.7-2.44,10.23-1.78,12.59.6,2.16,13.23,2.35,14.4,10.46,2.25,15.55-25.07,22.51-32.08,13.39-4.23-5.51,11.23-8.08,10.43-11.39-.45-1.84-14.16-3.76-15.3-12.69-1.33-10.36,17.37-19.79,24.33-12.37ZM498.27,225.16c-2.31-3.33,5.51-7.22,5.13-11.78-.65-7.77-18.22,2.56-13.97,11.84,2.56,5.59,17.82,6.14,13.7,13.25-1.25,2.16-15.39,5.05-7.59,8.56,7.83,3.52,23.36-7.67,17.55-16.56-2.86-4.38-13.68-3.66-14.82-5.3Z"/><path class="cls-1" d="M599.29,201.58c2.71,3.87-5.83,7.51-7.13,10.22,10.74,1.13,11.45,6.17,3.1,12.39,18,4.25-9.77,17.92-17.96,13.31-6.36-3.58-6.18-26.93-5.3-33.98,4.08-3.75,24.58-5.81,27.28-1.95ZM593.19,202.53l-16.38,3.23c-.87,1.34,2.79,28.77,4.11,29.69,2.29,1.6,16.08-5.24,16.4-6.6,1.15-4.82-13.08-2.16-14.45-3.62-1.66-1.76.37-1.73,1.51-2.07,4.33-1.28,12.32-2.27,10.84-8.19l-14.41-2.13c-.43-2.33.11-1.64,1.31-2.29,3.5-1.9,10.38-2.94,11.07-8.01Z"/><path class="cls-1" d="M526.82,110.85c2.15-.45,7.85-.76,9.57.28.41.25,5.7,6.72,6.06,7.36,7.69,13.7-9.18,29.08-22.07,20.01-10.6-7.45-5.06-25.27,6.44-27.65ZM530.72,113.02c-4.09,0-9.27,8.9-9.72,12.66-2.64,21.9,24.1,11.87,16.69-6.54-.7-1.74-5.14-6.11-6.96-6.11Z"/><path class="cls-3" d="M702.61,134.4c6.47,21.02,9,44.52,7.26,66.55-.91,11.55-5.79,32.3-19.6,33.58-1.44-9.29,1.7-18.52,2.1-27.33.95-20.64-1.27-41.29-.98-61.91.96-5.87,4.63-11.59,11.22-10.89Z"/><path class="cls-4" d="M467.21,104.41c3.44,3.42,9.41-9.41,11.35-7.22l-3.09,26.84c6.26,1.82,7.1-5.35,10.3-9.83,9.4-13.2,8.64-.48,8.28,8.8-2.07-.12-4.07-1.87-6.18-.55-2.55,1.6-8.66,18.14-12.9,12.93-3.85-4.73-.27-18.85.47-24.7-3.12-.97-4.56-2.24-6.4,1.25-2.05,3.88-3.16,12.93-4.89,17.83-.54,1.52-1.5,5.16-3.13,5.64.23-11.49,1.21-25.26,4.43-36.35.51-1.77.63-4.34,2.78-4.95l-1.02,10.32Z"/><path class="cls-2" d="M590.09,117.84c.49,7.35,1.71,14.76,1.02,22.18-.27,2.97-3.23,18.33-8.19,14.94-.55-.37-4-10.65-5.48-12.07-8.81-8.52-11.1,18.17-16.25,20.38.01-4.14-.21-9.8,1.3-13.66.83-2.12,3.46-4.72,4.74-7.66,2.57-5.91,4.87-11.99,7.4-17.92,2.36-.5,1.65.26,2.31,1.31,2.24,3.57,1.72,12.9,7.38,11,2.22-.75,2.73-12.97,3.57-16.12.48-1.78-.73-2.87,2.2-2.38Z"/><path class="cls-4" d="M626.24,177.73c.11,1.14-.4,3.21.14,3.97.44.63,11.96,3.05,14.71,4.42,2.36,1.17,10.09,6.61,5.15,8.05s-21.62-8.29-24.12-6.11c2.42,5.49,7.47,9.83,6.18,16.51l-10.14-20.31c-.43-2.08-5.01-6.04-5.22-7.21-.8-4.53,19.65-20.91,17.38-5.09-.48,3.35-1.32,4.76-4.07,5.76-.18-1.88.75-5.32-1.67-6.12-5.93-1.98-11.64,10.93,1.67,6.12Z"/><path class="cls-4" d="M549.81,184.97c.84,4.57-11.29,8.16-11.44,8.9,1.63,8.36,4.05,15.84,3.09,24.56-.11,1-.45,3.88-1.96,3.7-1.95-5.48-.84-21.49-4.06-25.37s-13.97,1.21-15.57-.44c-.87-.89.22-4.01,1.65-5.06,2.13-1.57,27.2-7.23,28.3-6.28Z"/><path class="cls-2" d="M498.27,225.16c1.14,1.64,11.96.92,14.82,5.3,5.81,8.9-9.73,20.09-17.55,16.56-7.8-3.51,6.34-6.4,7.59-8.56,4.12-7.1-11.15-7.65-13.7-13.25-4.24-9.29,13.33-19.61,13.97-11.84.38,4.56-7.44,8.46-5.13,11.78Z"/><path class="cls-3" d="M593.19,202.53c-.69,5.08-7.57,6.12-11.07,8.01-1.2.65-1.74-.04-1.31,2.29l14.41,2.13c1.48,5.92-6.51,6.92-10.84,8.19-1.14.34-3.17.31-1.51,2.07,1.37,1.46,15.6-1.2,14.45,3.62-.33,1.37-14.11,8.21-16.4,6.6-1.32-.92-4.98-28.35-4.11-29.69l16.38-3.23Z"/><path class="cls-3" d="M530.72,113.02c1.83,0,6.27,4.38,6.96,6.11,7.41,18.41-19.33,28.45-16.69,6.54.45-3.76,5.63-12.66,9.72-12.66ZM531.23,123c-.98-.22-1.73-2.07-4.15-.56-8.32,9.46,9.16,15.41,9.26,6.17.05-4.1-1.24-4.3-4.08-5.61-.25-.11-.68.08-1.03,0Z"/><path class="cls-1" d="M483.72,738.48c-.24,21.5-9.26,41.36-34.29,34.81-15.58-4.07-22.98-17.57-28.44-31.46-1.09-2.76-4.95-16.99-5.66-17.58-.32-.26-7.65-2.53-7.99-2.29-.35.26-1.82,5.43-4.13,7.77-9.09,9.22-23.57,7-31.56-2.59-10.23-12.28-9.32-29.19-18.04-41.86-2.11-3.07-5.92-4.4-8.12-7.37-8.57-11.61-14.44-55.59-16.53-71.25-10.37-77.78-13.77-159.13-17.75-237.33-4.14-81.56-18.74-200.73,38.28-267.48,16.82-19.69,62.19-59.57,84.63-71.3,68.61-35.86,196.07-40.22,262.24,2.17,58.86,37.71,47.4,106.29,50.7,167.2,3.39,62.57,9.31,125.12,7.26,188-1.38,42.38-6.84,84.78-10.36,126.99-4.39,52.67-4.77,106.13-19.36,157.23-1.28,4.48-5.85,13.26-6.27,16.49-.35,2.68,1.94,5.52,1.9,9-.18,17.3-13.79,55.55-33.68,58.31-17.51,2.42-27.74-9.07-30.27-25.32-.42-2.72,1.01-9.86-1.78-10.67-1.56-.45-26.72,7.64-31.36,8.72-45.8,10.66-92.54,12.99-139.43,9.79ZM701.26,47.98C645.83-6.53,503.78-.28,440.04,36.46c-48.04,27.69-60.56,89.39-62.72,140.72l.04,114.16c31.15-5.27,61.68-13.57,92.75-19.3,40.53-7.48,81.4-12.14,122.58-14.77l43.41-1,43.29-3.18,57.36.05c-.86-45.63,1.46-93.58-6.53-138.58-4.04-22.78-12.08-49.99-28.95-66.57ZM368.96,294.29c-2.88-27.27-3.52-54.56-3.95-82-.58-37.11-.9-75.68,11.58-111.22,3.09-8.81,7.69-16.92,11.09-25.56-15.39,14.11-30.64,28.64-41.73,46.56-28.06,45.34-31.6,104.22-31.63,156.41l2.12,32.49,52.51-16.66ZM742.87,263.51c-3.34.03-5.22-1.83-8.64-2.2-16.32-1.77-38.17.54-54.76,1.15-80.73,2.98-161.98,12.3-241.52,25.95-9.55,1.64-53.27,8.81-57.93,14.4-.49.59-.3,2.13-.87,2.7-.68.66-2.71.34-3.37,1.25-.94,1.29-.6,19-.51,22.32,2.46,99.56,12.69,212.52,31.52,310.31,1.1,5.7,8.15,43.22,9.8,44.93,3.66,3.76,22.69,2.19,28.47,2.51,43,2.41,83.96,3.37,126.97-1,49.32-5.01,100.77-13.23,146.66-32,4.5-15.95,6.83-32.61,8.76-49.07,7.21-61.25,12.02-128.41,14.43-190.05.11-2.77,1.3-5.36,1.12-8.17l-.11-143.02ZM371.16,304.76c-11.68,3.49-23.5,7.01-35.06,10.88-6.61,2.21-11.54,7.23-18.63,4.61l8.27,133.72c7.17,59.96,7.8,122.1,17.72,181.59.82,4.94,2.7,19.35,5.11,22.77,2.25,3.2,30.58,15.52,36.06,17.64,7.81,3.04,15.6,5.66,23.71,7.78-12.33-49.77-20.38-100.48-26.72-151.41-8.01-64.45-17.66-143.05-13.59-207.49.42-6.6,2.16-13.55,3.14-20.09ZM716.08,663.11c-35.1,14.09-72.78,20.24-110.15,25.64-52.45,7.58-103.17,7.83-155.72,6.33-10.32-.29-20.28-.5-30.51-2.02-.05,1.17-.06,2.34.09,3.51.32,2.5,8.44,24.47,9.77,26.38,1.17,1.69,2.64,2.21,4.53,2.7,90.12,14.32,188.67,8.57,270.13-34.58,3.39-2.83,13.66-25.96,11.86-27.96ZM420.73,719.89c-5.55-8.99-5.82-20.19-10.36-29.39-10.14-2.62-20.42-5.26-30.19-9.05-8.08-3.13-15.67-7.42-23.48-11.11,9.97,13.93,24.06,24.99,38.3,34.5l25.73,15.05ZM401.07,717.88c-.34-.5-9.01-3.92-10.98-5.04-6.83-3.89-13.35-8.33-19.95-12.57,1.32,6.89,9.21,27.83,15.51,30.5,4.17,1.76,17.29-10.16,15.42-12.89ZM674.95,712.85l-3.24,30.2c7.25,18.19,20.97-.77,25.96-10.07,5.01-9.33,7.43-20.28,9.11-30.64-9.29,8.37-20.89,7.05-31.83,10.51ZM670.64,714.74l-8.33,2.69,5.25,18.98,3.08-21.67ZM473.41,736.42l-46.47-8.25c3.88,10.21,7.96,22.64,14.63,31.31,18.75,24.4,32.72-3.67,31.84-23.06Z"/><path class="cls-4" d="M742.87,263.51l.11,143.02c.18,2.81-1.02,5.4-1.12,8.17-2.4,61.63-7.22,128.8-14.43,190.05-1.94,16.46-4.26,33.11-8.76,49.07-45.88,18.77-97.34,26.99-146.66,32-43.01,4.37-83.97,3.41-126.97,1-5.78-.32-24.81,1.25-28.47-2.51-1.66-1.7-8.71-39.23-9.8-44.93-18.82-97.79-29.05-210.75-31.52-310.31-.08-3.32-.43-21.03.51-22.32.66-.91,2.7-.59,3.37-1.25.58-.56.38-2.1.87-2.7,4.67-5.59,48.38-12.76,57.93-14.4,79.54-13.64,160.79-22.97,241.52-25.95,16.59-.61,38.45-2.92,54.76-1.15,3.41.37,5.3,2.23,8.64,2.2ZM713.85,517.32c.87-.54,6.64-17.04,7.14-19.18,11.36-48.36,6.18-97.73,3.36-146.4-.87-15.01.56-30.13-1.33-45.14-2.2-17.53-14.72-19.71-28.78-11.8-2.27,1.28-12.42,9.14-13.87,10.91-3.25,3.97-.08,7.74.47,12.08,4.59,36.13,7.36,78.1,8.43,114.46.85,29.11-1.18,57.87-4.15,86.75,4.58,9.87,14.54-.24,19.3-1.3,2.61-.58,8.16.39,9.43-.39ZM531.24,387.37c-.63-19.16-32.77-10.64-35.94,1.78-.42,1.63.19,4.46-.35,5.31-.6.98-18.28,4.81-22.09,6.31-4.01,1.58-7.66,3.85-11.68,5.35-1.63,2.6,2.53,37.55,2.92,43.74,1.17,18.55,2.39,37.26,3.15,55.71.37,9.04-.86,19.08-.03,27.92,1.14,12.09,10.86,4.24,18.35,1.86,23.79-7.57,59.76-15.22,81.05-25.32,1.35-.64,3.13-.79,3.71-2.52l-17.48-116.46c-1.91-8.81-15.25-6.29-21.61-3.67ZM671.41,589.51c1.96-1.82,3.46-12.65,3.45-15.73,0-2.4-1.13-4.71-1.16-7.19-.11-7.44.54-28.75-2.57-34.61-2.38-4.49-12.77-3.75-17.01-4.68-4.88-4.94-13.68-19.15-19.05-22.25-8.38-4.85-11.76,6.72-9.94,12.9.33,1.11,2.28.2,2.91.76s1.01,4.74,2.32,6c-15.83-4.52-23.38-10.86-25.8,9.84-1.14,9.77-1.82,23.07-2.12,32.99-.13,4.09-.66,18.46.58,21.2.6,1.34,3.18,3.1,4.61,3.65,8.35,3.21,38.89,1.58,49.06.49,3.16-.34,12.78-1.55,14.72-3.35Z"/><path class="cls-4" d="M371.16,304.76c-.98,6.54-2.72,13.49-3.14,20.09-4.07,64.44,5.58,143.04,13.59,207.49,6.33,50.93,14.38,101.65,26.72,151.41-8.11-2.11-15.9-4.74-23.71-7.78-5.47-2.13-33.8-14.45-36.06-17.64-2.41-3.42-4.29-17.82-5.11-22.77-9.92-59.5-10.55-121.64-17.72-181.59l-8.27-133.72c7.08,2.62,12.02-2.4,18.63-4.61,11.57-3.87,23.38-7.39,35.06-10.88Z"/><path class="cls-4" d="M716.08,663.11c1.8,2-8.47,25.13-11.86,27.96-81.46,43.15-180,48.9-270.13,34.58-1.89-.49-3.36-1.02-4.53-2.7-1.33-1.92-9.46-23.88-9.77-26.38-.15-1.17-.15-2.35-.09-3.51,10.23,1.52,20.18,1.73,30.51,2.02,52.55,1.5,103.27,1.26,155.72-6.33,37.37-5.4,75.05-11.56,110.15-25.64Z"/><path class="cls-4" d="M473.41,736.42c.87,19.39-13.09,47.46-31.84,23.06-6.67-8.68-10.75-21.1-14.63-31.31l46.47,8.25Z"/><path class="cls-4" d="M674.95,712.85c10.93-3.46,22.54-2.13,31.83-10.51-1.68,10.36-4.1,21.31-9.11,30.64-4.99,9.3-18.71,28.26-25.96,10.07l3.24-30.2Z"/><path class="cls-4" d="M420.73,719.89l-25.73-15.05c-14.24-9.51-28.33-20.56-38.3-34.5,7.81,3.69,15.39,7.97,23.48,11.11,9.77,3.79,20.05,6.43,30.19,9.05,4.54,9.2,4.81,20.4,10.36,29.39Z"/><path class="cls-4" d="M401.07,717.88c1.87,2.73-11.25,14.66-15.42,12.89-6.3-2.66-14.19-23.61-15.51-30.5,6.6,4.23,13.12,8.68,19.95,12.57,1.96,1.12,10.64,4.54,10.98,5.04Z"/><polygon class="cls-4" points="670.64 714.74 667.56 736.41 662.31 717.43 670.64 714.74"/><path class="cls-1" d="M713.85,517.32c-1.27.78-6.81-.19-9.43.39-4.75,1.05-14.72,11.17-19.3,1.3,2.97-28.88,5-57.65,4.15-86.75-1.06-36.37-3.84-78.33-8.43-114.46-.55-4.35-3.72-8.11-.47-12.08,1.45-1.77,11.6-9.63,13.87-10.91,14.06-7.91,26.57-5.73,28.78,11.8,1.89,15.01.46,30.13,1.33,45.14,2.82,48.67,8,98.04-3.36,146.4-.5,2.15-6.27,18.65-7.14,19.18ZM703.39,295.68c-2.75.63-14.9,10.29-15.22,12.75,2.18,18.51,4.73,37.13,6.22,55.71,1.39,17.35,2.73,35.33,3.15,52.62.76,31.15-3.49,61.92-4.23,92.95-.04,1.52-.21,3.71.22,5.04,1.68,5.17,12.79-3.16,14.04-7.33,3.7-12.26,7.23-36.23,8.51-49.32,4.49-45.78,2.69-95.69-1.02-141.48-.78-9.7,3.88-24.49-11.67-20.94Z"/><path class="cls-3" d="M703.39,295.68c15.55-3.55,10.89,11.24,11.67,20.94,3.7,45.8,5.51,95.71,1.02,141.48-1.28,13.09-4.82,37.06-8.51,49.32-1.26,4.17-12.36,12.49-14.04,7.33-.43-1.33-.26-3.53-.22-5.04.75-31.03,4.99-61.8,4.23-92.95-.42-17.29-1.75-35.26-3.15-52.62-1.49-18.58-4.04-37.2-6.22-55.71.31-2.45,12.46-12.12,15.22-12.75Z"/><path class="cls-1" d="M671.41,589.51c-1.94,1.8-11.56,3.01-14.72,3.35-10.16,1.1-40.71,2.72-49.06-.49-1.43-.55-4.01-2.31-4.61-3.65-1.23-2.73-.7-17.1-.58-21.2.3-9.91.98-23.22,2.12-32.99,2.42-20.69,9.97-14.36,25.8-9.84-1.32-1.26-1.69-5.44-2.32-6s-2.58.35-2.91-.76c-1.82-6.18,1.56-17.75,9.94-12.9,5.37,3.11,14.17,17.31,19.05,22.25,4.23.93,14.62.19,17.01,4.68,3.11,5.86,2.46,27.16,2.57,34.61.04,2.48,1.15,4.79,1.16,7.19.01,3.08-1.49,13.91-3.45,15.73ZM631.41,510.27c-.24,1.79.12,3.23.8,4.87.85,2.04,11.89,20.58,13.15,21.99,2,2.26,5.73-.37,5.75-3.6.04-4.29-12.35-18.13-16.09-21.2-1.17-.96-1.66-2.51-3.61-2.06ZM667.55,563.96c-.58-10.27-1.72-20.63-3.27-30.8-8.71-3.13-5.61-1.04-7.6,2.86-.44.86-7.93,7.39-8.77,7.78-8.98,4.18-11.42-9.91-15.12-15.04l-17.38-4.06-4.65,55.78c6.04-5.76,13.14-10.38,21.68-11.37l-7.74-17.54c-4.32,4.01-2.94,12.23-4.89,16.8-2.01,4.7-3.61.22-3.9-2.85-2.35-24.91,16.09-23.72,21.7-3.63,5.51-9.23,17.95-11.62,17.55,2.07,4-1.69,5.73-.74,9.29,0,4.8,4.04-.13,8.65.05,11.92s4.27,5.71,3.99-.93c-.14-3.31-.74-7.31-.95-10.98ZM647.92,560.86c-2.04-2.44-4.71,7.73-4.13,8.26,6.49-.85,11.79,3.1,17.55,5.16l-1.04-8.25c-2.71,1.67-6.42,2.99-9.63,1.89-3.24-1.11-2.34-6.56-2.76-7.06ZM611.79,589.77c6.79.18,13.34,1.16,20.18,1.09,6.41-.07,15.09-.64,21.63-1.09,12.27-.84,16.71-2.19,5.15-11.33-3-2.38-9.66-6.41-13.45-6.29-2.77.09-4.18,2.64-8.23,2.24-2.16-.21-3.58-1.95-4.96-1.94-5.36.04-20.98,10.44-20.32,17.32Z"/><path class="cls-5" d="M664.45,563.96c-3.55-.74-5.29-1.69-9.29,0,.4-13.68-12.04-11.29-17.55-2.07-5.62-20.09-24.05-21.28-21.7,3.63.29,3.07,1.89,7.56,3.9,2.85,1.95-4.57.57-12.79,4.89-16.8l7.74,17.54c-8.54.99-15.64,5.6-21.68,11.37l4.65-55.78,17.38,4.06c3.71,5.13,6.14,19.22,15.12,15.04.84-.39,8.33-6.93,8.77-7.78,1.99-3.89-1.11-5.99,7.6-2.86,1.55,10.17,2.69,20.52,3.27,30.8-.98-.13-2.2.19-3.1,0Z"/><path class="cls-4" d="M611.79,589.77c-.66-6.88,14.96-17.28,20.32-17.32,1.39-.01,2.8,1.73,4.96,1.94,4.05.4,5.46-2.15,8.23-2.24,3.78-.12,10.44,3.92,13.45,6.29,11.56,9.14,7.12,10.48-5.15,11.33-6.54.45-15.22,1.02-21.63,1.09-6.84.08-13.4-.91-20.18-1.09Z"/><path class="cls-5" d="M631.41,510.27c1.95-.45,2.45,1.1,3.61,2.06,3.74,3.07,16.13,16.91,16.09,21.2-.03,3.23-3.76,5.86-5.75,3.6-1.25-1.42-12.29-19.95-13.15-21.99-.69-1.64-1.04-3.08-.8-4.87Z"/><path class="cls-5" d="M647.92,560.86c.42.5-.48,5.96,2.76,7.06,3.21,1.1,6.91-.22,9.63-1.89l1.04,8.25c-5.76-2.06-11.06-6.02-17.55-5.16-.58-.53,2.09-10.7,4.13-8.26Z"/><path class="cls-4" d="M667.55,563.96c.21,3.67.81,7.67.95,10.98.28,6.65-3.82,4.1-3.99.93s4.75-7.88-.05-11.92c.9.19,2.12-.13,3.1,0Z"/><path class="cls-1" d="M531.24,387.37c6.36-2.62,19.7-5.14,21.61,3.67l17.48,116.46c-.57,1.73-2.36,1.88-3.71,2.52-21.29,10.1-57.26,17.75-81.05,25.32-7.5,2.38-17.22,10.24-18.35-1.86-.83-8.84.4-18.88.03-27.92-.76-18.46-1.98-37.16-3.15-55.71-.39-6.19-4.54-41.14-2.92-43.74,4.03-1.5,7.68-3.77,11.68-5.35s21.49-5.33,22.09-6.31c.53-.86-.07-3.69.35-5.31,3.17-12.42,35.31-20.94,35.94-1.78ZM516.55,380.32c-10.55.51-18.52,10.39-12.17,19.96,10.54,15.88,27.22-20.69,12.17-19.96ZM542.51,389.51l-11.33,1.43c-3.87,12.59-14.79,18.94-27.87,15.57-6.02-1.56-7.1-8.78-9.74-8.82-1.46-.02-18.39,6.81-20.88,8.09-1.43.73-3.73,1.26-4.3,2.93l6.03,126.33,88.81-27.89-20.74-117.65Z"/><path class="cls-5" d="M542.51,389.51l20.74,117.65-88.81,27.89-6.03-126.33c.57-1.67,2.86-2.19,4.3-2.93,2.49-1.27,19.42-8.11,20.88-8.09,2.64.04,3.71,7.26,9.74,8.82,13.08,3.38,23.99-2.97,27.87-15.57l11.33-1.43ZM531.23,425.58c-2.79-.14-7.8-.72-10.17-.37-2.75.41-6.94,3.68-8.81,3.29-2.18-.46-2.67-6.66-9.19-4.81-3.71,1.05-8.86,13.03-13.57,12.29-2.88-.45-3.94-16.7-9.89-13.5.18,21.13,15.64,21.26,25.3,5.19,5.91,8.67,12.38.8,17.68.28,4.98-.49,4.06,2.1,10.72-1.33,2.76-1.42,5.62-1.91,5.16-6.19l-7.22,5.16ZM536.39,459.67c-3.93-1.4-8.77-1.08-12.63-2.35s-5.03-4.12-9.55-3.93c-6.56.28-15.68,12.58-21.26,6.84-1.23-1.27-1.32-3.28-1.92-4.06-3.26-4.22-5.83,5.34.19,7.87,11.19,4.7,18.87-6.44,22.97-6.44,1.69,0,3.31,2.41,5.37,2.89,1.67.39,8.38,1.11,10.23,1.13,1.19.02,6.26-.39,6.6-1.95ZM527.1,481.36c-10.13,1.1-20.26.82-30.45,1.03-1.76.04-3.59,1.13-5.23,1.09-2.05-.04-7.64-4.61-5.62.45,1.38,3.44,9.97.57,12.86.48,8.61-.27,17.04.59,25.59-1.27,1-.22,3.1-.37,2.84-1.78ZM540.52,494.78c-8.57,2.14-18.94.93-27.12,2.31-6.43,1.08-12.23,5.79-20.92,6.97-1,.13-13.32-.78-9.8,2.08,6.54,1.38,12.31,1.2,18.82-.28,5.21-1.18,10.47-4.9,14.99-5.66,6.63-1.13,13.58.95,20.13-1.56,1.75-.67,4.27-1.23,3.89-3.85Z"/><path class="cls-2" d="M516.55,380.32c15.04-.73-1.63,35.84-12.17,19.96-6.35-9.57,1.62-19.44,12.17-19.96Z"/><path class="cls-1" d="M533.3,426.61c-6.66,3.42-5.74.84-10.72,1.33-5.3.52-11.77,8.39-17.68-.28-9.66,16.08-25.12,15.95-25.3-5.19,5.95-3.2,7.01,13.05,9.89,13.5,4.71.74,9.86-11.24,13.57-12.29,6.52-1.85,7.01,4.36,9.19,4.81,1.87.39,6.06-2.87,8.81-3.29,2.37-.36,7.39.22,10.17.37.87.04,1.79.04,2.07,1.03Z"/><path class="cls-1" d="M536.39,459.67c-.34,1.55-5.4,1.97-6.6,1.95-1.85-.03-8.56-.74-10.23-1.13-2.05-.48-3.67-2.88-5.37-2.89-4.11,0-11.78,11.14-22.97,6.44-6.02-2.53-3.45-12.09-.19-7.87.61.79.69,2.8,1.92,4.06,5.57,5.73,14.69-6.56,21.26-6.84,4.52-.2,5.86,2.71,9.55,3.93s8.69.95,12.63,2.35Z"/><path class="cls-1" d="M540.52,494.78c.38,2.62-2.14,3.18-3.89,3.85-6.55,2.51-13.5.43-20.13,1.56-4.52.77-9.78,4.48-14.99,5.66-6.51,1.48-12.29,1.66-18.82.28-3.52-2.86,8.8-1.94,9.8-2.08,8.69-1.17,14.49-5.89,20.92-6.97,8.17-1.37,18.55-.16,27.12-2.31Z"/><path class="cls-4" d="M527.1,481.36c.25,1.41-1.84,1.56-2.84,1.78-8.55,1.85-16.99,1-25.59,1.27-2.89.09-11.48,2.96-12.86-.48-2.03-5.05,3.56-.49,5.62-.45,1.64.04,3.47-1.05,5.23-1.09,10.18-.21,20.31.08,30.45-1.03Z"/><path class="cls-4" d="M531.23,425.58l7.22-5.16c.46,4.28-2.4,4.78-5.16,6.19-.27-.99-1.19-.99-2.07-1.03Z"/><path class="cls-1" d="M531.23,123l-.52,5.17,1.55-5.17c2.84,1.31,4.13,1.51,4.08,5.61-.11,9.24-17.58,3.29-9.26-6.17,2.42-1.51,3.17.34,4.15.56Z"/><path class="cls-2" d="M532.26,123l-1.55,5.17.52-5.17c.36.08.79-.11,1.03,0Z"/></svg>