<?xml version="1.0" encoding="UTF-8"?>
<svg id="Layer_2" xmlns="http://www.w3.org/2000/svg" version="1.1" xmlns:xlink="http://www.w3.org/1999/xlink" viewBox="0 0 756.99 756.99">
  <!-- Generator: Adobe Illustrator 29.5.1, SVG Export Plug-In . SVG Version: 2.1.0 Build 141)  -->
  <defs>
    <style>
      .st0 {
        fill: #8bebfb;
      }

      .st1 {
        stroke: #381b0f;
        stroke-miterlimit: 10;
        stroke-width: .75px;
      }

      .st1, .st2 {
        fill: #381b0f;
      }

      .st3 {
        fill: #58d8ed;
      }

      .st4 {
        filter: url(#drop-shadow-1);
      }

      .st5 {
        fill: #131515;
      }

      .st6 {
        fill: #f4e650;
      }

      .st7 {
        fill: #74e2f9;
      }

      .st8 {
        fill: #47ccef;
      }

      .st9 {
        fill: #e5eae8;
      }
    </style>
    <filter id="drop-shadow-1" x="258" y="24.99" width="331" height="733">
      <feOffset dx="5" dy="5"/>
      <feGaussianBlur result="blur" stdDeviation="6"/>
      <feFlood flood-color="#3b3b56" flood-opacity=".7"/>
      <feComposite in2="blur" operator="in"/>
      <feComposite in="SourceGraphic"/>
    </filter>
  </defs>
  <circle class="st6" cx="378.49" cy="378.49" r="378.49"/>
  <g class="st4">
    <path class="st2" d="M555.93,139.2c-1.12-.91-2.24-1.81-4.18-3.37-.46,9.42-.95,18.05-1.27,26.69-.33,8.72.03,17.5-.9,26.15-.58,5.34-3,10.48-4.61,15.7-.47,1.52-.98,3.02-1.57,4.83,3.66-.37,6.58-.62,9.49-.98,2.62-.32,4.01,1.13,4.46,3.37,1.7,8.55,3.43,17.1,4.78,25.71.75,4.8.76,9.71.41,14.76-2.32-4.42-4.62-8.85-6.98-13.25-2.01-3.77-4.66-6.76-8.73-8.62-2.07-.95-3.6-3.07-5.93-5.16-1.32,2.26-2.69,4.41-3.87,6.66-6.37,12.18-9.49,25.51-13.8,38.43-2.45,7.35-5.43,14.53-8.41,21.69-1,2.39-3.32,4.29-4.04,6.71-1.48,5.02-2.32,10.23-3.38,15.37-1.33,6.46-2.44,12.98-4.01,19.38-.43,1.74-2.18,3.16-3.97,5.59-1.17-2.3-1.98-3.5-2.41-4.83-1.14-3.59-2-7.28-3.2-10.85-.59-1.76-1.28-3.86-2.63-4.91-2.73-2.14-3.66-4.58-2.16-8.83-3.58.89-6.18,1.53-8.65,2.15-.45,2.37-.28,4.73-1.35,6.14-1,1.33-3.32,1.67-5.88,2.81v12.63c-6.06-1.73-4.17-9.93-10.19-10.86-.65,5.23-3.49,8.35-8.52,9.36,0,3.37.09,6.91-.02,10.43-.17,5.12-.31,10.25-.81,15.34-.22,2.19-1.03,4.45-2.1,6.39-1.06,1.92-2.17,1.44-3.33-1.27,3.48-.11,3.03-2.97,3.15-5,.45-7.56.63-15.14.92-22.72.06-1.66.18-3.32.28-5.1,2.47-.58,4.6-1.08,6.67-1.57v-8.58c-9.06,3.52-17.75,6.4-25.67,11.44,5.09,10.86,9.97,21.25,14.84,31.64-2.86-1.65-4.67-3.94-6.02-7.11-3.26-7.67-7.09-15.09-10.95-23.16-5.82,2.25-10.38,6.07-14.37,10.55-.86.97-.96,2.87-.94,4.33.14,12.15-.04,24.32.69,36.44,2.53,42.18,14.21,82.41,26.8,122.41,2.45,7.77,4.91,15.54,7.11,23.39,4.37,15.57.67,25.4-11.66,35.09-9.05,7.11-19.33,11.98-29.97,16.16-2.28.89-4.58,1.73-7.28,2.75.57,5.57.97,11.04,1.73,16.45,1.68,12,3.15,24.05,5.47,35.93,1.67,8.52,4.63,16.78,6.93,25.18.75,2.74,2.54,3.97,5.19,4.62,7.44,1.81,13.4,6.24,18.87,11.31,4.26,3.95,5.9,8.72,3.39,14.43-4.12,9.38-8.89,18.4-14.86,26.73-2.18,3.05-3.52,3.23-6.69,1.02-3.74-2.61-7.43-5.3-10.89-8.26-1.54-1.32-2.45-3.37-3.99-5.6-3.23.04-5.98,1.24-8.59,4.75-4.97,6.68-10.77,12.78-16.46,18.89-2.29,2.46-5.08,4.31-8.74,4.9-7.02,1.13-11.32-2.26-14.21-7.95-4.92-9.72-8.15-20.07-10.29-30.72-1.12-5.57,1.06-8.77,6.51-10.96,3.53-1.42,7.76-2.03,10.42-4.4,2.6-2.33,3.31-6.64,5.39-9.71,3.43-5.05,1.54-10.32,1.07-15.45-.81-8.85-2.28-17.64-3.22-26.48-1.26-11.87-2.29-23.76-3.47-36.23-2.6.31-4.79.7-7.01.82-14.61.84-29.28,1.84-43.63-1.95-5.07-1.34-10.08-3.51-14.62-6.16-6.34-3.71-9.01-10.82-12.86-16.63-1.85-2.79-1.64-7.36-1.38-11.06.7-10.21,1.82-20.39,2.95-30.56,2.59-23.17,5.43-46.32,7.88-69.5,1.56-14.7,3.04-29.43,3.76-44.19.77-15.93.83-31.91.78-47.86-.03-8.13-.98-16.25-1.52-24.37-.36-5.29-2.85-9.81-5.33-14.29-2.85-5.16-5.8-10.26-8.9-15.27-5.96-9.64-9.89-20.1-12.6-31.03-1.39-5.6-.36-11.31.75-16.82,2.45-12.18,7.75-23.4,12.47-34.79.8-1.93,1.54-3.93,2.64-5.68,4.27-6.74,3.72-13.99,2.93-21.47-1.12-10.56-2.34-21.18-2.34-31.77,0-7.65,1.93-15.31,3.03-23.23-.94-.58-3-1.18-3.8-2.53-.87-1.48-.9-3.68-.72-5.51.66-6.78,1.63-13.52,2.33-20.29.53-5.09.81-10.21,1.27-15.31.19-2.06.32-4.18.89-6.16,2-6.94,7.8-9.95,14.63-7.57,2.68.93,5.29,2.14,7.82,3.44,4.59,2.36,9.29,4.24,14.5,4.76,4.4.45,7.38,3,8.75,7.14,2.1,6.38,3.36,12.84,1.04,19.52-.43,1.25-.14,2.86.15,4.24.27,1.27.94,2.48,1.52,3.67,3.31,6.82,3.77,13.74,1.3,20.99-1.59,4.66-2.53,9.53-4,14.24-1.13,3.64-.8,7,.4,10.57,2.77,8.25,5.25,16.59,7.81,24.91,1.16,3.77,4.21,5.62,7.42,7.77,2.48-1.9,4.69-4.06,7.3-5.5,9.12-5.04,18.28-10.05,27.63-14.64,4.34-2.13,8.24-4.29,11.08-8.46,2.66-3.9,5.96-7.4,9.24-10.82,10.14-10.56,20.34-21.08,30.7-31.43,2.39-2.39,3.88-4.92,4.79-8.13,1.75-6.18,3.87-12.25,6.11-19.25-3.11-7.02-6.67-15.05-10.77-24.27-4.01,8.44-4.73,16.58-8.04,25.03-3.78-5.95-5.79-11.4-6.67-17.31-.6-4.07.1-7.74,2.2-11.47,2.02-3.59,2.97-7.77,4.56-11.63,2.53-6.12,4.96-12.31,7.9-18.23,1.86-3.75,4.31-7.3,9.74-6.01.92.22,2.39-1.37,3.43-2.32,2.09-1.89,3.83-4.25,6.13-5.81,2.75-1.86,4.37-1.35,6.12,1.44,1.82,2.89,3.55,5.85,4.97,8.95,2.11,4.62.23,8.47-3.26,11.89,3.7,9.39,7.34,18.64,11.1,28.18,2.56-1.83,1.96-3.87,1.98-5.63.07-5.32,2.51-9,7.31-11.18.69-.31,1.34-.75,2.05-.99,5.79-1.9,10.99-4.58,15.49-8.97,3.65-3.57,11.84-3.42,15.99-.66,2.44,1.63,3.11,4.06.98,6.16-1.61,1.59-1.84,3.19-1.83,5.07.03,9.66.08,19.31.16,28.97.01,1.63.18,3.26.36,6.12,1.39-1.72,1.99-2.52,2.64-3.27,2.38-2.74,4.78-5.11,8.88-5.42,1.96-.15,4.05-1.82,5.64-3.28,5.42-4.99,7.23-5.25,13.47-1.37,1.08.67,2.31,1.15,3.53,1.55,7.05,2.29,9.86,6.05,10.03,13.32.27,11.81-.66,23.53-2.45,35.18-.29,1.9-1.21,3.7-2.07,6.24-3.73-4.01-3.2-7.81-2.8-11.6.89,2.24,1.78,4.5,2.68,6.76,1.09-6.17,1.54-12.14,1.94-18.11.4-6.05.78-12.11,1.11-18.17.2-3.62-.76-6.91-3.9-8.96-3.42-2.23-7-4.26-10.66-6.06-4.53-2.22-5.86-2.09-8.54,2.19-2.67,4.25-5.68,6.52-10.53,4.78-1.47,1.3-2.78,2.34-3.94,3.53-2.43,2.48-2.51,4.81.36,6.57,4.12,2.53,6.52,5.96,8.27,10.41,2.17,5.53,6.17,6.27,10.79,2.32,1.66-1.41,2.76-3.49,3.81-4.86,3.58,1.26,3.95,3.1,4.06,5.36.12,2.4.58,4.81,1.15,7.14.48,1.97,1.34,3.85,2.03,5.77l.04.04h0ZM507.15,300.66c-3.26,1.48-6.41,3.32-9.8,4.37-4.73,1.47-6.53,4.63-6.75,9.55,6.65,4.5,6.51,12.5,9.19,19.67,4.6-5.83,5.21-12.42,6.16-18.89.68-4.67,1.36-9.34,2.04-14.01-.05-.48-.1-.96-.15-1.45-.23.25-.46.51-.69.76h0ZM388.94,710.39c-.65.85-1.31,1.71-1.96,2.56.73-4.96,2.48-9.42,5.8-13,1.01-1.09,2.87-1.76,4.42-1.91,6.3-.62,11.33,2.58,14.75,7.16,3.72,4.98,9.11,7.09,14.33,11.16,5.17-8.55,10.32-16.67,15.07-25.03,3.43-6.05-1.89-14.45-9.33-15.22-.08,0-.2.3-.3.46l.1.09c1.51-1.43-.03-1.88-.87-2.33-4.16-2.26-8.29-4.61-12.58-6.59-3.06-1.41-4.61-3.7-5.56-6.75-9.27-30.01-15.15-60.62-16.31-92.06-.19-5.21-.03-10.43-.03-15.89-12.78-.16-24.37,2.06-35.74,5.33,0,.85-.11,1.26.02,1.57,5.68,14.04,7.78,28.83,9.23,43.75,1.12,11.5,2.16,23.01,3.4,34.49.71,6.59,2.22,13.12,2.56,19.71.65,12.67-4.23,22.52-16.11,28.2-1.54.74-3.07,1.5-4.59,2.28-2.5,1.29-3.5,3.37-3,6.12,2.16,11.82,5.86,23.14,11.35,33.83.66,1.28,2.54,2.73,3.84,2.72,3.06-.04,6.45-.07,8.76-2.66,4.92-5.51,9.73-11.11,14.58-16.68,1.05-1.06,2.21-2.03,3.13-3.2,2.64-3.35,5.76-5.35,10.24-4.37.44.1.98-.27,2.01-.58-1.25-.84-2.05-1.53-2.97-1.99-5.28-2.62-7.56-2.02-10.86,2.95-1.25,1.88-2.27,3.91-3.4,5.86l.02.02h0ZM300.87,478.96c-.23.31-.25.63-.07.97-.81,6.39-1.79,12.77-2.38,19.18-1.6,17.19-3.07,34.39-4.53,51.59-.36,4.24-.45,8.51-.68,13.18,1-.44,1.58-.53,1.93-.86,7.67-7.31,16.75-12.36,26.31-16.7,17.23-7.82,35.36-12.61,53.92-15.79,12.94-2.22,25.99-3.2,39.16-2.46,8.51.48,16.8,2.04,25.03,4.15,1.99.93,3.97,1.85,6.91,3.23-.67-2.92-1.02-4.7-1.49-6.46-5.31-19.76-12.4-38.99-17.34-58.88-7.42-29.82-14.21-59.7-15.69-90.52.38-10.79.8-21.57,1.11-32.36.08-2.9.84-5.11,3.03-7.37,6.48-6.7,14.11-11.6,22.59-15.04,16.68-6.77,33.49-13.23,50.33-19.58,7.37-2.78,13.93-6.88,20.18-11.5,2.04-1.51,4.04-3.71,4.91-6.03,4.39-11.69,9.04-23.35,12.34-35.36,2.55-9.3,6.43-17.76,11.24-25.95.83-1.41,1.52-2.9,2.54-4.86-2.03-.76-3.61-1.92-5.08-1.79-4.65.4-6.48-2.01-6.79-6.13-10.71,1.87-16.63,8.17-18.49,19.41,2.4.5,4.8.99,7.2,1.49-2.1.76-4.2,1.51-6.29,2.27-2.98-1.29-4.16,1.26-5.5,2.86-6.26,7.48-10.95,15.84-13.67,25.63,1.99,2.17,4.11,4.48,6.2,6.76-4,.23-6.7-3.19-10.18-4.08-3.51-.9-7.46.05-11.21-.15-3.4-.18-6.76-.96-10.16-1.22-12.2-.92-24.19.79-36.21,2.73-16.52,2.66-31.85,8.91-47.49,14.38-7.51,2.63-12.16,7.28-14.87,14.4-.63-.09-1.25-.19-1.88-.28.79-1.5,1.6-2.98,2.36-4.49,3.1-6.19,7.95-10.66,14.32-13.03,12.39-4.61,24.86-9.03,37.42-13.13,11.46-3.74,23.23-5.34,35.37-4.2,8.98.85,17.9,2.77,27.03,1.95,1.99-.18,4.04.34,6.07.54,2.09-4.71,3.67-9.16,5.97-13.2,2.8-4.91,6.26-9.44,9.32-14.21,1.08-1.68,2.15-3.49,2.67-5.4,3.23-11.78,10.8-19.38,22.65-21.52,7.68-1.39,12.28-4.73,15.09-12,1.79-4.65,3.73-8.96,3.38-14.12-1.08-15.98.56-31.87,1.79-47.77.31-4.02.05-8.07.05-12.71-1.73,1.37-2.83,2.38-4.06,3.18-5.16,3.31-9.22,2.3-12.36-3.08-.86-1.47-1.45-3.12-2.38-4.54-1.54-2.33-3.27-4.55-6.81-4.72-.88,3.97-1.73,7.62-2.5,11.28-2.08,9.92-1.45,19.21,6.33,26.82.14.14-.04.62-.09,1.1-1.63-.89-3.19-1.75-5.44-2.98-1.85,11.42-3.52,22.21-5.37,32.97-.57,3.29.75,5.47,3.25,7.18,1.39.94,2.92,1.67,4.49,2.56-2.22-.33-4.39-.3-6.29-1.02-1.77-.68-3.24-2.15-4.79-3.23-4.59,3.65-9.04,7.47-13.77,10.88-9.08,6.54-18.35,12.81-27.47,19.29-1.46,1.04-2.53,2.61-3.64,3.8,3.62,4.83,6.95,9.17,10.15,13.6,3.11,4.29,6.73,8.32,8.27,14.9-9.62-11.79-18.46-22.61-26.79-32.83.47.09,1.86.83,2.65.42,5.34-2.8,11.25-4.39,15.99-8.55,4.4-3.85,9.59-6.8,14.38-10.22,4.46-3.18,8.88-6.43,13.28-9.7,1.22-.91,2.14-2.42,3.48-2.92,3.83-1.43,4.8-4.37,4.98-7.96.05-1.13.14-2.27.34-3.38,1.71-9.29,3.49-18.57,5.15-27.87.21-1.2.04-2.54-.24-3.74-1.35-5.71-3.33-11.33-1.58-17.33.25-.87.22-1.92.01-2.82-3.32-14.52-1.87-29.04-.11-43.57.17-1.38-.12-2.82-.21-4.55-2.9,2.24-5.16,4.57-7.89,5.95-4.38,2.22-9.03,3.92-13.65,5.63-4.13,1.53-6.02,4.72-6.16,8.71-.16,4.82.38,9.66.61,14.48h6.62c.03.15.06.29.09.44-2.29.62-4.58,1.25-7.2,1.96-4.14,15.68-5.18,31.61-5.22,47.47,3.57,1.13,6.52,2.06,10.22,3.22-3.81,1.18-7.12-1.75-10,1.27,1.14.76,2.08,1.39,2.03,1.35-1.68.19-4.67-.16-6.98.93-4.79,2.24-9.41,4.98-13.77,7.99-9.62,6.65-19.03,13.59-28.76,20.58,2.79,2.57,5.49,5.05,8.37,7.69-3.98-1.62-7.59-3.01-11.11-4.57-1.16-.52-2.78-1.31-3.06-2.29-.81-2.89-3.26-3.51-5.36-4.62-4.84-2.56-9.73-5.02-14.6-7.52.2-.41.4-.82.6-1.24,6.53,2.95,13.07,5.9,19.54,8.83,2.92-1.34,5.88-2.62,8.77-4.04,10.92-5.37,20.59-12.09,25.48-23.9,1.01-2.45,2.03-4.91,2.95-7.4,4.56-12.27,9.07-24.57,13.64-36.84,1.16-3.11,1.64-6.1-.37-9.14-1.64,1.33-3.04,2.45-5.46,4.4.32-4.72.43-8.24.83-11.72.37-3.27.15-6.3-1.14-9.44-3.68-8.94-7.08-18-10.55-27.02-.71-1.86-1.23-3.8-1.8-5.61-6.06.75-9.68,3.79-12.43,8.65-1.71,3.02-4.42,5.6-7.08,7.92-1.68,1.47-2.11,2.78-1.88,4.87.98,9.07,5.1,16.99,8.86,25.06.94,2.02,2.47,2.86,4.53,2.74,1.92-.11,3.83-.45,6.12-.74-2.58,1.43-4.92,3.81-7.11,3.68-3.75-.22-4.7,1.96-5.39,4.37-1.98,6.89-3.63,13.87-5.21,20.05,2.28,1.78,5.22,3.27,5.04,4.06-.89,3.97,2.72,4.11,3.89,6.54-3.76-2.34-7.51-4.68-12-7.47-3.28,2.75-7.12,5.53-10.43,8.85-8.86,8.9-17.5,18.02-26.2,27.07-1.97,2.05-3.73,4.31-5.79,6.25-2.31,2.18-4.6,4.56-7.33,6.05-6.16,3.35-12.66,6.06-18.9,9.29-6.38,3.3-12.67,6.8-18.4,11.61,4.63,5.2,9.44,9.69,12.1,16.06,2.56,6.12,7.2,11.46,6.05,19.7-1.9-8.82-5.96-15.68-10.92-21.88-5.43-6.81-11.48-13.11-17.19-19.7-.7-.8-1.29-1.94-1.39-2.97-.81-8.27-4.54-15.63-7.48-23.16-2.08-5.33-2.07-10.33-.89-15.55.75-3.33,1.65-6.69,3-9.81,4.38-10.11.09-19.18-2.59-28.41-7.37-.28-7.3-.25-10.15,5.95-1.16,2.51-1.91,6.21-5.17,6.17-3.7-.05-4.18-3.97-5.03-6.78-1.59-5.24-3.83-10.1-7.05-14.84-2.86,2.51-3.66,5.63-4.58,8.7-1.08,3.62-1.5,7.64-3.41,10.75-2.98,4.86-4.35,10.05-5.16,15.46-1.02,6.74-2.38,13.54-2.33,20.3.06,9.46,1.37,18.91,1.99,28.38.68,10.33.06,20.32-4.99,29.9-3.97,7.52-6.73,15.69-9.82,23.65-5.59,14.4-5.22,28.65,1.91,42.45,3.66,7.08,7.68,14,11.75,20.86,4.38,7.37,8.96,14.67,9.88,23.42,1,9.42,1.92,18.88,2.33,28.34.59,13.29.68,26.59.98,39.89-.09.54-.17,1.08-.26,1.62-.09,2.08-.17,4.16-.26,6.25-.22,4.92-.34,9.85-.68,14.76-.52,7.51-1.19,15-1.79,22.5-.37.83-1,1.63-1.08,2.48-.62,6.42-1.12,12.86-1.67,19.29-.09,1.1-.17,2.2-.26,3.31l-.07-.03h0ZM364.44,587.76c-1.74-7.53-3.22-13.97-4.71-20.42-4,.26-7.71.53-8.74-4.26,2.84-4.63,4.29-6.09,9.63-7.45,6.97-1.78,14.02-3.56,21.14-4.4,6.17-.73,12.51-.4,18.73.01,1.97.13,4.84,1.68,5.41,3.27.51,1.41-1.5,3.81-2.55,5.69-.62,1.11-2.21,2.03-2.24,3.07-.12,5.01.14,10.03.28,15.63,3.18-1.12,5.71-1.86,8.11-2.88,11.23-4.8,22.24-10.03,30.47-19.45,2.2-2.52,4.08-5.56,5.24-8.69,1.83-4.95-.68-9.25-5.75-10.94-2.34-.78-4.71-1.49-7.12-2.01-15.4-3.38-30.92-3.05-46.49-1.44-20.54,2.12-40.43,6.87-59.44,14.97-9.81,4.18-19.33,8.97-27.17,16.43-4.59,4.37-4.68,7.97-.44,12.67,3.42,3.8,7.88,5.88,12.62,7.46,10.23,3.42,20.89,4.01,31.51,4.15,6.97.09,13.94-.86,21.51-1.39v-.02h0ZM330.44,102.74c-4.25-.78-7.43-1.22-10.52-2.02-.97-.25-2.52-1.67-2.38-2.15.69-2.48-.94-2.96-2.53-3.65-2.61-1.13-5.24-2.23-7.81-3.44-6.69-3.15-12.7,1.65-12.94,8.51-.32,9.24-1.96,18.44-2.56,27.68-.32,4.93-2.31,9.85-.7,16.07,2.16-2.28,3.99-3.66,5.06-5.49,1.42-2.41,2.41-5.12,3.3-7.8,1.19-3.58,2.07-7.26,3.15-10.88.82-2.77,2.53-4.78,5.54-4.97,2.79-.18,4.01,2.19,4.85,4.19,1.77,4.17,3.15,8.51,4.58,12.82.63,1.91.67,4.12,3.77,5.11,1.39-2.89,2.63-5.78,4.17-8.51.78-1.39,1.85-3.1,3.19-3.61,2.97-1.13,6.19-1.58,9.27-2.3,1.15-6.33.09-12.04-2.27-17.55-2.02-4.72-4.7-5.96-10.46-4.85,1.61.86,3.02,1.62,5.3,2.84h0ZM431.39,107.32c1.7-6.8,3.41-13.6,5.11-20.4.87-3.49,2.62-6.29,5.99-7.87,4.16-1.96,6.87-5.21,8.72-9.38,1.79-4.03,4.87-6.61,9.28-7.75,2.12-.54,4.38-1.51,5.96-2.96,1.39-1.27,3.08-3.9,2.61-5.19-1.71-4.67-3.04-9.74-6.86-13.25-4.46,1.37-6.75,3.85-6.08,8.36,2.24.9,4.3,1.73,6.37,2.56-4.43.46-8.58-1.24-12.68.85-.25.13-.73-.13-1.08-.27-2.74-1.1-4.35.35-5.55,2.54-2.28,4.16-4.77,8.23-6.68,12.55-2.46,5.55-3.85,11.64-6.79,16.89-4.6,8.21-2.23,15.56,1.67,23.31h0ZM482.41,104.65c.19,0,.39.02.58.02,1.64-3.8,3.25-7.62,4.92-11.4,1.61-3.65,4.21-6.08,8.15-7.31,4.32-1.35,8.49-3.14,12.72-4.79,2.57-1,4.62-2.54,5.4-5.4.58-2.14,1.29-4.25,1.98-6.51,1.2-.29,2.57-.38,3.69-.96,1.59-.83,1.51-2.7.03-3.67-4.3-2.82-12.59-1.62-16.3,2.16-1.96,2-4.05,3.99-6.4,5.47-2.83,1.79-5.92,3.25-9.05,4.46-3.41,1.32-5.49,3.72-5.63,7.14-.28,6.92-.08,13.85-.08,20.78h-.01ZM530.44,215.05v1.8c1.66.44,3.36.79,4.99,1.34,2.43.83,4.81,1.81,7.21,2.72.12,4.68,3.87,6.1,7.03,8.29,2.26,1.57,4.23,3.79,5.8,6.09,1.97,2.89,3.39,6.16,5.05,9.26.46-11.81-2.17-22.96-5.59-34.27-8.68.92-17.52-1.76-24.5,4.76h.01ZM489.01,102.53c-.98,0-1.26-.07-1.3,0-1.82,3.04-3.28,5.84-2.33,9.9,1.26,5.34-.6,10.71-1.99,15.99-2.23,8.43-4.01,16.95-7.97,24.88-2.78,5.57-4.62,11.62-7.03,17.87,5.39-2.37,10.01-4.4,14.43-6.35-.18-3-.39-5.61-.49-8.22-.55-14.33,3.94-27.98,5.63-42.01.48-3.99.71-8.01,1.06-12.06h-.01ZM472.27,318.61c2.77-1.1,4.86-3.04,6.27-5.83-5.39,1.86-10.1,3.49-14.96,5.17,2.64,3.35,4.99,6.33,7.93,10.06.32-3.88.54-6.65.77-9.39h0ZM359.27,565.59c-1.04-2.64-1.59-4.03-2.46-6.27-1.39,1.98-2.25,3.21-3.53,5.03,2.14.44,3.45.71,5.99,1.24ZM401.23,560.94c1.57-2.79,2.43-4.31,3.44-6.11-1.69-.58-2.85-.98-4.82-1.66.46,2.61.81,4.54,1.38,7.77h0ZM318.8,96.75c-.19.39-.39.77-.58,1.16,1.52,2.44,3.84,2.28,6.56.93-1.99-.7-3.98-1.39-5.97-2.09,0,0-.01,0-.01,0Z"/>
    <path class="st7" d="M306.87,408.74c-.3-13.3-.4-26.61-.98-39.89-.42-9.46-1.34-18.91-2.33-28.34-.92-8.75-5.5-16.05-9.88-23.42-4.08-6.86-8.09-13.77-11.75-20.86-7.14-13.8-7.5-28.05-1.91-42.45,3.09-7.96,5.86-16.13,9.82-23.65,5.05-9.58,5.66-19.57,4.99-29.9-.62-9.47-1.93-18.91-1.99-28.38-.05-6.76,1.31-13.56,2.33-20.3.82-5.41,2.18-10.6,5.16-15.46,1.91-3.11,2.33-7.14,3.41-10.75.91-3.06,1.71-6.18,4.58-8.7,3.21,4.74,5.45,9.61,7.05,14.84.86,2.81,1.34,6.73,5.03,6.78,3.26.05,4.02-3.66,5.17-6.17,2.86-6.2,2.78-6.23,10.15-5.95,2.69,9.23,6.98,18.3,2.59,28.41-1.35,3.12-2.25,6.48-3,9.81-1.18,5.22-1.19,10.23.89,15.55,2.94,7.53,6.67,14.89,7.48,23.16.1,1.03.69,2.17,1.39,2.97,5.71,6.58,11.76,12.89,17.19,19.7,4.95,6.21,9.01,13.06,10.92,21.88,1.15-8.23-3.49-13.58-6.05-19.7-2.66-6.36-7.47-10.86-12.1-16.06,5.73-4.81,12.02-8.31,18.4-11.61,6.23-3.22,12.74-5.94,18.9-9.29,2.74-1.49,5.03-3.87,7.33-6.05,2.06-1.95,3.82-4.2,5.79-6.25,8.7-9.06,17.34-18.18,26.2-27.07,3.31-3.32,7.15-6.1,10.43-8.85,4.49,2.79,8.24,5.13,12,7.47-1.17-2.44-4.79-2.57-3.89-6.54.18-.79-2.76-2.28-5.04-4.06,1.58-6.18,3.24-13.16,5.21-20.05.69-2.41,1.64-4.59,5.39-4.37,2.19.13,4.53-2.26,7.11-3.68-2.29.29-4.2.63-6.12.74-2.07.12-3.59-.72-4.53-2.74-3.75-8.07-7.87-15.99-8.86-25.06-.23-2.1.2-3.4,1.88-4.87,2.65-2.33,5.36-4.9,7.08-7.92,2.75-4.86,6.38-7.89,12.43-8.65.57,1.81,1.09,3.75,1.8,5.61,3.47,9.03,6.87,18.08,10.55,27.02,1.29,3.14,1.51,6.17,1.14,9.44-.39,3.48-.51,7-.83,11.72,2.42-1.95,3.81-3.08,5.46-4.4,2.01,3.04,1.53,6.03.37,9.14-4.57,12.27-9.08,24.56-13.64,36.84-.92,2.49-1.94,4.95-2.95,7.4-4.88,11.81-14.56,18.53-25.48,23.9-2.89,1.42-5.85,2.7-8.77,4.04-6.47-2.92-13.01-5.88-19.54-8.83-.2.41-.4.82-.6,1.24,4.87,2.5,9.76,4.96,14.6,7.52,2.1,1.11,4.54,1.73,5.36,4.62.28.98,1.89,1.77,3.06,2.29,3.53,1.56,7.13,2.95,11.11,4.57-2.88-2.64-5.57-5.13-8.37-7.69,9.73-6.99,19.14-13.94,28.76-20.58,4.36-3.01,8.98-5.75,13.77-7.99,2.31-1.08,5.3-.74,6.98-.93.06.04-.88-.59-2.03-1.35,2.88-3.02,6.19-.1,10-1.27-3.69-1.16-6.64-2.09-10.22-3.22.04-15.86,1.08-31.79,5.22-47.47,2.62-.71,4.91-1.33,7.2-1.96-.03-.15-.06-.29-.09-.44h-6.62c-.23-4.81-.77-9.66-.61-14.48.13-3.99,2.02-7.18,6.16-8.71,4.62-1.71,9.27-3.41,13.65-5.63,2.74-1.39,5-3.72,7.89-5.95.09,1.73.38,3.17.21,4.55-1.77,14.53-3.21,29.05.11,43.57.21.9.24,1.95-.01,2.82-1.75,6,.23,11.63,1.58,17.33.29,1.2.46,2.54.24,3.74-1.66,9.3-3.44,18.58-5.15,27.87-.2,1.11-.29,2.25-.34,3.38-.17,3.59-1.14,6.53-4.98,7.96-1.33.5-2.26,2.01-3.48,2.92-4.4,3.27-8.81,6.52-13.28,9.7-4.79,3.42-9.98,6.36-14.38,10.22-4.75,4.16-10.65,5.75-15.99,8.55-.79.41-2.18-.33-2.65-.42,8.34,10.22,17.17,21.04,26.79,32.83-1.54-6.57-5.16-10.61-8.27-14.9-3.21-4.43-6.54-8.76-10.15-13.6,1.12-1.18,2.19-2.76,3.64-3.8,9.12-6.49,18.39-12.75,27.47-19.29,4.74-3.41,9.18-7.23,13.77-10.88,1.54,1.08,3.01,2.55,4.79,3.23,1.89.72,4.07.7,6.29,1.02-1.58-.89-3.11-1.62-4.49-2.56-2.5-1.71-3.82-3.89-3.25-7.18,1.85-10.76,3.53-21.55,5.37-32.97,2.25,1.23,3.82,2.09,5.44,2.98.05-.49.23-.96.09-1.1-7.78-7.61-8.41-16.9-6.33-26.82.77-3.66,1.62-7.31,2.5-11.28,3.53.18,5.26,2.39,6.81,4.72.94,1.42,1.52,3.06,2.38,4.54,3.14,5.37,7.2,6.39,12.36,3.08,1.24-.79,2.33-1.81,4.06-3.18,0,4.64.26,8.69-.05,12.71-1.23,15.91-2.87,31.8-1.79,47.77.35,5.16-1.59,9.47-3.38,14.12-2.8,7.27-7.41,10.61-15.09,12-11.84,2.14-19.41,9.74-22.65,21.52-.52,1.9-1.59,3.71-2.67,5.4-3.06,4.77-6.53,9.3-9.32,14.21-2.3,4.04-3.88,8.49-5.97,13.2-2.02-.2-4.08-.72-6.07-.54-9.13.81-18.05-1.1-27.03-1.95-12.14-1.15-23.91.45-35.37,4.2-12.56,4.1-25.03,8.51-37.42,13.13-6.37,2.37-11.22,6.84-14.32,13.03-.76,1.51-1.57,3-2.36,4.49-1.82,3.96-3.79,7.86-4.63,12.16.36.16.72.32,1.09.48,1.81-4.12,3.62-8.23,5.42-12.35,2.71-7.13,7.36-11.77,14.87-14.4,15.64-5.48,30.98-11.73,47.49-14.38,12.02-1.93,24.01-3.65,36.21-2.73,3.4.26,6.76,1.04,10.16,1.22,3.74.2,7.69-.75,11.21.15,3.48.89,6.18,4.31,10.18,4.08-2.09-2.28-4.21-4.6-6.2-6.76,2.71-9.79,7.41-18.15,13.67-25.63,1.34-1.6,2.52-4.14,5.5-2.86.8.36,1.62,1.06,2.4,1.01,2.79-.16,5.57-.58,9.7-1.05-2.63-1.01-4.22-1.62-5.81-2.23-2.4-.5-4.8-.99-7.2-1.49,1.86-11.24,7.78-17.54,18.49-19.41.31,4.12,2.14,6.53,6.79,6.13,1.47-.13,3.05,1.03,5.08,1.79-1.02,1.96-1.72,3.45-2.54,4.86-4.81,8.19-8.68,16.65-11.24,25.95-3.3,12.01-7.95,23.67-12.34,35.36-.87,2.32-2.87,4.52-4.91,6.03-6.25,4.62-12.81,8.72-20.18,11.5-16.84,6.36-33.65,12.81-50.33,19.58-8.47,3.44-16.11,8.34-22.59,15.04-2.19,2.26-2.95,4.47-3.03,7.37-.31,10.79-.73,21.57-1.11,32.36-1.39-1.17-3.12-2.1-4.09-3.55-3.21-4.79-3.1-4.86-8.47-3.7-.73.16-1.49.41-2.22.36-4.53-.29-6.72,2.66-8.7,6.04-.88,1.51-1.97,2.9-2.97,4.35-1.11-.6-1.72-.75-2.06-1.13-5.95-6.74-12.93-11.94-21.27-15.49-2.99-1.27-5.57-2.18-8.55-.59-2.99,1.59-5.98,3.17-8.97,4.76-2.58-3.39-5.32-6.69-7.71-10.21-3.29-4.84-7.31-8.88-12.21-12.38-.22,1.82-.15,3.53.7,4.67,2.35,3.15,4.87,6.22,7.62,9.03,3.53,3.61,7.35,6.93,11.05,10.38-2.84,6.8-5.61,13.63-8.58,20.37-.54,1.23-1.93,2.1-2.9,3.11-1.48-.69-2.51-1.17-3.53-1.66-6.56-3.12-11.11-1.22-14.12,5.39-1.47,3.23-2.09,6.42-2,9.91.18,6.56,0,13.18-.27,19.69-.29,7.03-2.81,14-4.61,20.93-.5,1.94-1.52,4.03-4.2,4.03.6-7.5,1.27-15,1.79-22.5.34-4.91.47-9.84.68-14.76.09-2.08.17-4.16.26-6.25.09-.54.17-1.08.26-1.63h.06,0ZM444.36,239.02c1.96,1.55,3.91,3.09,5.87,4.63.15-.21.3-.42.45-.63-2.13-1.32-4.25-2.64-6.38-3.96-1.36-.37-3.71-.46-3.91-1.17-.76-2.65-3.11-3.19-4.87-4.42-2.64-1.85-5.43-3.51-8.25-5.09-9.6-5.39-19.19-10.8-28.9-15.99-2.27-1.22-4.79-2.93-7.7-1.48,2.07.83,4.05,1.41,5.83,2.38,8.49,4.63,16.89,9.44,25.4,14.04,7.43,4.01,14.97,7.8,22.46,11.69h0ZM414.62,199.67c3.45,2.09,7.03,4.01,10.34,6.32,6.63,4.62,13.11,9.45,19.65,14.2.14.1.2.31.29.47.08-.12.16-.25.3-.46-9.44-7.93-18.72-16.11-30.59-20.53h.01ZM451.98,225.77c2.23.79,4.48,1.53,6.69,2.37s4.39,1.77,6.59,2.67c-4.21-4.13-7.83-5.59-13.28-5.04ZM382.63,265.27c-.33-.11-.67-.22-1-.33-1.53,3.46-3.06,6.92-4.59,10.38l.46.21c1.71-3.42,3.42-6.84,5.13-10.26ZM465.36,252.87c-3.59-4.81-8.71-7.6-13.03-7.25,4.37,2.43,8.12,4.52,13.03,7.25ZM414.43,239.48c-.28.51-.56,1.02-.84,1.54,3.16,1.85,6.32,3.71,9.49,5.56.26-.44.52-.87.78-1.31-3.14-1.93-6.28-3.86-9.42-5.79h0Z"/>
    <path class="st8" d="M439.55,532.23c-8.22-2.11-16.51-3.66-25.03-4.15-13.17-.75-26.22.24-39.16,2.46-18.56,3.18-36.69,7.97-53.92,15.79-9.56,4.34-18.64,9.39-26.31,16.7-.35.33-.92.42-1.93.86.23-4.68.32-8.94.68-13.18,1.45-17.2,2.92-34.41,4.53-51.59.6-6.41,1.58-12.79,2.38-19.18,1.45,1.7,2.83,3.47,4.37,5.08.73.76,2.02,1.92,2.6,1.7,1.04-.4,2.05-1.56,2.52-2.65.72-1.69.45-4.03,1.53-5.3,2.96-3.48,3.31-7.42,3.56-11.67.15-2.54,1.1-5.17,2.28-7.46,1.61-3.11,7.59-5.34,10.38-4.34,2.66.96,6.91,6.9,6.11,9.59-1.33,4.41-.12,8.15,1.52,12.08.78,1.88.85,4.04,1.33,6.06.29,1.21.75,2.38,1.21,3.82,3.12-.8,6.03-1.09,8.48-2.3,2.24-1.1,4.84-2.82,5.8-4.93,2.45-5.4,6.48-8.13,11.93-9.59,5.02-1.35,7.33-6.26,4.38-10.45-4.68-6.67-2.75-12.33,1.24-18.21,1.48-2.18,2.99-2.71,5.22-1.44,2.42,1.38,4.85,1.53,7.66.95,1.44-.29,3.73.83,4.8,2.04,1.92,2.18.44,8.04-2.04,10.06-1.99,1.62-4.22,3.06-4.95,5.74.63.37.94.7,1.26.71.75.04,1.53.03,2.25-.14,8.16-1.95,15.18-.49,20.96,6.12,1.95,2.24,4.84,3.66,7.3,5.45,1.91-.07,4.09.49,5.14,3.8.65,2.04,2.49,3.72,2.15,6.47-1.73-.15-3.14-.27-4.54-.4-1.07,7.02,1.8,11.66,9.96,15.22-.82-3.58-1.49-6.53-2.15-9.47,1.5.15,2.23.68,2.74,1.37,1.9,2.54,4.54,4.91,5.35,7.78s-.64,6.3-.35,9.41c.27,2.82.44,5.45.02,8.31-.77,5.3.45,10.12,5.54,13.31,1.86,1.16,3.78,2.76,3.17,5.56h.03Z"/>
    <path class="st0" d="M439.55,532.23c.61-2.8-1.31-4.39-3.17-5.56-5.08-3.19-6.3-8-5.54-13.31.41-2.87.25-5.5-.02-8.31-.3-3.11,1.16-6.54.35-9.41s-3.45-5.24-5.35-7.78c-.51-.69-1.24-1.21-2.74-1.37.67,2.94,1.34,5.89,2.15,9.47-8.16-3.57-11.04-8.2-9.96-15.22,1.4.12,2.81.25,4.54.4.34-2.75-1.5-4.42-2.15-6.47-1.05-3.31-3.23-3.87-5.14-3.8-2.46-1.79-5.35-3.21-7.3-5.45-5.78-6.61-12.8-8.08-20.96-6.12-.72.17-1.5.18-2.25.14-.32-.02-.63-.34-1.26-.71.73-2.68,2.96-4.13,4.95-5.74,2.48-2.02,3.96-7.88,2.04-10.06-1.07-1.22-3.36-2.34-4.8-2.04-2.81.57-5.24.43-7.66-.95-2.23-1.27-3.75-.74-5.22,1.44-3.99,5.88-5.92,11.54-1.24,18.21,2.95,4.19.64,9.11-4.38,10.45-5.45,1.46-9.48,4.2-11.93,9.59-.96,2.12-3.56,3.83-5.8,4.93-2.46,1.21-5.37,1.5-8.48,2.3-.46-1.44-.92-2.61-1.21-3.82-.48-2.01-.55-4.18-1.33-6.06-1.64-3.93-2.84-7.67-1.52-12.08.81-2.69-3.44-8.63-6.11-9.59-2.79-1.01-8.78,1.22-10.38,4.34-1.18,2.29-2.13,4.93-2.28,7.46-.26,4.25-.6,8.19-3.56,11.67-1.08,1.27-.81,3.61-1.53,5.3-.46,1.09-1.47,2.25-2.52,2.65-.58.22-1.87-.93-2.6-1.7-1.54-1.61-2.92-3.38-4.37-5.08-.18-.34-.15-.66.07-.97.82-.76,1.65-1.52,2.47-2.27-.74-.34-1.48-.69-2.21-1.03.54-6.43,1.05-12.87,1.67-19.29.08-.85.7-1.66,1.08-2.48,2.68,0,3.7-2.09,4.2-4.03,1.8-6.93,4.32-13.9,4.61-20.93.27-6.51.44-13.12.27-19.69-.09-3.49.53-6.67,2-9.91,3.01-6.61,7.55-8.51,14.12-5.39,1.02.49,2.05.96,3.53,1.66.97-1.01,2.36-1.87,2.9-3.11,2.97-6.74,5.74-13.57,8.58-20.37.18-.31.39-.62.54-.95.07-.15.01-.35.02-.53,2.99-1.59,5.98-3.17,8.97-4.76s5.56-.68,8.55.59c8.34,3.55,15.33,8.75,21.27,15.49.34.39.95.54,2.06,1.13.99-1.44,2.08-2.84,2.97-4.35,1.98-3.38,4.17-6.33,8.7-6.04.73.05,1.49-.21,2.22-.36,5.37-1.16,5.26-1.09,8.47,3.7.97,1.45,2.71,2.38,4.09,3.55,1.48,30.83,8.27,60.71,15.69,90.52,4.95,19.89,12.03,39.12,17.34,58.88.47,1.75.82,3.54,1.49,6.46-2.94-1.37-4.92-2.3-6.91-3.23h-.03ZM360.26,380.36c-5.35,4.56-6.66,10.07-7.97,15.57-1.34,5.66-.16,7.5,5.59,7.6,4.5.08,7.6,2.06,9.86,5.66,1.3,2.08,2.28,4.35,3.57,6.42.65,1.04,1.51,2.23,2.56,2.7,6.34,2.85,13.29,4.27,19.02,8.56,1.86,1.39,3.71.58,4.47-1.7,1.93-5.78-2.17-14.57-7.95-15.59-8.96-1.59-14.11-7.28-18.54-14.5-3.04-4.96-6.8-9.49-10.62-14.73h.01ZM341.21,471.97c.98-.09,1.64.05,2.05-.22,3.41-2.2,7-3.22,11.16-3.19,3.44.03,5-2.28,5.4-6.09.28-2.61.79-5.2.98-7.81.17-2.34.04-4.7.04-7.06-.4-.19-.81-.37-1.21-.56-1.19,1.01-2.85,1.79-3.47,3.08-1.95,4.02-5.39,6.18-9.03,8.25-4.21,2.39-6.88,8.36-5.91,13.59h-.01Z"/>
    <path class="st9" d="M431.71,676.57c.1-.16.22-.47.3-.46,7.44.77,12.77,9.17,9.33,15.22-4.74,8.35-9.89,16.48-15.07,25.03-5.22-4.07-10.61-6.18-14.33-11.16-3.42-4.58-8.45-7.78-14.75-7.16-1.54.15-3.41.82-4.42,1.91-3.32,3.58-5.08,8.04-5.8,13,.65-.85,1.31-1.71,1.96-2.56.62.44,1.23.88,1.85,1.32-4.85,5.57-9.66,11.17-14.58,16.68-2.31,2.59-5.7,2.62-8.76,2.66-1.3.02-3.18-1.44-3.84-2.72-5.49-10.69-9.19-22.01-11.35-33.83-.5-2.75.5-4.82,3-6.12,1.52-.78,3.05-1.55,4.59-2.28,11.88-5.68,16.76-15.53,16.11-28.2-.34-6.6-1.85-13.12-2.56-19.71-1.24-11.49-2.28-22.99-3.4-34.49-1.45-14.93-3.55-29.72-9.23-43.75-.13-.31-.02-.72-.02-1.57,11.37-3.27,22.96-5.48,35.74-5.33,0,5.46-.16,10.68.03,15.89,1.15,31.44,7.04,62.05,16.31,92.06.94,3.05,2.49,5.34,5.56,6.75,4.3,1.98,8.42,4.33,12.58,6.59.83.45,2.38.89.87,2.33h-3.43c-.1.26-.19.52-.29.79,2.12,1.32,4.24,2.65,6.35,3.97.13-.22.26-.44.38-.66-1.04-1.4-2.09-2.8-3.13-4.2h0ZM435.11,693.74c-2.01,1.62-3.62,3.48-3.3,6.49,1.2-2.06,2.4-4.12,3.59-6.18,1.53-.5,2.85-1.12,1.71-3.74-.83,1.41-1.42,2.42-2.01,3.42h.01ZM394.27,609.41c.33,3.94.58,7.89,1.01,11.82,1.14,10.32,2.33,20.64,3.58,30.95.08.62.81,1.17,1.61,2.26-.38-4.56-.62-8.3-1.01-12.02-.99-9.38-2.03-18.76-3.12-28.13-.19-1.63-.69-3.23-1.04-4.85-.98-9.87-1.96-19.74-2.95-29.61-.43,1.71-.56,3.41-.41,5.09.73,8.16,1.54,16.32,2.32,24.48h.01ZM382.1,682.74c-.35-.22-.69-.44-1.04-.65-4,4.74-8.11,9.39-11.94,14.26-1.98,2.53-1.51,3.23,2.2,4.24-.59-.77-1.04-1.35-1.61-2.09,4.61-4.93,9.88-9.32,12.39-15.76h0ZM389.52,640.5c-1.35,6.73-.38,12.36,2.62,16.45-.87-5.48-1.74-10.96-2.62-16.45ZM391.18,575.65h.25v-6.38h-.25v6.38Z"/>
    <path class="st8" d="M364.44,587.76c-7.57.53-14.55,1.49-21.51,1.39-10.63-.14-21.28-.73-31.51-4.15-4.74-1.58-9.2-3.66-12.62-7.46-4.23-4.69-4.15-8.29.44-12.67,7.84-7.47,17.36-12.25,27.17-16.43,19.02-8.1,38.9-12.84,59.44-14.97,15.57-1.61,31.09-1.94,46.49,1.44,2.4.53,4.78,1.24,7.12,2.01,5.07,1.68,7.58,5.99,5.75,10.94-1.16,3.12-3.04,6.17-5.24,8.69-8.23,9.42-19.24,14.65-30.47,19.45-2.4,1.03-4.93,1.76-8.11,2.88-.14-5.6-.4-10.62-.28-15.63.03-1.04,1.61-1.96,2.24-3.07,1.05-1.88,3.06-4.28,2.55-5.69-.58-1.59-3.45-3.14-5.41-3.27-6.23-.42-12.56-.74-18.73-.01-7.12.84-14.16,2.62-21.14,4.4-5.34,1.36-6.79,2.82-9.63,7.45,1.03,4.78,4.75,4.52,8.74,4.26,1.49,6.45,2.97,12.89,4.71,20.42v.02h0Z"/>
    <path class="st9" d="M330.44,102.74c-2.28-1.22-3.69-1.98-5.3-2.84,5.77-1.11,8.44.13,10.46,4.85,2.36,5.51,3.42,11.22,2.27,17.55-3.08.72-6.3,1.18-9.27,2.3-1.34.51-2.41,2.22-3.19,3.61-1.53,2.73-2.77,5.62-4.17,8.51-3.1-1-3.14-3.2-3.77-5.11-1.42-4.31-2.81-8.65-4.58-12.82-.85-2-2.06-4.36-4.85-4.19-3.02.19-4.72,2.21-5.54,4.97-1.08,3.62-1.96,7.3-3.15,10.88-.89,2.68-1.88,5.39-3.3,7.8-1.08,1.82-2.9,3.21-5.06,5.49-1.61-6.22.38-11.14.7-16.07.6-9.24,2.23-18.44,2.56-27.68.24-6.87,6.26-11.66,12.94-8.51,2.57,1.21,5.2,2.31,7.81,3.44,1.6.69,3.23,1.17,2.53,3.65-.14.49,1.42,1.91,2.38,2.15,3.09.79,6.28,1.24,10.52,2.02h0ZM301.99,106.21c.94-2.38,1.77-4.44,2.76-6.94-2.97,1.76-3.75,3.84-2.76,6.94ZM335.21,114.09c.38-.18.77-.36,1.15-.53-.61-1.61-1.21-3.22-1.82-4.83-.35.14-.71.27-1.06.41.58,1.65,1.15,3.3,1.73,4.95ZM294.4,122.43c.37.16.75.31,1.12.47.65-1.41,1.3-2.83,1.95-4.24-.44-.18-.87-.36-1.31-.55-.59,1.44-1.18,2.88-1.77,4.32h0Z"/>
    <path class="st9" d="M555.93,139.2c-.69-1.92-1.55-3.8-2.03-5.77-.57-2.34-1.03-4.75-1.15-7.14-.11-2.26-.48-4.1-4.06-5.36-1.05,1.37-2.15,3.44-3.81,4.86-4.63,3.94-8.62,3.21-10.79-2.32-1.75-4.45-4.15-7.88-8.27-10.41-2.88-1.76-2.79-4.09-.36-6.57,1.16-1.19,2.47-2.23,3.94-3.53,4.84,1.74,7.86-.53,10.53-4.78,2.68-4.27,4.01-4.41,8.54-2.19,3.67,1.8,7.24,3.84,10.66,6.06,3.14,2.05,4.1,5.34,3.9,8.96-.33,6.06-.71,12.11-1.11,18.17-.4,5.97-.86,11.94-1.94,18.11-.9-2.26-1.79-4.51-2.68-6.76-.45-.43-.9-.88-1.36-1.32h-.01ZM556.38,108.2c-.48-3.52-2.96-2.84-4.83-2.73-3.7.23-6.59-.98-8.71-4.04,1.57,8.2,8.71,4.73,13.54,6.77h0ZM558.18,120.49c.54-.02,1.08-.05,1.63-.07-.21-1.37-.42-2.75-.62-4.12-.44.05-.88.11-1.32.16.11,1.34.21,2.69.32,4.03h-.01Z"/>
    <path class="st9" d="M431.39,107.32c-3.9-7.74-6.27-15.09-1.67-23.31,2.94-5.25,4.32-11.35,6.79-16.89,1.92-4.32,4.4-8.39,6.68-12.55,1.2-2.19,2.81-3.63,5.55-2.54.35.14.83.39,1.08.27,4.1-2.1,8.25-.39,12.68-.85-2.06-.83-4.13-1.66-6.37-2.56-.67-4.51,1.62-6.99,6.08-8.36,3.82,3.51,5.15,8.58,6.86,13.25.47,1.29-1.23,3.92-2.61,5.19-1.58,1.45-3.83,2.41-5.96,2.96-4.41,1.13-7.49,3.71-9.28,7.75-1.86,4.17-4.56,7.42-8.72,9.38-3.37,1.59-5.12,4.39-5.99,7.87-1.7,6.8-3.41,13.6-5.11,20.4h0ZM445.46,65.48c-.37-.26-.74-.52-1.11-.78-.65,1.37-1.3,2.74-1.95,4.11.34.17.68.33,1.02.5.68-1.28,1.36-2.55,2.05-3.83h0Z"/>
    <path class="st9" d="M482.41,104.65c0-6.93-.2-13.86.08-20.78.14-3.42,2.22-5.82,5.63-7.14,3.13-1.21,6.22-2.67,9.05-4.46,2.35-1.48,4.44-3.47,6.4-5.47,3.71-3.79,12-4.98,16.3-2.16,1.48.97,1.56,2.84-.03,3.67-1.12.58-2.49.67-3.69.96-.69,2.26-1.4,4.37-1.98,6.51-.78,2.85-2.82,4.4-5.4,5.4-4.22,1.64-8.4,3.44-12.72,4.79-3.94,1.23-6.54,3.66-8.15,7.31-1.67,3.79-3.28,7.6-4.92,11.4-.19,0-.39-.02-.58-.02h.01ZM506.99,77.28c-5.04-2.1-8.6.43-11.9,3.78,3.91-1.37,7.07-5.21,11.9-3.78Z"/>
    <path class="st9" d="M448.37,362.7c-4.87-10.39-9.74-20.78-14.84-31.64,7.92-5.04,16.61-7.92,25.67-11.44v8.58c-2.08.49-4.2.99-6.67,1.57-.1,1.78-.22,3.44-.28,5.1-.29,7.57-.47,15.15-.92,22.72-.12,2.03.33,4.89-3.15,5l.2.11h-.01ZM447.03,337.55c-.32-2.54-.64-5.09-.97-7.63-2.39,2.99-1.24,5.47.97,7.63Z"/>
    <path class="st9" d="M530.44,215.05c6.98-6.52,15.82-3.84,24.5-4.76,3.42,11.31,6.04,22.46,5.59,34.27-1.66-3.1-3.08-6.37-5.05-9.26-1.56-2.3-3.53-4.52-5.8-6.09-3.16-2.19-6.91-3.62-7.03-8.29-2.4-.92-4.78-1.89-7.21-2.72-1.63-.56-3.32-.9-4.99-1.34v-1.8h-.01ZM549.92,218.9c-.42.17-.83.33-1.25.5-.03,2.75,1.04,4.96,4.58,7.32-1.43-3.35-2.38-5.58-3.33-7.82ZM539.09,212.76v1.15c2.27-.2,4.54-.39,6.31-.54-1.75-.17-4.03-.39-6.31-.61Z"/>
    <path class="st9" d="M508,301.34c-.68,4.67-1.36,9.34-2.04,14.01-.95,6.48-1.56,13.06-6.16,18.89-2.69-7.17-2.54-15.17-9.19-19.67.22-4.92,2.02-8.08,6.75-9.55,3.39-1.05,6.54-2.88,9.8-4.37.25.27.53.5.85.69h0ZM500.07,308.09c-.24-.18-.47-.37-.71-.55-1.29,1.73-2.57,3.46-3.94,5.3,1.4,1.64,2.49,2.93,4.08,4.8-.99-2.23-1.66-3.75-2.29-5.17,1.06-1.63,1.96-3,2.85-4.38h.01Z"/>
    <path class="st9" d="M472.27,318.61c-.22,2.74-.45,5.51-.77,9.39-2.94-3.73-5.29-6.71-7.93-10.06,4.86-1.68,9.57-3.31,14.96-5.17-1.4,2.79-3.49,4.73-6.27,5.83h0Z"/>
    <path class="st9" d="M388.94,710.39c1.13-1.96,2.15-3.99,3.4-5.86,3.3-4.97,5.58-5.57,10.86-2.95.92.46,1.72,1.14,2.97,1.99-1.02.31-1.57.67-2.01.58-4.48-.99-7.61,1.02-10.24,4.37-.92,1.17-2.08,2.14-3.13,3.2-.61-.44-1.23-.88-1.85-1.32h0Z"/>
    <path class="st3" d="M367.65,298.09c-1.81,4.12-3.62,8.23-5.42,12.35-.36-.16-.72-.32-1.09-.48.84-4.3,2.82-8.2,4.63-12.16.62.1,1.25.19,1.88.29Z"/>
    <path class="st3" d="M359.27,565.59c-2.54-.52-3.85-.79-5.99-1.24,1.28-1.82,2.14-3.05,3.53-5.03.88,2.23,1.43,3.63,2.46,6.27Z"/>
    <path class="st3" d="M517.03,234.51c1.59.61,3.17,1.22,5.81,2.23-4.13.47-6.91.89-9.7,1.05-.78.05-1.6-.65-2.4-1.01,2.1-.76,4.2-1.51,6.29-2.27Z"/>
    <path class="st3" d="M401.23,560.94c-.57-3.23-.92-5.16-1.38-7.77,1.97.68,3.13,1.08,4.82,1.66-1.01,1.8-1.87,3.32-3.44,6.11h0Z"/>
    <path class="st9" d="M318.8,96.75c1.99.7,3.98,1.39,5.97,2.09-2.72,1.35-5.03,1.51-6.56-.93.19-.39.39-.77.58-1.16,0,0,.01,0,.01,0Z"/>
    <path class="st3" d="M301.13,475.65c.74.34,1.48.69,2.21,1.03-.82.76-1.65,1.51-2.47,2.27.09-1.1.17-2.2.26-3.31h0Z"/>
    <path class="st9" d="M507.15,300.66c.23-.25.46-.51.69-.76.05.48.1.96.15,1.45-.31-.19-.59-.42-.85-.69h.01Z"/>
    <path class="st3" d="M306.87,408.74c-.09.54-.17,1.08-.26,1.63.09-.54.17-1.08.26-1.63Z"/>
    <path class="st5" d="M444.36,239.02c-7.49-3.89-15.03-7.69-22.46-11.69-8.51-4.59-16.91-9.41-25.4-14.04-1.77-.97-3.76-1.55-5.83-2.38,2.92-1.45,5.44.26,7.7,1.48,9.7,5.2,19.3,10.6,28.9,15.99,2.82,1.58,5.6,3.24,8.25,5.09,1.76,1.23,4.11,1.77,4.87,4.42.2.7,2.55.79,3.91,1.17l.06-.05h0Z"/>
    <path class="st5" d="M344.63,370.64c0,.18.05.38-.02.53-.15.33-.36.64-.54.95-3.7-3.45-7.52-6.77-11.05-10.38-2.75-2.81-5.27-5.87-7.62-9.03-.85-1.14-.93-2.86-.7-4.67,4.9,3.5,8.93,7.54,12.21,12.38,2.39,3.52,5.13,6.82,7.71,10.21h.01Z"/>
    <path class="st5" d="M414.62,199.67c11.87,4.42,21.14,12.59,30.59,20.53-.14.22-.22.34-.3.46-.1-.16-.16-.37-.29-.47-6.54-4.75-13.02-9.58-19.65-14.2-3.31-2.3-6.88-4.22-10.34-6.32h-.01Z"/>
    <path class="st5" d="M451.98,225.77c5.45-.55,9.07.92,13.28,5.04-2.19-.89-4.37-1.83-6.59-2.67-2.21-.84-4.46-1.59-6.69-2.37Z"/>
    <path class="st5" d="M382.63,265.27c-1.71,3.42-3.42,6.84-5.13,10.26l-.46-.21c1.53-3.46,3.06-6.92,4.59-10.38.33.11.67.22,1,.33Z"/>
    <path class="st3" d="M465.36,252.87c-4.9-2.73-8.65-4.82-13.03-7.25,4.32-.35,9.44,2.44,13.03,7.25Z"/>
    <path class="st3" d="M414.43,239.48c3.14,1.93,6.28,3.86,9.42,5.79-.26.44-.52.87-.78,1.31-3.16-1.85-6.32-3.71-9.49-5.56.28-.51.56-1.02.84-1.54h0Z"/>
    <path class="st5" d="M444.3,239.07c2.13,1.32,4.25,2.64,6.38,3.96-.15.21-.3.42-.45.63-1.96-1.54-3.91-3.09-5.87-4.63l-.06.05h0Z"/>
    <path class="st7" d="M360.26,380.36c3.82,5.24,7.57,9.77,10.62,14.73,4.43,7.22,9.58,12.91,18.54,14.5,5.78,1.02,9.88,9.81,7.95,15.59-.76,2.28-2.61,3.09-4.47,1.7-5.74-4.29-12.69-5.71-19.02-8.56-1.05-.47-1.91-1.66-2.56-2.7-1.29-2.08-2.28-4.35-3.57-6.42-2.25-3.61-5.36-5.58-9.86-5.66-5.75-.1-6.93-1.94-5.59-7.6,1.31-5.5,2.62-11.01,7.97-15.57h-.01Z"/>
    <path class="st7" d="M341.21,471.97c-.97-5.23,1.7-11.2,5.91-13.59,3.64-2.07,7.08-4.23,9.03-8.25.62-1.29,2.29-2.07,3.47-3.08.4.19.81.37,1.21.56,0,2.35.13,4.72-.04,7.06-.19,2.61-.7,5.2-.98,7.81-.4,3.81-1.96,6.11-5.4,6.09-4.16-.03-7.75.99-11.16,3.19-.41.26-1.08.13-2.05.22h.01Z"/>
    <path class="st5" d="M395.31,609.44c.36,1.62.86,3.21,1.04,4.85,1.08,9.37,2.12,18.75,3.12,28.13.39,3.72.63,7.46,1.01,12.02-.8-1.1-1.54-1.64-1.61-2.26-1.25-10.31-2.44-20.63-3.58-30.95-.43-3.93-.68-7.88-1.02-11.83.34,0,.69.01,1.03.04h0Z"/>
    <path class="st5" d="M382.1,682.74c-2.52,6.44-7.78,10.83-12.39,15.76.57.74,1.02,1.32,1.61,2.09-3.7-1.01-4.18-1.71-2.2-4.24,3.83-4.88,7.94-9.52,11.94-14.26.35.22.69.44,1.04.65h0Z"/>
    <path class="st5" d="M395.31,609.44c-.34-.02-.69-.04-1.03-.04-.78-8.16-1.59-16.31-2.32-24.48-.15-1.68-.02-3.38.41-5.09.98,9.87,1.96,19.74,2.95,29.61h-.01Z"/>
    <path class="st5" d="M389.52,640.5c.87,5.48,1.74,10.96,2.62,16.45-2.99-4.09-3.96-9.72-2.62-16.45Z"/>
    <path class="st5" d="M431.71,676.57c1.04,1.4,2.09,2.8,3.13,4.2-.13.22-.26.44-.38.66-2.12-1.32-4.24-2.65-6.35-3.97.1-.26.19-.52.29-.79h3.43l-.1-.1h-.02Z"/>
    <path class="st5" d="M435.4,694.05c-1.2,2.06-2.4,4.12-3.59,6.18-.33-3.02,1.28-4.87,3.3-6.49l.3.32h0Z"/>
    <path class="st5" d="M391.18,575.65v-6.38h.25v6.38h-.25Z"/>
    <path class="st5" d="M435.11,693.74c.59-1,1.18-2.01,2.01-3.42,1.14,2.62-.19,3.24-1.71,3.74l-.3-.32h0Z"/>
    <path class="st5" d="M301.99,106.21c-.99-3.09-.21-5.17,2.76-6.94-.99,2.49-1.81,4.56-2.76,6.94Z"/>
    <path class="st3" d="M335.21,114.09c-.58-1.65-1.15-3.3-1.73-4.95.35-.14.71-.27,1.06-.41.61,1.61,1.21,3.22,1.82,4.83-.38.18-.77.36-1.15.53Z"/>
    <path class="st3" d="M294.4,122.43c.59-1.44,1.18-2.88,1.77-4.32.44.18.87.36,1.31.55-.65,1.41-1.3,2.83-1.95,4.24-.37-.16-.75-.31-1.12-.47h0Z"/>
    <path class="st5" d="M556.38,108.2c-4.83-2.04-11.98,1.42-13.54-6.77,2.12,3.06,5.01,4.27,8.71,4.04,1.88-.12,4.35-.79,4.83,2.73h0Z"/>
    <path class="st3" d="M558.18,120.49c-.11-1.34-.21-2.69-.32-4.03.44-.05.88-.11,1.32-.16.21,1.37.42,2.75.62,4.12-.54.02-1.08.05-1.63.07h.01Z"/>
    <path class="st3" d="M445.46,65.48c-.68,1.28-1.36,2.55-2.05,3.83-.34-.17-.68-.33-1.02-.5.65-1.37,1.3-2.74,1.95-4.11.37.26.74.52,1.11.78h0Z"/>
    <path class="st5" d="M506.99,77.28c-4.83-1.43-7.99,2.4-11.9,3.78,3.3-3.35,6.86-5.88,11.9-3.78Z"/>
    <path class="st3" d="M447.03,337.55c-2.2-2.16-3.36-4.63-.97-7.63.32,2.54.64,5.09.97,7.63Z"/>
    <path class="st3" d="M549.92,218.9c.95,2.24,1.91,4.47,3.33,7.82-3.55-2.35-4.61-4.56-4.58-7.32.42-.17.83-.33,1.25-.5Z"/>
    <path class="st5" d="M539.09,212.76c2.28.22,4.55.44,6.31.61-1.77.15-4.04.35-6.31.54v-1.15Z"/>
    <path class="st5" d="M500.07,308.09c-.9,1.38-1.79,2.75-2.85,4.38.63,1.42,1.3,2.94,2.29,5.17-1.59-1.87-2.69-3.16-4.08-4.8,1.37-1.84,2.65-3.57,3.94-5.3.24.18.47.37.71.55h-.01Z"/>
    <path class="st1" d="M555.93,139.2c-1.12-.91-2.24-1.81-4.18-3.37-.46,9.42-.95,18.05-1.27,26.69-.33,8.72.03,17.5-.9,26.15-.58,5.34-3,10.48-4.61,15.7-.47,1.52-.98,3.02-1.57,4.83,3.66-.37,6.58-.62,9.49-.98,2.62-.32,4.01,1.13,4.46,3.37,1.7,8.55,3.43,17.1,4.78,25.71.75,4.8.76,9.71.41,14.76-2.32-4.42-4.62-8.85-6.98-13.25-2.01-3.77-4.66-6.76-8.73-8.62-2.07-.95-3.6-3.07-5.93-5.16-1.32,2.26-2.69,4.41-3.87,6.66-6.37,12.18-9.49,25.51-13.8,38.43-2.45,7.35-5.43,14.53-8.41,21.69-1,2.39-3.32,4.29-4.04,6.71-1.48,5.02-2.32,10.23-3.38,15.37-1.33,6.46-2.44,12.98-4.01,19.38-.43,1.74-2.18,3.16-3.97,5.59-1.17-2.3-1.98-3.5-2.41-4.83-1.14-3.59-2-7.28-3.2-10.85-.59-1.76-1.28-3.86-2.63-4.91-2.73-2.14-3.66-4.58-2.16-8.83-3.58.89-6.18,1.53-8.65,2.15-.45,2.37-.28,4.73-1.35,6.14-1,1.33-3.32,1.67-5.88,2.81v12.63c-6.06-1.73-4.17-9.93-10.19-10.86-.65,5.23-3.49,8.35-8.52,9.36,0,3.37.09,6.91-.02,10.43-.17,5.12-.31,10.25-.81,15.34-.22,2.19-1.03,4.45-2.1,6.39-1.06,1.92-2.17,1.44-3.33-1.27,3.48-.11,3.03-2.97,3.15-5,.45-7.56.63-15.14.92-22.72.06-1.66.18-3.32.28-5.1,2.47-.58,4.6-1.08,6.67-1.57v-8.58c-9.06,3.52-17.75,6.4-25.67,11.44,5.09,10.86,9.97,21.25,14.84,31.64-2.86-1.65-4.67-3.94-6.02-7.11-3.26-7.67-7.09-15.09-10.95-23.16-5.82,2.25-10.38,6.07-14.37,10.55-.86.97-.96,2.87-.94,4.33.14,12.15-.04,24.32.69,36.44,2.53,42.18,14.21,82.41,26.8,122.41,2.45,7.77,4.91,15.54,7.11,23.39,4.37,15.57.67,25.4-11.66,35.09-9.05,7.11-19.33,11.98-29.97,16.16-2.28.89-4.58,1.73-7.28,2.75.57,5.57.97,11.04,1.73,16.45,1.68,12,3.15,24.05,5.47,35.93,1.67,8.52,4.63,16.78,6.93,25.18.75,2.74,2.54,3.97,5.19,4.62,7.44,1.81,13.4,6.24,18.87,11.31,4.26,3.95,5.9,8.72,3.39,14.43-4.12,9.38-8.89,18.4-14.86,26.73-2.18,3.05-3.52,3.23-6.69,1.02-3.74-2.61-7.43-5.3-10.89-8.26-1.54-1.32-2.45-3.37-3.99-5.6-3.23.04-5.98,1.24-8.59,4.75-4.97,6.68-10.77,12.78-16.46,18.89-2.29,2.46-5.08,4.31-8.74,4.9-7.02,1.13-11.32-2.26-14.21-7.95-4.92-9.72-8.15-20.07-10.29-30.72-1.12-5.57,1.06-8.77,6.51-10.96,3.53-1.42,7.76-2.03,10.42-4.4,2.6-2.33,3.31-6.64,5.39-9.71,3.43-5.05,1.54-10.32,1.07-15.45-.81-8.85-2.28-17.64-3.22-26.48-1.26-11.87-2.29-23.76-3.47-36.23-2.6.31-4.79.7-7.01.82-14.61.84-29.28,1.84-43.63-1.95-5.07-1.34-10.08-3.51-14.62-6.16-6.34-3.71-9.01-10.82-12.86-16.63-1.85-2.79-1.64-7.36-1.38-11.06.7-10.21,1.82-20.39,2.95-30.56,2.59-23.17,5.43-46.32,7.88-69.5,1.56-14.7,3.04-29.43,3.76-44.19.77-15.93.83-31.91.78-47.86-.03-8.13-.98-16.25-1.52-24.37-.36-5.29-2.85-9.81-5.33-14.29-2.85-5.16-5.8-10.26-8.9-15.27-5.96-9.64-9.89-20.1-12.6-31.03-1.39-5.6-.36-11.31.75-16.82,2.45-12.18,7.75-23.4,12.47-34.79.8-1.93,1.54-3.93,2.64-5.68,4.27-6.74,3.72-13.99,2.93-21.47-1.12-10.56-2.34-21.18-2.34-31.77,0-7.65,1.93-15.31,3.03-23.23-.94-.58-3-1.18-3.8-2.53-.87-1.48-.9-3.68-.72-5.51.66-6.78,1.63-13.52,2.33-20.29.53-5.09.81-10.21,1.27-15.31.19-2.06.32-4.18.89-6.16,2-6.94,7.8-9.95,14.63-7.57,2.68.93,5.29,2.14,7.82,3.44,4.59,2.36,9.29,4.24,14.5,4.76,4.4.45,7.38,3,8.75,7.14,2.1,6.38,3.36,12.84,1.04,19.52-.43,1.25-.14,2.86.15,4.24.27,1.27.94,2.48,1.52,3.67,3.31,6.82,3.77,13.74,1.3,20.99-1.59,4.66-2.53,9.53-4,14.24-1.13,3.64-.8,7,.4,10.57,2.77,8.25,5.25,16.59,7.81,24.91,1.16,3.77,4.21,5.62,7.42,7.77,2.48-1.9,4.69-4.06,7.3-5.5,9.12-5.04,18.28-10.05,27.63-14.64,4.34-2.13,8.24-4.29,11.08-8.46,2.66-3.9,5.96-7.4,9.24-10.82,10.14-10.56,20.34-21.08,30.7-31.43,2.39-2.39,3.88-4.92,4.79-8.13,1.75-6.18,3.87-12.25,6.11-19.25-3.11-7.02-6.67-15.05-10.77-24.27-4.01,8.44-4.73,16.58-8.04,25.03-3.78-5.95-5.79-11.4-6.67-17.31-.6-4.07.1-7.74,2.2-11.47,2.02-3.59,2.97-7.77,4.56-11.63,2.53-6.12,4.96-12.31,7.9-18.23,1.86-3.75,4.31-7.3,9.74-6.01.92.22,2.39-1.37,3.43-2.32,2.09-1.89,3.83-4.25,6.13-5.81,2.75-1.86,4.37-1.35,6.12,1.44,1.82,2.89,3.55,5.85,4.97,8.95,2.11,4.62.23,8.47-3.26,11.89,3.7,9.39,7.34,18.64,11.1,28.18,2.56-1.83,1.96-3.87,1.98-5.63.07-5.32,2.51-9,7.31-11.18.69-.31,1.34-.75,2.05-.99,5.79-1.9,10.99-4.58,15.49-8.97,3.65-3.57,11.84-3.42,15.99-.66,2.44,1.63,3.11,4.06.98,6.16-1.61,1.59-1.84,3.19-1.83,5.07.03,9.66.08,19.31.16,28.97.01,1.63.18,3.26.36,6.12,1.39-1.72,1.99-2.52,2.64-3.27,2.38-2.74,4.78-5.11,8.88-5.42,1.96-.15,4.05-1.82,5.64-3.28,5.42-4.99,7.23-5.25,13.47-1.37,1.08.67,2.31,1.15,3.53,1.55,7.05,2.29,9.86,6.05,10.03,13.32.27,11.81-.66,23.53-2.45,35.18-.29,1.9-1.21,3.7-2.07,6.24-3.73-4.01-3.2-7.81-2.8-11.6.89,2.24,1.78,4.5,2.68,6.76,1.09-6.17,1.54-12.14,1.94-18.11.4-6.05.78-12.11,1.11-18.17.2-3.62-.76-6.91-3.9-8.96-3.42-2.23-7-4.26-10.66-6.06-4.53-2.22-5.86-2.09-8.54,2.19-2.67,4.25-5.68,6.52-10.53,4.78-1.47,1.3-2.78,2.34-3.94,3.53-2.43,2.48-2.51,4.81.36,6.57,4.12,2.53,6.52,5.96,8.27,10.41,2.17,5.53,6.17,6.27,10.79,2.32,1.66-1.41,2.76-3.49,3.81-4.86,3.58,1.26,3.95,3.1,4.06,5.36.12,2.4.58,4.81,1.15,7.14.48,1.97,1.34,3.85,2.03,5.77l.04.04h0ZM507.15,300.66c-3.26,1.48-6.41,3.32-9.8,4.37-4.73,1.47-6.53,4.63-6.75,9.55,6.65,4.5,6.51,12.5,9.19,19.67,4.6-5.83,5.21-12.42,6.16-18.89.68-4.67,1.36-9.34,2.04-14.01-.05-.48-.1-.96-.15-1.45-.23.25-.46.51-.69.76h0ZM388.94,710.39c-.65.85-1.31,1.71-1.96,2.56.73-4.96,2.48-9.42,5.8-13,1.01-1.09,2.87-1.76,4.42-1.91,6.3-.62,11.33,2.58,14.75,7.16,3.72,4.98,9.11,7.09,14.33,11.16,5.17-8.55,10.32-16.67,15.07-25.03,3.43-6.05-1.89-14.45-9.33-15.22-.08,0-.2.3-.3.46l.1.09c1.51-1.43-.03-1.88-.87-2.33-4.16-2.26-8.29-4.61-12.58-6.59-3.06-1.41-4.61-3.7-5.56-6.75-9.27-30.01-15.15-60.62-16.31-92.06-.19-5.21-.03-10.43-.03-15.89-12.78-.16-24.37,2.06-35.74,5.33,0,.85-.11,1.26.02,1.57,5.68,14.04,7.78,28.83,9.23,43.75,1.12,11.5,2.16,23.01,3.4,34.49.71,6.59,2.22,13.12,2.56,19.71.65,12.67-4.23,22.52-16.11,28.2-1.54.74-3.07,1.5-4.59,2.28-2.5,1.29-3.5,3.37-3,6.12,2.16,11.82,5.86,23.14,11.35,33.83.66,1.28,2.54,2.73,3.84,2.72,3.06-.04,6.45-.07,8.76-2.66,4.92-5.51,9.73-11.11,14.58-16.68,1.05-1.06,2.21-2.03,3.13-3.2,2.64-3.35,5.76-5.35,10.24-4.37.44.1.98-.27,2.01-.58-1.25-.84-2.05-1.53-2.97-1.99-5.28-2.62-7.56-2.02-10.86,2.95-1.25,1.88-2.27,3.91-3.4,5.86l.02.02h0ZM300.87,478.96c-.23.31-.25.63-.07.97-.81,6.39-1.79,12.77-2.38,19.18-1.6,17.19-3.07,34.39-4.53,51.59-.36,4.24-.45,8.51-.68,13.18,1-.44,1.58-.53,1.93-.86,7.67-7.31,16.75-12.36,26.31-16.7,17.23-7.82,35.36-12.61,53.92-15.79,12.94-2.22,25.99-3.2,39.16-2.46,8.51.48,16.8,2.04,25.03,4.15,1.99.93,3.97,1.85,6.91,3.23-.67-2.92-1.02-4.7-1.49-6.46-5.31-19.76-12.4-38.99-17.34-58.88-7.42-29.82-14.21-59.7-15.69-90.52.38-10.79.8-21.57,1.11-32.36.08-2.9.84-5.11,3.03-7.37,6.48-6.7,14.11-11.6,22.59-15.04,16.68-6.77,33.49-13.23,50.33-19.58,7.37-2.78,13.93-6.88,20.18-11.5,2.04-1.51,4.04-3.71,4.91-6.03,4.39-11.69,9.04-23.35,12.34-35.36,2.55-9.3,6.43-17.76,11.24-25.95.83-1.41,1.52-2.9,2.54-4.86-2.03-.76-3.61-1.92-5.08-1.79-4.65.4-6.48-2.01-6.79-6.13-10.71,1.87-16.63,8.17-18.49,19.41,2.4.5,4.8.99,7.2,1.49-2.1.76-4.2,1.51-6.29,2.27-2.98-1.29-4.16,1.26-5.5,2.86-6.26,7.48-10.95,15.84-13.67,25.63,1.99,2.17,4.11,4.48,6.2,6.76-4,.23-6.7-3.19-10.18-4.08-3.51-.9-7.46.05-11.21-.15-3.4-.18-6.76-.96-10.16-1.22-12.2-.92-24.19.79-36.21,2.73-16.52,2.66-31.85,8.91-47.49,14.38-7.51,2.63-12.16,7.28-14.87,14.4-.63-.09-1.25-.19-1.88-.28.79-1.5,1.6-2.98,2.36-4.49,3.1-6.19,7.95-10.66,14.32-13.03,12.39-4.61,24.86-9.03,37.42-13.13,11.46-3.74,23.23-5.34,35.37-4.2,8.98.85,17.9,2.77,27.03,1.95,1.99-.18,4.04.34,6.07.54,2.09-4.71,3.67-9.16,5.97-13.2,2.8-4.91,6.26-9.44,9.32-14.21,1.08-1.68,2.15-3.49,2.67-5.4,3.23-11.78,10.8-19.38,22.65-21.52,7.68-1.39,12.28-4.73,15.09-12,1.79-4.65,3.73-8.96,3.38-14.12-1.08-15.98.56-31.87,1.79-47.77.31-4.02.05-8.07.05-12.71-1.73,1.37-2.83,2.38-4.06,3.18-5.16,3.31-9.22,2.3-12.36-3.08-.86-1.47-1.45-3.12-2.38-4.54-1.54-2.33-3.27-4.55-6.81-4.72-.88,3.97-1.73,7.62-2.5,11.28-2.08,9.92-1.45,19.21,6.33,26.82.14.14-.04.62-.09,1.1-1.63-.89-3.19-1.75-5.44-2.98-1.85,11.42-3.52,22.21-5.37,32.97-.57,3.29.75,5.47,3.25,7.18,1.39.94,2.92,1.67,4.49,2.56-2.22-.33-4.39-.3-6.29-1.02-1.77-.68-3.24-2.15-4.79-3.23-4.59,3.65-9.04,7.47-13.77,10.88-9.08,6.54-18.35,12.81-27.47,19.29-1.46,1.04-2.53,2.61-3.64,3.8,3.62,4.83,6.95,9.17,10.15,13.6,3.11,4.29,6.73,8.32,8.27,14.9-9.62-11.79-18.46-22.61-26.79-32.83.47.09,1.86.83,2.65.42,5.34-2.8,11.25-4.39,15.99-8.55,4.4-3.85,9.59-6.8,14.38-10.22,4.46-3.18,8.88-6.43,13.28-9.7,1.22-.91,2.14-2.42,3.48-2.92,3.83-1.43,4.8-4.37,4.98-7.96.05-1.13.14-2.27.34-3.38,1.71-9.29,3.49-18.57,5.15-27.87.21-1.2.04-2.54-.24-3.74-1.35-5.71-3.33-11.33-1.58-17.33.25-.87.22-1.92.01-2.82-3.32-14.52-1.87-29.04-.11-43.57.17-1.38-.12-2.82-.21-4.55-2.9,2.24-5.16,4.57-7.89,5.95-4.38,2.22-9.03,3.92-13.65,5.63-4.13,1.53-6.02,4.72-6.16,8.71-.16,4.82.38,9.66.61,14.48h6.62c.03.15.06.29.09.44-2.29.62-4.58,1.25-7.2,1.96-4.14,15.68-5.18,31.61-5.22,47.47,3.57,1.13,6.52,2.06,10.22,3.22-3.81,1.18-7.12-1.75-10,1.27,1.14.76,2.08,1.39,2.03,1.35-1.68.19-4.67-.16-6.98.93-4.79,2.24-9.41,4.98-13.77,7.99-9.62,6.65-19.03,13.59-28.76,20.58,2.79,2.57,5.49,5.05,8.37,7.69-3.98-1.62-7.59-3.01-11.11-4.57-1.16-.52-2.78-1.31-3.06-2.29-.81-2.89-3.26-3.51-5.36-4.62-4.84-2.56-9.73-5.02-14.6-7.52.2-.41.4-.82.6-1.24,6.53,2.95,13.07,5.9,19.54,8.83,2.92-1.34,5.88-2.62,8.77-4.04,10.92-5.37,20.59-12.09,25.48-23.9,1.01-2.45,2.03-4.91,2.95-7.4,4.56-12.27,9.07-24.57,13.64-36.84,1.16-3.11,1.64-6.1-.37-9.14-1.64,1.33-3.04,2.45-5.46,4.4.32-4.72.43-8.24.83-11.72.37-3.27.15-6.3-1.14-9.44-3.68-8.94-7.08-18-10.55-27.02-.71-1.86-1.23-3.8-1.8-5.61-6.06.75-9.68,3.79-12.43,8.65-1.71,3.02-4.42,5.6-7.08,7.92-1.68,1.47-2.11,2.78-1.88,4.87.98,9.07,5.1,16.99,8.86,25.06.94,2.02,2.47,2.86,4.53,2.74,1.92-.11,3.83-.45,6.12-.74-2.58,1.43-4.92,3.81-7.11,3.68-3.75-.22-4.7,1.96-5.39,4.37-1.98,6.89-3.63,13.87-5.21,20.05,2.28,1.78,5.22,3.27,5.04,4.06-.89,3.97,2.72,4.11,3.89,6.54-3.76-2.34-7.51-4.68-12-7.47-3.28,2.75-7.12,5.53-10.43,8.85-8.86,8.9-17.5,18.02-26.2,27.07-1.97,2.05-3.73,4.31-5.79,6.25-2.31,2.18-4.6,4.56-7.33,6.05-6.16,3.35-12.66,6.06-18.9,9.29-6.38,3.3-12.67,6.8-18.4,11.61,4.63,5.2,9.44,9.69,12.1,16.06,2.56,6.12,7.2,11.46,6.05,19.7-1.9-8.82-5.96-15.68-10.92-21.88-5.43-6.81-11.48-13.11-17.19-19.7-.7-.8-1.29-1.94-1.39-2.97-.81-8.27-4.54-15.63-7.48-23.16-2.08-5.33-2.07-10.33-.89-15.55.75-3.33,1.65-6.69,3-9.81,4.38-10.11.09-19.18-2.59-28.41-7.37-.28-7.3-.25-10.15,5.95-1.16,2.51-1.91,6.21-5.17,6.17-3.7-.05-4.18-3.97-5.03-6.78-1.59-5.24-3.83-10.1-7.05-14.84-2.86,2.51-3.66,5.63-4.58,8.7-1.08,3.62-1.5,7.64-3.41,10.75-2.98,4.86-4.35,10.05-5.16,15.46-1.02,6.74-2.38,13.54-2.33,20.3.06,9.46,1.37,18.91,1.99,28.38.68,10.33.06,20.32-4.99,29.9-3.97,7.52-6.73,15.69-9.82,23.65-5.59,14.4-5.22,28.65,1.91,42.45,3.66,7.08,7.68,14,11.75,20.86,4.38,7.37,8.96,14.67,9.88,23.42,1,9.42,1.92,18.88,2.33,28.34.59,13.29.68,26.59.98,39.89-.09.54-.17,1.08-.26,1.62-.09,2.08-.17,4.16-.26,6.25-.22,4.92-.34,9.85-.68,14.76-.52,7.51-1.19,15-1.79,22.5-.37.83-1,1.63-1.08,2.48-.62,6.42-1.12,12.86-1.67,19.29-.09,1.1-.17,2.2-.26,3.31l-.07-.03h0ZM364.44,587.76c-1.74-7.53-3.22-13.97-4.71-20.42-4,.26-7.71.53-8.74-4.26,2.84-4.63,4.29-6.09,9.63-7.45,6.97-1.78,14.02-3.56,21.14-4.4,6.17-.73,12.51-.4,18.73.01,1.97.13,4.84,1.68,5.41,3.27.51,1.41-1.5,3.81-2.55,5.69-.62,1.11-2.21,2.03-2.24,3.07-.12,5.01.14,10.03.28,15.63,3.18-1.12,5.71-1.86,8.11-2.88,11.23-4.8,22.24-10.03,30.47-19.45,2.2-2.52,4.08-5.56,5.24-8.69,1.83-4.95-.68-9.25-5.75-10.94-2.34-.78-4.71-1.49-7.12-2.01-15.4-3.38-30.92-3.05-46.49-1.44-20.54,2.12-40.43,6.87-59.44,14.97-9.81,4.18-19.33,8.97-27.17,16.43-4.59,4.37-4.68,7.97-.44,12.67,3.42,3.8,7.88,5.88,12.62,7.46,10.23,3.42,20.89,4.01,31.51,4.15,6.97.09,13.94-.86,21.51-1.39v-.02h0ZM330.44,102.74c-4.25-.78-7.43-1.22-10.52-2.02-.97-.25-2.52-1.67-2.38-2.15.69-2.48-.94-2.96-2.53-3.65-2.61-1.13-5.24-2.23-7.81-3.44-6.69-3.15-12.7,1.65-12.94,8.51-.32,9.24-1.96,18.44-2.56,27.68-.32,4.93-2.31,9.85-.7,16.07,2.16-2.28,3.99-3.66,5.06-5.49,1.42-2.41,2.41-5.12,3.3-7.8,1.19-3.58,2.07-7.26,3.15-10.88.82-2.77,2.53-4.78,5.54-4.97,2.79-.18,4.01,2.19,4.85,4.19,1.77,4.17,3.15,8.51,4.58,12.82.63,1.91.67,4.12,3.77,5.11,1.39-2.89,2.63-5.78,4.17-8.51.78-1.39,1.85-3.1,3.19-3.61,2.97-1.13,6.19-1.58,9.27-2.3,1.15-6.33.09-12.04-2.27-17.55-2.02-4.72-4.7-5.96-10.46-4.85,1.61.86,3.02,1.62,5.3,2.84h0ZM431.39,107.32c1.7-6.8,3.41-13.6,5.11-20.4.87-3.49,2.62-6.29,5.99-7.87,4.16-1.96,6.87-5.21,8.72-9.38,1.79-4.03,4.87-6.61,9.28-7.75,2.12-.54,4.38-1.51,5.96-2.96,1.39-1.27,3.08-3.9,2.61-5.19-1.71-4.67-3.04-9.74-6.86-13.25-4.46,1.37-6.75,3.85-6.08,8.36,2.24.9,4.3,1.73,6.37,2.56-4.43.46-8.58-1.24-12.68.85-.25.13-.73-.13-1.08-.27-2.74-1.1-4.35.35-5.55,2.54-2.28,4.16-4.77,8.23-6.68,12.55-2.46,5.55-3.85,11.64-6.79,16.89-4.6,8.21-2.23,15.56,1.67,23.31h0ZM482.41,104.65c.19,0,.39.02.58.02,1.64-3.8,3.25-7.62,4.92-11.4,1.61-3.65,4.21-6.08,8.15-7.31,4.32-1.35,8.49-3.14,12.72-4.79,2.57-1,4.62-2.54,5.4-5.4.58-2.14,1.29-4.25,1.98-6.51,1.2-.29,2.57-.38,3.69-.96,1.59-.83,1.51-2.7.03-3.67-4.3-2.82-12.59-1.62-16.3,2.16-1.96,2-4.05,3.99-6.4,5.47-2.83,1.79-5.92,3.25-9.05,4.46-3.41,1.32-5.49,3.72-5.63,7.14-.28,6.92-.08,13.85-.08,20.78h-.01ZM530.44,215.05v1.8c1.66.44,3.36.79,4.99,1.34,2.43.83,4.81,1.81,7.21,2.72.12,4.68,3.87,6.1,7.03,8.29,2.26,1.57,4.23,3.79,5.8,6.09,1.97,2.89,3.39,6.16,5.05,9.26.46-11.81-2.17-22.96-5.59-34.27-8.68.92-17.52-1.76-24.5,4.76h.01ZM489.01,102.53c-.98,0-1.26-.07-1.3,0-1.82,3.04-3.28,5.84-2.33,9.9,1.26,5.34-.6,10.71-1.99,15.99-2.23,8.43-4.01,16.95-7.97,24.88-2.78,5.57-4.62,11.62-7.03,17.87,5.39-2.37,10.01-4.4,14.43-6.35-.18-3-.39-5.61-.49-8.22-.55-14.33,3.94-27.98,5.63-42.01.48-3.99.71-8.01,1.06-12.06h-.01ZM472.27,318.61c2.77-1.1,4.86-3.04,6.27-5.83-5.39,1.86-10.1,3.49-14.96,5.17,2.64,3.35,4.99,6.33,7.93,10.06.32-3.88.54-6.65.77-9.39h0ZM359.27,565.59c-1.04-2.64-1.59-4.03-2.46-6.27-1.39,1.98-2.25,3.21-3.53,5.03,2.14.44,3.45.71,5.99,1.24ZM401.23,560.94c1.57-2.79,2.43-4.31,3.44-6.11-1.69-.58-2.85-.98-4.82-1.66.46,2.61.81,4.54,1.38,7.77h0ZM318.8,96.75c-.19.39-.39.77-.58,1.16,1.52,2.44,3.84,2.28,6.56.93-1.99-.7-3.98-1.39-5.97-2.09,0,0-.01,0-.01,0Z"/>
    <path class="st8" d="M360.59,515.99c-1.3-6.57,2.27-14.08,7.89-17.08,4.86-2.6,9.46-5.32,12.06-10.37.83-1.62,3.06-2.6,4.64-3.87.53.24,1.08.46,1.62.7,0,2.95.17,5.93-.05,8.87-.25,3.28-.94,6.53-1.31,9.81-.53,4.79-2.62,7.68-7.21,7.65-5.56-.04-10.35,1.24-14.91,4.01-.55.33-1.44.16-2.74.28h.01,0Z"/>
  </g>
</svg>