<?xml version="1.0" encoding="UTF-8"?>
<svg id="Layer_3" data-name="Layer 3" xmlns="http://www.w3.org/2000/svg" width="1414.44" height="1132.67" viewBox="0 0 1414.44 1132.67">
  <defs>
    <style>
      .cls-1 {
        fill: #f6e751;
      }

      .cls-2 {
        fill: #22222b;
      }

      .cls-3 {
        fill: #ada8cb;
      }

      .cls-4 {
        fill: #74e2f9;
      }

      .cls-5 {
        fill: #272830;
      }

      .cls-6 {
        fill: #cfc9f2;
      }
    </style>
  </defs>
  <path class="cls-5" d="M1081.11,736.84c-12.56.45-23.45.57-36.14,0,2.2-2.97,7.12,0,8.78,0h18.59c1.66,0,6.57-2.97,8.78,0Z"/>
  <path class="cls-5" d="M1123.45,733.75c-12.8,3.28-26.21,2.56-39.24,3.1l17.05-2.06c7.18-.41,15.1-.39,22.19-1.04Z"/>
  <path class="cls-5" d="M1296.94,397.09c-.07-3.54-.57-3.68,0-8.26,1.91,1.87,1.52,6.28,0,8.26Z"/>
  <path class="cls-5" d="M1233.95,752.33c-2.73,2.31-8.66,3.2-11.36,1.03,3.31,0,8.16-.4,11.36-1.03Z"/>
  <path class="cls-5" d="M1259.77,718.26c-.74,2.54-.91,5.33-3.1,7.23.65-2.39-.36-8.03,3.1-7.23Z"/>
  <path class="cls-5" d="M930.34,732.71c5.6-.52,9.56-1.49,14.46-4.13-2.04,3.12-8.56,5.16-11.97,5.22-1.48.02-2.26-1.06-2.49-1.09Z"/>
  <path class="cls-5" d="M1296.94,309.31c-1.54-.33-1.61-3.7,0-4.13.06,1.63-.04,3.21,0,4.13Z"/>
  <path class="cls-5" d="M1286.62,105.87h-2.06c-.66-1.51.98-2.73,1.03-3.1,1.36.5.97,1.97,1.03,3.1Z"/>
  <path class="cls-5" d="M1295.91,286.59c-1.55-.14-1.55-2.95,0-3.1l.96,1.55-.96,1.55Z"/>
  <path class="cls-5" d="M1279.39,618.08c-.04,1.13.31,2.6-1.03,3.1-.07-.89-3.17-3.61,1.03-3.1Z"/>
  <path class="cls-5" d="M1263.9,698.63c-.04,1.13.31,2.6-1.03,3.1-.06-.88-3.17-3.62,1.03-3.1Z"/>
  <path class="cls-5" d="M1009.85,770.92c-2,.51-2.39.88-5.16,1.03.88-1.67,3.51-.97,5.16-1.03Z"/>
  <path class="cls-5" d="M1278.36,626.35c-.2,1.81-1.02,1.95-1.03,2.07l-1.03-2.06h2.06Z"/>
  <path class="cls-5" d="M1262.86,705.86c-.07,1.82-1.01,1.95-1.03,2.07l-1.03-2.06h2.06Z"/>
  <path class="cls-5" d="M1261.83,711.03c-.33,1.63-1.01,1.95-1.03,2.07l-1.03-2.06h2.06Z"/>
  <path class="cls-5" d="M999.53,771.96c-2.36-.16-3.12-.84-4.13-1.03l4.13,1.03Z"/>
  <path class="cls-5" d="M1221.56,753.37c-2.21-.14-2.58-.9-3.1-1.03l3.1,1.03Z"/>
  <path class="cls-5" d="M994.36,770.92c-2.64-.6-5.32-.58-7.23-3.1,2.35.97,5.26,1.23,7.23,3.1Z"/>
  <path class="cls-5" d="M1253.57,731.68l2.07-3.1c-.85,2.51-1.89,2.73-2.07,3.1Z"/>
  <path class="cls-5" d="M1217.43,752.33c-2.04-.66-4.2-.68-5.16-3.1,1.76.95,3.85,1.41,5.16,3.1Z"/>
  <path class="cls-5" d="M1234.98,752.33l3.1-2.07c-.62.35-.2,1.42-3.1,2.07Z"/>
  <path class="cls-5" d="M1015.02,768.86l7.23-8.26c-2.04,3.84-3.67,5.71-7.23,8.26Z"/>
  <path class="cls-5" d="M1010.89,770.92l3.1-2.07c-.86.53-.36,1.14-3.1,2.07Z"/>
  <path class="cls-5" d="M1297.98,352.68l2.07-2.07c-.62,1.38-2.02,1.93-2.07,2.07Z"/>
  <path class="cls-5" d="M1250.47,736.84l2.07-2.07c-.75,1.36-1.85,1.74-2.07,2.07Z"/>
  <path class="cls-5" d="M1248.41,739.94l2.07-2.07c-.84,1.23-1.73,1.62-2.07,2.07Z"/>
  <path class="cls-5" d="M1239.11,750.27l9.29-9.29c-2.68,3.4-5.72,6.81-9.29,9.29Z"/>
  <path class="cls-5" d="M973.71,755.43c-.26-.38-1.28-.75-2.07-2.07l2.07,2.07Z"/>
  <g>
    <path class="cls-5" d="M1293.85,253.54c-2.8.02-2.89-1.22-3.15-3.56-.66-5.92-.82-15.41-1.02-21.7-.62-19.12.58-38.65,1.08-57.36,1.55,1.62,1.02,3.68,1.06,5.64.59,25.67.55,51.42,2.04,76.98Z"/>
    <path class="cls-5" d="M1293.85,258.71c.33,5.81,1.69,12.4,2.07,18.59-4.98-.38-5.88-11.91-6.19-16.04s1.2-2.31,4.12-2.55Z"/>
    <path class="cls-5" d="M1131.71,1.57c-38.15-1.05-68.34,2.05-105.33,10.33,31.93-10.83,66.14-11.79,99.67-11.38,1.75.02,4.59-.66,5.67,1.05Z"/>
    <path class="cls-5" d="M961.32,722.39l-10.33-2.07c1.64-5.94,9.26-2.99,10.33,2.07Z"/>
    <path class="cls-5" d="M1289.71,157.5c-.67-5.48-.17-5.88,0-10.33,1.64,2.56,1.83,8.05,0,10.33Z"/>
    <path class="cls-5" d="M1218.46,19.12c-17.75-7.21-36.39-11.61-55.4-14.31l-30.32-3.24c30.32.93,58.07,5,85.71,17.56Z"/>
    <path class="cls-5" d="M1042.9,736.84c-4.64-.25-10.5,1.05-14.46-1.03.36-.39.09-.97,1.4-.96,3.34.03,10.03,1.1,13.05,1.99Z"/>
    <path class="cls-5" d="M950.99,721.35c-1.47,3.67-1.36,4.87-5.16,7.23,1.28-3.06.92-7.02,5.16-7.23Z"/>
    <path class="cls-5" d="M1289.71,138.91h-2.06c-1.06-2.43.97-6.26,1.03-7.23,1.71,1.98.99,4.77,1.03,7.23Z"/>
    <path class="cls-5" d="M1293.85,450.79c-.05,1.82.46,3.65-1.03,5.16-.09-1.25-3.41-5.86,1.03-5.16Z"/>
    <path class="cls-5" d="M1295.91,414.64c-2.72-1.49-.2-4.17,0-5.16,2.75,1.36.08,4.42,0,5.16Z"/>
    <path class="cls-5" d="M1292.81,463.18c-.06,2.54-.96,4.19-1.03,5.16-1.8-1.75-1.97-6.17,1.03-5.16Z"/>
    <path class="cls-5" d="M1285.58,542.7c-2.72-1.49-.21-4.16,0-5.16,2.74,1.38.09,4.37,0,5.16Z"/>
    <path class="cls-5" d="M1288.68,124.46h-2.06c-1.01-1.92,1.01-4.89,1.03-5.16,1.5,1.51.98,3.34,1.03,5.16Z"/>
    <path class="cls-5" d="M1294.88,430.13c-1.74-.59-1.29-3.14,0-4.13-.02.28.13,2.27,0,4.13Z"/>
    <path class="cls-5" d="M1287.65,114.13h-2.06c-.98-1.86,1-3.92,1.03-4.13,1.3,1.18.96,2.62,1.03,4.13Z"/>
    <path class="cls-5" d="M1293.85,443.56c-1.72-.59-1.35-3.17,0-4.13-.03.42.11,2.35,0,4.13Z"/>
    <path class="cls-5" d="M1284.55,557.15c-1.74-.59-1.29-3.14,0-4.13,0,.1,1.23-.11,1.09,1.62l-1.09,2.51Z"/>
    <path class="cls-5" d="M1264.93,52.17c-3.25-.84-5.83-5.54-8.26-8.26,1.84,1.93,5.63,4.06,7.21,5.75,1.03,1.1.85,2.25,1.05,2.52Z"/>
    <path class="cls-5" d="M1286.62,528.24c-1.61-.36-1.15-2.35,0-3.1l1.01,1.49-1.01,1.61Z"/>
    <path class="cls-5" d="M1280.42,603.63c-1.64-.34-1.21-2.37,0-3.1-.02.71.13,1.33,0,3.1Z"/>
    <path class="cls-5" d="M1282.49,590.2c-.07,1.21-.05,2.21-1.03,3.1-.03-.29-3.32-3.53,1.03-3.1Z"/>
    <path class="cls-5" d="M1280.42,609.82c-.04,1.13.31,2.6-1.03,3.1-.07-.9-3.17-3.61,1.03-3.1Z"/>
    <path class="cls-5" d="M1283.52,570.58c-1.61-.36-1.15-2.35,0-3.1l1.01,1.49-1.01,1.61Z"/>
    <path class="cls-5" d="M1290.75,479.7c-1.64-.34-1.21-2.37,0-3.1-.02.18,2.29,1.33,0,3.1Z"/>
    <path class="cls-5" d="M1282.49,582.97c-1.61-.36-1.15-2.35,0-3.1l1.01,1.49-1.01,1.61Z"/>
    <path class="cls-5" d="M904.52,728.58c1.66-.83,10.44-6.82,11.33-6.18,1.65,5.73,7.67,7.78,12.42,10.31-6.62-1.49-8.38-3.59-13.12-8.12l-10.63,3.99Z"/>
    <path class="cls-5" d="M1275.26,642.87c-.31,1.67-1.01,1.95-1.03,2.07l-1.03-2.06h2.06Z"/>
    <path class="cls-5" d="M1274.22,648.03c-.34,1.62-1.01,1.95-1.03,2.07l-1.03-2.06h2.06Z"/>
    <path class="cls-5" d="M1272.16,657.33c-.37,1.53-1,1.95-1.03,2.07l-1.03-2.06h2.06Z"/>
    <path class="cls-5" d="M1276.29,637.7c-.3,1.73-1.01,1.95-1.03,2.07l-1.03-2.06h2.06Z"/>
    <path class="cls-5" d="M1271.13,661.46c-.38,1.41-1,1.95-1.03,2.07l-1.03-2.06h2.06Z"/>
    <path class="cls-5" d="M1269.06,668.69c-.37,1.31-1,1.95-1.03,2.07l-1.03-2.06h2.06Z"/>
    <path class="cls-5" d="M1263.9,691.41h-2.06s1.03-2.07,1.03-2.07c0,.12.99.23,1.03,2.07Z"/>
    <path class="cls-5" d="M1025.35,11.89l-16.52,5.16c4.97-3.04,10.96-3.91,16.52-5.16Z"/>
    <path class="cls-5" d="M1265.96,54.23c1.05.97.47-1.57,2.07,2.07-1.98.35-2.4-.1-2.07-2.07Z"/>
    <path class="cls-5" d="M1289.71,491.06l-.88-.65.88-1.42c1.36.04.98,1.44,0,2.07Z"/>
    <path class="cls-5" d="M1288.68,502.42l-.91-.65.91-1.41c1.37.05.98,1.43,0,2.07Z"/>
    <path class="cls-5" d="M1287.65,514.81l-.91-.65.91-1.41c1.37.05.98,1.43,0,2.07Z"/>
    <path class="cls-5" d="M1027.41,746.14c-.29,1.71-1.01,1.95-1.03,2.07l-1.03-2.06h2.06Z"/>
    <path class="cls-5" d="M1285.58,99.67h-2.06s1.03-2.07,1.03-2.07c.02.11.83.28,1.03,2.07Z"/>
    <path class="cls-5" d="M1004.69,18.09c-10.01,4.43-20.02,8.8-29.95,13.43,8.39-6.47,19.9-10.2,29.95-13.43Z"/>
    <path class="cls-5" d="M1007.79,17.06l-2.07,1.03c.11-.03.76-.65,2.07-1.03Z"/>
    <path class="cls-5" d="M1224.66,22.22l-4.13-2.07c1.46.69,2.72,1.36,4.13,2.07Z"/>
    <path class="cls-5" d="M1231.88,26.35c-1.81-.83-3.83-1.5-5.16-3.1,1.6.82,4.35.48,5.16,3.1Z"/>
    <path class="cls-5" d="M1237.05,29.45c-1.6-.76-3.36-1.25-4.13-3.1,1.61.73,3.35,1.27,4.13,3.1Z"/>
    <path class="cls-5" d="M1246.34,35.64c-2.79-1.79-6.2-3.58-8.26-6.2,2.96,1.51,6.57,3.27,8.26,6.2Z"/>
    <path class="cls-5" d="M969.58,34.61c.78-1.83,2.52-2.36,4.13-3.1-.75,1.9-2.57,2.27-4.13,3.1Z"/>
    <path class="cls-5" d="M1273.19,64.56c-1.91-.74-2.25-2.58-3.1-4.13,1.89.75,2.29,2.55,3.1,4.13Z"/>
    <path class="cls-5" d="M922.08,72.82c1.86-1.84,2.99-4.46,6.2-5.16-1.98,1.87-3.83,3.76-6.2,5.16Z"/>
    <path class="cls-5" d="M1277.32,73.85l-2.07-4.13c.57,1.28,1.31,2.18,2.07,4.13Z"/>
    <path class="cls-5" d="M908.65,85.21c3.42-4.46,7.55-8.5,12.39-11.36-4.03,3.89-8.37,7.49-12.39,11.36Z"/>
    <path class="cls-5" d="M884.9,112.06c1.38-2.24,2.73-4.92,5.16-6.2-1.51,2.21-2.6,4.92-5.16,6.2Z"/>
    <path class="cls-5" d="M879.74,120.33c.83-1.56,1.19-3.39,3.1-4.13-.85,1.54-1.18,3.39-3.1,4.13Z"/>
    <path class="cls-5" d="M871.47,137.88c.33-.79.77-1.44,1.03-2.07l-1.03,2.07Z"/>
    <path class="cls-5" d="M986.1,767.82c-3.28-1.43-3.19-2.46-5.16-4.13l5.16,4.13Z"/>
    <path class="cls-5" d="M890.06,104.83c1.41-2.07,2.93-3.93,5.16-5.16-1.49,2-2.87,3.98-5.16,5.16Z"/>
    <path class="cls-5" d="M1270.09,59.4l-2.07-2.07c.06.13,1.39.67,2.07,2.07Z"/>
    <path class="cls-5" d="M1250.47,38.74l-3.1-3.1c1.72,1.15,2.42,2.61,3.1,3.1Z"/>
    <path class="cls-5" d="M1254.6,41.84l-3.1-3.1c1.65,1.26,1.97,2,3.1,3.1Z"/>
    <path class="cls-5" d="M1211.23,749.24c-1.87-1.08-1.94-1.66-3.1-3.1l3.1,3.1Z"/>
    <path class="cls-5" d="M976.81,759.56c-.93-1.04-1.85-1.4-3.1-3.1l3.1,3.1Z"/>
    <path class="cls-5" d="M882.83,115.16c.75-1.37,1.92-1.82,2.07-2.07l-2.07,2.07Z"/>
    <path class="cls-5" d="M932.4,728.58c-.2.08-.48,1.07-1.55,1.1-1.13.34-1.2-.78-1.54-1.1h3.1Z"/>
    <g>
      <path class="cls-3" d="M959.26,687.27c-7.93.79-14.39,8.08-21.38,12.19-44.42,26.12-125.07,52.25-176.4,54.92-63.49,3.31-82.75-11.31-102.76-69.68-22.7-66.22-33.29-168.24-34.07-238.56-.46-41.44,7.84-78.48,50.65-93.94,52.61-19,120.91-30.16,176.36-43.6,18.53-4.49,44.85-14.17,62.8-15.75,7.65-.67,7.81,5.7,7.67,11.84-.72,31.65-5.01,63.11-4.23,95.01.97,40.17,5.03,80.88,10.54,120.61,7.78,56.08,18.54,111.75,30.81,166.95ZM696.93,394c-2.14,2.75-8.73,5.49-10.2,7.84-.64,1.02-5.9,18.59-6.59,21.29-3.94,15.32-5.77,40.37-1.26,55.54,4.27,14.37,18.74,15.73,31.97,16.57,52.49,3.31,107.24-18.71,156.79-31.21,1.29-.32,2.96-2.63,4.81-3.49,9.73-4.49,22.9-8.28,27.43-19.04,5.02-11.93,2.36-45.92-1-58.89-1.77-6.84-4.38-9.72-11.63-11.09-14.81-2.8-39.95-1.21-55.51-.23-45.34,2.86-91.02,11.23-134.21,24.85l-.58-2.14ZM900.39,537.53c-.86-6.65,5.46-8.84-8.65-8.13-58.55,12.77-117.96,22.45-176.21,36.52-3.7.89-13.23,2.76-15.53,5.13-1.66,1.71-1.72,3.03,1.08,2.63-.94.41-1.78,1.1-2.88,1.24-.62.78-.15,1.98-.22,2.89-6.76-1.66-7.49,11.35-8.13,16.13-4.16,31.04-2.59,73.66,23.65,94.86,49.94,12.46,110.59-3.99,156.28-25.42,5.19-2.44,15.17-9.57,19.2-10.75,4.46-1.31,8.2,1.11,11.44-4.05s5.59-25.34,6.16-32.05c1.93-22.88.29-49.95-3.75-72.64-.41-2.32-2.27-5.08-2.43-6.35Z"/>
      <path class="cls-3" d="M939.63,713.09c.51.13,7.53,3.85,6.2,5.16-4.36,3.8-7.94,8.14-13.43,10.33h-3.1c-1.55-1.44-7.05-7.3-5.76-9.31,1.22-1.9,13.3-6.88,16.09-6.18Z"/>
      <path class="cls-5" d="M946.86,707.93c2.66.32,4.71,3.26,6.2,4.13-4.39-1.24-3.39,3.39-5.09,5.55-.88,1.11-1.98.52-2.14.65,1.34-1.31-5.69-5.04-6.2-5.16-.1-4.05,5.16-3.84,7.23-5.16Z"/>
      <path class="cls-5" d="M696.93,394l.58,2.14c43.19-13.63,88.88-21.99,134.21-24.85,15.56-.98,40.7-2.57,55.51.23,7.25,1.37,9.86,4.24,11.63,11.09,3.36,12.97,6.02,46.96,1,58.89-4.53,10.76-17.7,14.55-27.43,19.04-1.85.85-3.52,3.16-4.81,3.49-49.55,12.51-104.3,34.52-156.79,31.21-13.23-.83-27.7-2.2-31.97-16.57-4.51-15.17-2.68-40.22,1.26-55.54.7-2.7,5.96-20.27,6.59-21.29,1.47-2.35,8.07-5.1,10.2-7.84ZM689.72,423.94c-4.13-.15-4.14,9.8-4.13,13.43,0,1.72-.01,3.45,0,5.16,11.57-1.9,23.85-1.14,35.61-2.07,24.65-1.96,49.78-5.98,74.04-10.64,32.63-6.26,68.32-14.02,96.76-31.36-.94-6.99-.94-20.65-9.11-22.61-45.52-3.18-92.16,2.4-136.58,12.27-11.46,2.55-39.75,8.59-48.72,14.27-3.93,2.49-7.42,16.67-7.88,21.55ZM872.51,453.89c4.19.12,4.53-.06,8.58-2.26,18.55-10.07,13.5-26.18,13.1-44.21l-26.81,9.33c-.62.86,1.52,5.67,2.04,7.19h-6.2c-.29-1.12-.93-5.18-1.57-5.18l-25.28,7.26c.75,3.06,2.25,5.75,3.02,8.84.86,3.49,3.18,12.44,3.18,15.41v14.97l23.14-7.11c1.36-.94.36-3,.61-4.25,2.06.04,4.14-.06,6.2,0ZM831.2,428.06l-29.95,5.18c2.9,13.92,5.97,28.02,6.2,42.34l29.85-8.37-6.1-39.15ZM803.32,475.57c-5.17-13.2-10.37-26.75-7.24-41.31l-26.9,5.8c.25,14.67,1.15,30.3,8.32,43.33l25.82-5.75c2.67-1.02.05-1.93,0-2.07ZM772.34,482.8c-8.39-9.48-9.76-22.52-9.34-34.64.08-2.43,2.72-7.79-.49-7.74-9.95.16-21.33,3.97-31.48,4.17,1.96,12.34,2.91,24.89,5.17,37.17-.8,1.29-1.38,2.43-3.1,2.07-.85-1.85-2.64-3.71-3.59-6.22-3.99-10.44-5.62-22.42-1.57-33.02l-42.34,1.03v22.2c0,.63,1.41,6.28,1.75,7.54,2.3,8.36,6.49,13.52,15.8,13.62-3.49-7.69-7.31-15.54-7.31-24.26,0-2.02,2.7-21.47,7.31-17.03-.99,4.67-.44,10.95.13,15.87.47,4.03,4.12,24.8,6.07,26.46,2.2,1.88,5.46.94,8.26,1.03,3.08.1,6.21.02,9.29,0,2.91-.02,7.26.84,9.29-1.03,2.05-.03,4.16.14,6.2,0s3.91-1.01,4.13-1.03c1.35-.13,2.78.15,4.13,0,1.97-.22,2.94-1.01,3.1-1.03.99-.13,2.13.15,3.1,0,1.72-.27,2.94-1.01,3.1-1.03.96-.16,2.13.16,3.1,0,1.7-.28,2.94-1.01,3.1-1.03.94-.16,2.1.1,3.1,0,.87-.09,1.78-.02,2.07-1.03.35-.04.72.07,1.03,0,6.05-1.37.19-1.85,0-2.07Z"/>
      <path class="cls-2" d="M900.39,537.53c.16,1.27,2.02,4.03,2.43,6.35,4.05,22.68,5.69,49.76,3.75,72.64-.57,6.72-3.08,27.16-6.16,32.05-3.24,5.16-6.98,2.74-11.44,4.05-4.03,1.18-14.01,8.32-19.2,10.75-45.7,21.44-106.34,37.88-156.28,25.42-26.24-21.19-27.81-63.81-23.65-94.86.64-4.79,1.38-17.8,8.13-16.13-1.69,23.95.68,60.64,7.97,83.43.69,2.17,5.85,16.13,6.51,16.74,1.63,1.49,1.76-.49,2.3-1.32,2.51-3.9,5.7-12.2,10.08-14.16,1.9-.86,2.95,1.78,3.1-2.07.02-.63.12-1.54,0-2.07,1.95-.15,5.04.79,6.2-1.03,7.76,1.74,14.39.68,22.19,0,34.61-3.06,70.46-11.77,102.1-25.96,5.53-2.48,8.97-6.56,15.12-7.08,1.38-.12,3.91-.22,5.16,0,4.22.75,9.35,5.08,13.02,6.1,2,.55,1.86-2.3,2.15-3.82,1.4-7.06,2.12-17.15,2.43-24.44.91-21.21-.85-42.45-2.11-63.56.5.36,4.74-1.62,6.2-1.03ZM738.26,662.49c-3.54-2.06-9.5-2.46-9.29,3.1-1.56.77-11,17.64-10.33,18.58,8.36,1.68,17.79,3.82,26.29,4.19,35.45,1.54,112.33-17.85,139.43-41.38,1.36-1.18,9.33-8.62,7.78-10.29-6.01-.49-10.52-5.24-16.02-7.2-26.26,14.33-56.47,23.75-86.01,28.58-17.73,2.9-33.94,3.84-51.85,4.43Z"/>
      <path class="cls-5" d="M701.08,573.68c-2.8.4-2.74-.92-1.08-2.63,2.29-2.37,11.83-4.24,15.53-5.13,58.25-14.07,117.66-23.75,176.21-36.52,14.11-.7,7.79,1.48,8.65,8.13-1.45-.59-5.7,1.39-6.2,1.03-.09-.06.4-1.79-.67-2.08-1.73-.48-20.38,2.29-20.99,3.16,6.65,27.44,13.85,56.61,6.17,84.63-1.25-.22-3.78-.12-5.16,0,5.76-28.15-1.66-54.8-4.13-82.62v-2.06s-2.58,0-2.58,0l-.52,1.02c-9.21-.54-35.83,5.69-46.5,7.72-33.55,6.38-66.4,15.93-100.15,21.2,3.17,29.3,6.2,58.68,11.52,87.65.91.52,2.13-.05,2.94.13-1.16,1.83-4.25.88-6.2,1.03-.69-3.09-2.82-7.46-3.65-11.32-5.41-25.01-9.24-50.8-8.75-76.45-3.05.86-6.2,1.38-9.29,2.06-1.7.38-2.38.49-4.13,1.03-.33.1-.76-.12-1.03,0Z"/>
      <path class="cls-6" d="M706.24,572.65c3.09-.68,6.23-1.2,9.29-2.06-.49,25.65,3.34,51.44,8.75,76.45.84,3.87,2.96,8.23,3.65,11.32.12.53.02,1.43,0,2.07l-3.1,2.07c-4.37,1.97-7.57,10.26-10.08,14.16-.53.83-.67,2.82-2.3,1.32-.66-.61-5.82-14.57-6.51-16.74-7.28-22.79-9.66-59.48-7.97-83.43.06-.91-.4-2.11.22-2.89,1.1-.14,1.95-.83,2.88-1.24.27-.12.7.1,1.03,0l4.13-1.03Z"/>
      <path class="cls-6" d="M689.72,423.94c.47-4.88,3.95-19.06,7.88-21.55,8.97-5.68,37.26-11.73,48.72-14.27,44.42-9.87,91.06-15.45,136.58-12.27,8.16,1.95,8.17,15.62,9.11,22.61-28.44,17.33-64.13,25.09-96.76,31.36-24.26,4.66-49.39,8.68-74.04,10.64-11.76.93-24.04.18-35.61,2.07-.02-1.71,0-3.44,0-5.16h4.14c.29-4.35-.41-9.14,0-13.43Z"/>
      <path class="cls-6" d="M736.19,481.77c-2.26-12.29-3.21-24.84-5.17-37.17,10.15-.2,21.53-4.02,31.48-4.17,3.21-.05.58,5.32.49,7.74-.42,12.12.95,25.16,9.34,34.64v2.07c-.31.07-.68-.04-1.03,0-.88.1-1.74.01-2.07,1.03-1,.1-2.16-.16-3.1,0l-3.1,1.03c-.97.16-2.13-.16-3.1,0l-3.1,1.03c-.97.15-2.11-.13-3.1,0l-3.1,1.03c-1.35.15-2.78-.13-4.13,0l-4.13,1.03c-2.04.14-4.15-.03-6.2,0-2.92.04-7.25-.85-9.29,1.03-3.08.02-6.22.1-9.29,0-1.78-2.07-5.68-.71-8.26-1.03-1.94-1.66-5.6-22.43-6.07-26.46-.58-4.92-1.12-11.21-.13-15.87-4.61-4.44-7.31,15.01-7.31,17.03,0,8.72,3.82,16.57,7.31,24.26-9.31-.1-13.49-5.26-15.8-13.62-.35-1.26-1.75-6.9-1.75-7.54v-22.2l42.34-1.03c-4.05,10.59-2.41,22.58,1.57,33.02.96,2.51,2.74,4.38,3.59,6.22.5,1.08-1.18,4.53,2.57,3.09,3.26-1.25.7-4.2.53-5.15Z"/>
      <path class="cls-6" d="M831.2,428.06l6.1,39.15-29.85,8.37c-.23-14.31-3.3-28.41-6.2-42.34l29.95-5.18Z"/>
      <path class="cls-6" d="M803.32,475.57v2.07l-25.82,5.75c-7.17-13.03-8.07-28.65-8.32-43.33l26.9-5.8c-3.13,14.56,2.07,28.11,7.24,41.31Z"/>
      <path class="cls-6" d="M866.31,453.89c-.25,1.25.75,3.31-.61,4.25l-23.14,7.11v-14.97c0-2.97-2.31-11.92-3.18-15.41-.77-3.1-2.27-5.78-3.02-8.84l25.28-7.26c.63,0,1.28,4.06,1.57,5.18,2.23,8.53,4.79,21.56,3.1,29.95Z"/>
      <path class="cls-6" d="M869.41,423.94c-.51-1.51-2.65-6.32-2.04-7.19l26.81-9.33c.4,18.03,5.45,34.14-13.1,44.21-4.05,2.2-4.39,2.38-8.58,2.26,4.2-10.01.13-20.45-3.1-29.95Z"/>
      <path class="cls-2" d="M869.41,423.94c3.22,9.5,7.3,19.93,3.1,29.95-2.06-.06-4.13.04-6.2,0,1.69-8.38-.87-21.42-3.1-29.95h6.2Z"/>
      <path class="cls-3" d="M689.72,423.94c-.41,4.29.29,9.07,0,13.43h-4.14c-.01-3.63,0-13.58,4.13-13.43Z"/>
      <path class="cls-3" d="M736.19,481.77c.18.95,2.73,3.91-.53,5.15-3.76,1.44-2.07-2.01-2.57-3.09,1.71.36,2.3-.78,3.1-2.07Z"/>
      <path class="cls-3" d="M736.19,490.03c-2.04,1.87-6.38,1.01-9.29,1.03,2.05-1.88,6.37-1,9.29-1.03Z"/>
      <path class="cls-3" d="M717.6,491.06c-2.81-.09-6.06.85-8.26-1.03,2.59.33,6.48-1.03,8.26,1.03Z"/>
      <path class="cls-3" d="M772.34,482.8c.19.21,6.05.69,0,2.07v-2.07Z"/>
      <path class="cls-3" d="M746.52,489c-.22.02-2.09.89-4.13,1.03l4.13-1.03Z"/>
      <path class="cls-3" d="M766.14,485.9c-.16.03-1.4.76-3.1,1.03l3.1-1.03Z"/>
      <path class="cls-3" d="M759.94,486.93c-.16.03-1.38.76-3.1,1.03l3.1-1.03Z"/>
      <path class="cls-3" d="M753.75,487.96c-.16.02-1.12.81-3.1,1.03l3.1-1.03Z"/>
      <path class="cls-3" d="M803.32,477.64v-2.07c.05.14,2.67,1.05,0,2.07Z"/>
      <path class="cls-3" d="M771.3,484.87c-.29,1.02-1.19.95-2.07,1.03.33-1.02,1.19-.93,2.07-1.03Z"/>
      <path class="cls-6" d="M866.31,540.63c1.13.07,2.14.5,3.1,1.03,2.47,27.82,9.89,54.47,4.13,82.62-6.16.52-9.59,4.6-15.12,7.08-31.63,14.19-67.48,22.89-102.1,25.96-7.81.69-14.43,1.75-22.19,0-.81-.18-2.03.39-2.94-.13-5.32-28.97-8.35-58.35-11.52-87.65,33.75-5.26,66.6-14.82,100.15-21.2,10.66-2.03,37.29-8.26,46.5-7.72Z"/>
      <path class="cls-6" d="M738.26,662.49c17.91-.59,34.12-1.53,51.85-4.43,29.54-4.83,59.75-14.25,86.01-28.58,5.5,1.97,10,6.71,16.02,7.2,1.55,1.66-6.42,9.1-7.78,10.29-27.09,23.53-103.98,42.92-139.43,41.38-8.5-.37-17.93-2.51-26.29-4.19-.67-.94,8.77-17.81,10.33-18.58.57-.28,2.5.45,3.01-.13,2.05-2.35-3.18-2.66,6.28-2.97Z"/>
      <path class="cls-6" d="M878.7,624.28c7.68-28.02.48-57.19-6.17-84.63.61-.87,19.26-3.64,20.99-3.16,1.07.29.58,2.02.67,2.08,1.27,21.11,3.03,42.35,2.11,63.56-.31,7.28-1.03,17.38-2.43,24.44-.3,1.51-.15,4.37-2.15,3.82-3.67-1.02-8.8-5.35-13.02-6.1Z"/>
      <path class="cls-3" d="M738.26,662.49c-9.46.31-4.23.62-6.28,2.97-.51.58-2.44-.16-3.01.13-.21-5.56,5.76-5.16,9.29-3.1Z"/>
      <path class="cls-5" d="M727.93,660.42c-.14,3.84-1.19,1.21-3.1,2.07l3.1-2.07Z"/>
      <path class="cls-3" d="M866.31,540.63l.52-1.02h2.57s0,2.05,0,2.05c-.96-.54-1.97-.97-3.1-1.03Z"/>
      <path class="cls-3" d="M706.24,572.65l-4.13,1.03c1.75-.54,2.43-.66,4.13-1.03Z"/>
    </g>
    <g>
      <path class="cls-2" d="M1131.71,1.57c.34,0,.69-.01,1.03,0l30.32,3.24c19.01,2.7,37.64,7.11,55.4,14.31.73.33,1.37.7,2.07,1.03l4.13,2.07c.7.35,1.37.68,2.07,1.03,1.33,1.6,3.35,2.27,5.16,3.1.28.13.75-.13,1.03,0,.77,1.85,2.53,2.34,4.13,3.1.28.13.76-.14,1.03,0,2.06,2.62,5.47,4.4,8.26,6.2.24.16.79-.16,1.03,0l3.1,3.1c.23.16.82-.17,1.03,0l3.1,3.1c.97.94.87.73,2.07,2.07,2.44,2.72,5.01,7.42,8.26,8.26.43.55.64,1.7,1.03,2.07-.34,1.97.09,2.42,2.07,2.07.13.29-.13.76,0,1.03l2.07,2.07c.14.28-.14.77,0,1.03.85,1.55,1.19,3.39,3.1,4.13.94,1.84,1.33,3.52,2.07,5.16l2.07,4.13c2.98,7.68,5.56,15.67,7.23,23.75l-1.03,2.06h2.06c.1.88.11,2.25,0,3.11-.05.37-1.69,1.59-1.03,3.09h2.06c.07,1.27.14,2.92,0,4.14-.03.21-2.01,2.27-1.03,4.13h2.06c.08,1.65.12,3.54,0,5.17-.02.27-2.04,3.24-1.03,5.17h2.06c.07,2.34.15,4.89,0,7.22-.06.97-2.09,4.8-1.03,7.24h2.06c.05,2.72.1,5.53,0,8.25-.17,4.45-.67,4.85,0,10.33.6,4.91,1.17,8.25,1.03,13.43-.5,18.71-1.7,38.24-1.08,57.36.21,6.28.37,15.77,1.02,21.7.26,2.34.36,3.58,3.15,3.56.1,1.71-.1,3.45,0,5.16-2.92.24-4.41-1.47-4.12,2.55s1.2,15.66,6.19,16.04c.12,2.05-.09,4.14,0,6.2-1.55.14-1.55,2.95,0,3.1.28,6.22.79,12.36,1.03,18.59-1.61.43-1.54,3.8,0,4.13.17,4.33,1.03,10.49,1.03,13.94v21.69c0,1.39,4.77-.31,2.07,5.68l-2.07,2.07c-1.66,5.4.08,27.12-1.03,36.14-.57,4.58-.07,4.72,0,8.26.1,4.75-.09,7.75-1.03,12.39-.2.99-2.72,3.67,0,5.16-.38,3.71-.75,7.65-1.03,11.36-1.29,1-1.74,3.54,0,4.13-.23,3.23-.85,6.48-1.03,9.29-1.35.96-1.72,3.55,0,4.13-.14,2.39.07,4.83,0,7.23-4.44-.7-1.12,3.91-1.03,5.16.16,2.31.06,4.89,0,7.23-3-1.01-2.83,3.42-1.03,5.16-.22,3.02-.8,5.62-1.03,8.26-1.21.72-1.64,2.75,0,3.1l-1.03,9.29-.88,1.42.88.65-1.03,9.29-.91,1.41.91.65-1.03,10.33-.91,1.41.91.65-1.03,10.33c-1.15.75-1.61,2.74,0,3.1.49,3.31-.39,6.16-1.03,9.29-.21,1.01-2.72,3.67,0,5.16-.39,3.36-.74,6.96-1.03,10.33-1.29,1-1.74,3.54,0,4.13l-1.03,10.33c-1.15.75-1.61,2.74,0,3.1l-1.03,9.29c-1.15.75-1.61,2.74,0,3.1-.09,2.4.13,4.83,0,7.23-4.35-.43-1.06,2.81-1.03,3.1.31,2.96-.97,5.07-1.03,7.23-1.21.72-1.64,2.75,0,3.1-.15,2.04.07,4.14,0,6.2-4.2-.52-1.1,2.2-1.03,3.1.12,1.65.06,3.5,0,5.16-4.2-.52-1.1,2.21-1.03,3.1.11,1.52.17,3.68,0,5.16h-2.06s1.03,2.07,1.03,2.07c-.38,2.93-.58,6.62-1.03,9.29h-2.06s1.03,2.07,1.03,2.07c-.17.95.18,2.16,0,3.1h-2.06s1.03,2.07,1.03,2.07c-.19.93.19,2.18,0,3.1h-2.06s1.03,2.07,1.03,2.07c-.54,2.45-.57,5.35-1.03,7.23h-2.06s1.03,2.07,1.03,2.07c-.15.6.16,1.48,0,2.07h-2.06s1.03,2.07,1.03,2.07c-.46,1.7-.6,3.63-1.03,5.16h-2.06s1.03,2.07,1.03,2.07c-1.58,5.39-5.43,13.57-5.16,18.59l-1.03,2.06h2.06c.06,2.4.08,4.85,0,7.24-4.2-.52-1.09,2.22-1.03,3.1.09,1.34.05,2.78,0,4.13h-2.06s1.03,2.07,1.03,2.07c-.16.96.19,2.18,0,3.1h-2.06s1.03,2.07,1.03,2.07c-.38,1.65-.6,3.69-1.03,5.16-3.46-.8-2.45,4.83-3.1,7.23-.3,1.1-.68,2.04-1.03,3.1l-2.07,3.1c-.4.83-.43,2.01-1.03,3.1l-2.07,2.07c-.16.24.16.8,0,1.03l-2.07,2.07c-.17.22.17.82,0,1.03l-9.29,9.29c-.23.16-.77-.15-1.03,0l-3.1,2.07c-.33.07-.7-.07-1.03,0-3.2.63-8.05,1.02-11.36,1.03-.34,0-.69.02-1.03,0l-3.1-1.03c-.33-.09-.73.1-1.03,0-1.31-1.68-3.4-2.15-5.16-3.1-.27-.14-.78.15-1.03,0l-3.1-3.1c-.17-.21.17-.82,0-1.03l-2.07-2.07c-.14-.26.14-.76,0-1.03v-3.1s-2.07,0-2.07,0c-.25-.77.28-2.78,0-3.1v-2.06s-2.07,0-2.07,0l-1.03-6.2c2.05-1.78.73-5.68,1.03-8.27h-2.06c-.03-.68,0-1.37,0-2.06,0-2.41,0-4.82,0-7.23.31-.1.72.1,1.03,0,2.99-.98,4.83,2.72,5.16,5.16.09.66-.07,1.4,0,2.07.06.54-2.28,6.9,2.07,6.2,1.1,4.1,2.67,7.51,4.13,11.36.71,1.88-.29,5.86,3.1,5.16-.43,4.32,5.22,8.82,9.71,8.23,12.74-1.66,26.93-35.45,24.89-47.47-2.96,2.53-6.22,3.82-9.82,5.16-.93.35-1.95,1-2.07,1.03-2.72.82-4.99.56-7.23,1.03l-4.13-1.54c6.87-5.53,14.79-9.23,20.65-16.01,6.43-7.44,9.79-19.43,12.39-28.91-.65-.65-14.34,4.42-16.52,5.16-.93.32-1.63.89-2.07,1.03-3.69,1.23-6.52,2.12-10.33,3.1-1.44.37-1.95,1.01-2.07,1.03-1.7.36-3.37,1.15-5.16,1.03-.55-.04-2.47-3.03-2.07,1.03-.67-.07-1.42.11-2.07,0s-2.44-3.03-2.07,1.03c-.67-.07-1.42.11-2.07,0-.13-.02-.88-1.46-2.06-1.03-.12.6.17,1.89,0,2.06-.11.11-2.45.07-3.1,0-.11-.01-.95-1.45-2.06-1.03-.12.59.16,1.92,0,2.06-.36.29-3.1-.21-4.13,0-1.64.34-1.95,1.01-2.07,1.03-1.27.21-2.87-.22-4.13,0-1.65.28-2.94,1-3.1,1.03-.96.17-2.14-.17-3.1,0-1.62.28-2.94,1-3.1,1.03-.96.17-2.14-.17-3.1,0-1.71.3-1.95,1.01-2.07,1.03-.96.17-2.14-.16-3.1,0-1.65.28-2.94,1.01-3.1,1.03-.96.16-2.14-.16-3.1,0-1.67.28-2.94,1.01-3.1,1.03-.96.16-2.14-.16-3.1,0-1.66.28-2.94,1.01-3.1,1.03-.96.16-2.14-.17-3.1,0-1.64.28-2.94,1.01-3.1,1.03-.96.16-2.14-.16-3.1,0-1.68.29-3.33.9-4.13,1.03-.96.16-2.14-.17-3.1,0-1.64.28-2.94,1.01-3.1,1.03-.96.16-2.14-.17-3.1,0-1.59.28-2.94,1-3.1,1.03-1.23.23-2.91-.24-4.13,0-1.86.37-2.29.44-4.13,1.03-2.69.87-5.66,3.12-7.76,3.22-2.66.12-4.12-1.64-5.14-1.67-9.37-.33-21.31,2.37-30.95,2.63-31.38.86-68.08,1.58-99.22,0-5.34-.27-11.59-1.52-16.99-2.12l5.16-5.15c.72.25,2.17-.17,3.1,0,.11.02.26.86,2.07,1.03,30.72,2.9,68.96-.47,100.73-.04,2.44.03,4.7,1.07,7.14,1.12,4.58.08,28.38.64,30.28-1.31,2.06-8.29,4.06-16.74,5.25-25.22,6.28-44.84,2.1-88.24.1-133.03-.34-7.72.34-15.56.05-23.28-34.3,3.12-68.49,7.97-102.77,11.36-15.41,1.52-31.59,3.3-46.98,4.14-3.64.2-8.57-1-11.36,1.03-1.37,0-2.76-.04-4.13,0-7.6.25-15.11,1.01-22.71,1.04-.89.83,1.83,6.95,2.06,8.26,8.72,50.33,17.93,99.7,27.88,149.74.43,2.18,2.2,9.37,1.9,10.64-.46,1.92-3.81,2.76-3.77,5.16.03,1.57,4.95,14.73,6,17.24-6.41,1.25-6.7-6.86-9.27-10.65-.65-.96-1.94-.58-2.09-.71-.14-.12.46-1.94-.64-2.14-3.42-.62-9.08,5.6-11.76,7.31-2.07,1.32-7.33,1.11-7.23,5.16-2.78-.7-14.86,4.27-16.09,6.18-1.29,2.01,4.21,7.87,5.76,9.31.34.32.42,1.44,1.54,1.1,1.08-.03,1.35-1.01,1.55-1.1,5.48-2.19,9.06-6.53,13.43-10.33.15-.13,1.25.46,2.14-.65,1.71-2.15.7-6.79,5.09-5.55,2.74,1.61,6.45,3.64,9.29,5.16,6.2,3.33,12.66,6.82,19.62,8.27l-3.1,2.05c-2.73-.71-5.55-1.24-8.26-2.06,5.87,13.49,12.11,36.79,27.88,41.3.42.12.81,1.21,2.47,1.08.97-.08,1.35-.96,1.66-1.08,10.48-3.84,15.02-19.55,15.27-29.8.04-1.66.3-1.12-.81-2.21-1.73-1.7-2.49-.72-4.13-1.03-1.23-.24-2.87.22-4.13,0-.16-.03-1.44-.75-3.1-1.03-.96-.16-2.13.15-3.1,0-.16-.03-1.46-.75-3.1-1.03-.95-.17-2.15.17-3.1,0-.16-.03-1.54-.74-3.1-1.03-.64-.12-1.43.12-2.07,0v-4.14s4.13,0,4.13,0c.67.09,1.39-.08,2.07,0,1.13,1.74,4.25,1,6.2,1.03.34,0,.69,0,1.03,0,1.41,1.8,4.96,1.01,7.23,1.03,1.03.01,2.07-.04,3.1,0,.68,1.63,4.48,1.63,5.16,0,2.1.19,4.1.9,6.2,1.03,3.84.25,8.17.89,12.39,1.03,2.4.08,4.82-.05,7.23,0,1.07,1.71,3.92,1.03,5.67,1.05,8.26.09,16.56.1,24.81,0,1.75-.02,4.59.66,5.67-1.05.69,0,1.38,0,2.07,0,5.91,0,13.09.88,18.59-1.03.34,0,.69.01,1.03,0,8.95-.33,18.16-.48,26.85-3.1.34,0,.69,0,1.03,0,2.75-.02,5.52,0,8.27,0-.19,1.06.34,3.6-.08,4.05-.75.83-13.4,1.01-15.42,3.17-.34.03-.69-.03-1.03,0-7.09.65-15.01.63-22.19,1.04l-17.05,2.06c-1.03.04-2.07-.04-3.1,0-2.2-2.97-7.12,0-8.78,0h-18.59c-1.66,0-6.57-2.97-8.78,0-.69-.03-1.38.04-2.07,0-3.02-.89-9.71-1.96-13.05-1.99-1.31-.01-1.04.57-1.4.96-2.26,2.41-.48,7.13-1.03,10.33h-2.06s1.03,2.07,1.03,2.07c-.88,4.37-2.03,8.43-4.13,12.39l-7.23,8.26c-.22.16-.78-.16-1.03,0l-3.1,2.07c-.29.1-.7-.09-1.03,0-1.65.06-4.28-.64-5.16,1.03-1.64.09-3.53.11-5.16,0l-4.13-1.03c-.33-.06-.71.07-1.03,0-1.97-1.87-4.88-2.13-7.23-3.1-.3-.12-.75.13-1.03,0l-5.16-4.13c-1.9-1.61-2.53-2.35-4.13-4.13l-3.1-3.1c-.16-.22.16-.8,0-1.03l-2.07-2.07c-6.46-10.89-7.8-19.01-10.33-30.98-1.07-5.06-8.69-8.01-10.33-2.07-.09.34.11.75,0,1.03-4.25.21-3.88,4.17-5.16,7.23-.24.15-.76-.15-1.03,0-4.9,2.64-8.86,3.61-14.46,4.13-.67-.07-1.48.13-2.07,0-4.75-2.54-10.77-4.58-12.42-10.31-.89-.64-9.67,5.35-11.33,6.18-34.12,17.1-112.68,40.54-150.21,40.31-86.26-.51-107.66-57.56-123.13-131-13.15-62.38-19.89-124.88-22.05-188.62-1.77-52.25,10.44-90.69,63.28-107.2,56.83-17.76,120.23-32.67,178.41-45.16,3.76-.81,7.61-2.34,11.36-3.1,13.81-2.78,35.19-8.62,48.54-8.26,1.83.05,3.59-.18,5.41.24,5.48,1.26,9.69,7.47,17.31,1.83.34-.04.69.04,1.03,0,4.38-.55,9.52-.9,13.43-3.1.33-.06.7.05,1.03,0,4.06-.66,8.77-.87,12.39-3.1.34-.05.69.05,1.03,0,2.75-.39,5.96-.07,8.26-2.07.34-.05.7.05,1.03,0,1.85-.27,3.32-.9,4.13-1.03.33-.06.7.06,1.03,0,6.1-1.06,12.92-1.46,18.59-4.13.33-.06.7.06,1.03,0,6.54-1.1,13.38-1.72,19.62-4.13.34-.04.69.04,1.03,0,3.29-.37,7.44-.06,10.33-2.07.34-.04.69.04,1.03,0,2.13-.25,4.11-.9,5.16-1.03.34-.04.69.04,1.03,0,2.09-.28,3.94-.85,5.16-1.03.34-.05.7.05,1.03,0,3.77-.57,9.08.05,12.39-2.07.34-.03.69.03,1.03,0,45.11-4.02,88.17-8.71,133.75-9.28,1.75-.02,4.59.66,5.67-1.05.69,0,1.38,0,2.07,0,4.24-.02,9.99.88,13.43-1.03,1.03,0,2.07,0,3.1,0,3.9-.01,9.32.87,12.39-1.03,2.75-.01,5.51,0,8.26,0,3.09,0,6.2,0,9.29,0,3.78,0,7.58,0,11.36,0,1.07,1.71,3.92,1.03,5.67,1.05,5.54.06,13.49.67,18.66.03,1.01-.12,2.41.35,2.53-1.08l.04-74.91c-3.53-40.29-3.14-94.48-31.02-126.46-1.2-1.38-2-1.99-3.1-3.1-.72-.72-1.29-1.36-2.07-2.07-.66-.6-1.12-1.28-2.07-2.07-58.22-48.5-168.1-44.06-235.99-18.61-20.29,7.61-33.7,15.64-48,32.03-.52.6-1.28,1.12-2.07,2.07-45.36,54.36-32.31,145.3-34.04,211.23-.12,4.6-1.48,8.67-1.08,13.9-2.49,1.45-6.56-.35-8.26,0-2.5-17.27-2.44-34.76-3.06-52.19-1.86-52.63-3.39-108.48,21.64-156.41l2.08-2.57-.52-.52c-.79.38-1.08,1.63-1.55,2.06-1.6,1.44-3.54,2.72-5.16,4.13-5.87,5.11-11.5,10.56-16.52,16.52-17.13,17.73-29.64,39.44-37.18,62.99l-7.23-1.03c2.09-6.37,3.59-12.33,6.2-18.59l1.03-2.07c2.25-5.29,4.53-10.42,7.23-15.49,1.91-.74,2.25-2.59,3.1-4.13.15-.26-.15-.77,0-1.03l2.07-2.07c.15-.25-.15-.78,0-1.03,2.57-1.28,3.65-3.99,5.16-6.2.16-.23-.16-.8,0-1.03,2.3-1.19,3.67-3.16,5.16-5.16.17-.22-.17-.82,0-1.03,3.08-1.72,4.93-4.75,7.23-7.23,2.13-2.29,3.97-4.05,6.2-6.2,4.02-3.87,8.36-7.47,12.39-11.36.35-.34.69-.69,1.03-1.03,2.37-1.4,4.22-3.29,6.2-5.16.35-.33.68-.7,1.03-1.03,2.69-.8,5.37-4.74,7.27-5.64,1.74-.82,3.64-.37,5.69-1.54,2.31-1.32,3.77-4.84,4.59-7.28.21-.17.82.17,1.03,0,7.04-5.55,13.63-11.95,20.65-17.56.26-.15.76.14,1.03,0,1.56-.82,3.38-1.2,4.13-3.1.28-.13.75.13,1.03,0,9.92-4.62,19.94-9,29.95-13.43.31-.1.72.1,1.03,0l2.07-1.03c.32-.09.71.09,1.03,0l16.52-5.16c.33-.07.7.07,1.03,0,36.99-8.28,67.18-11.38,105.33-10.33ZM944.8,339.26l-10.32-1.02c9.52-2.82,19.66-3.81,29.55-5.05,72.97-9.11,146.75-14.53,219.83-21.82,16.86-1.68,35.12-2.95,51.72-5.07,1.96-.25,1.37-2.1,2.12-2.2,1.5-.2,5.48,1.43,6.94,2.27l39.9,28.76-1.53-74.37c-.67-.8-1.57-1.27-2.54-1.59-4.72-1.55-23.26-.61-29.53-.51-90.9,1.56-182.74,13.94-272.42,28.1-17.04,2.69-33.9,7.74-51.29,7.07,2.42,15.51.34,31.74,0,47.49s.06,30.32-1.03,45.44l55.76-6.2c50.37-2.51,101.66-12.85,151.81-15.49,1.96-.1,5.05.76,6.2-1.03,33.7-1.54,71.45-7.43,105.33-11.36,1.84-.21,3.77-.99,4.13-1.03,1.01-.12,2.09.12,3.1,0,10.64-1.24,21.32-3.01,32.01-3.1l-4.13-2.06,4.14-2.07c.65-3.21-1.28-1.59-2.07-2.06-2.78-1.66-8.81-5.61-10.33-8.26-.18-.31.35-1.58-.09-1.96-.6-.53-2.3.15-3.01-.1-.26-.09-.76-.72-1.03-1.03-.74-.86-.05-4-4.13-3.1-.3-.37-.74-.65-1.03-1.03-.85-1.11-.04-3.91-4.13-3.1-.3-.36-.76-.63-1.03-1.03-.17-.24.34-1.46-.13-1.93s-1.6.03-1.94-.14c-5.02-2.43-7.03-6.41-12.03-9-10.09.61-20.25,2.06-30.32,2.8-3.3.24-7.88-1.02-10.33,1.03-4.15.03-8.24.73-12.39,1.03-5.63.41-12.16.18-17.56,2.07-7.16.1-15.46,1.34-22.72,2.07-2.32.23-4.48.86-6.2,1.03-1.35.14-2.78-.13-4.13,0l-30.98,3.1c-.69,0-1.38,0-2.07,0-2.59.02-6.55-.81-8.26,1.03-.69,0-1.38-.03-2.07,0-6.33.26-13.49.29-19.62,2.07-.34,0-.69,0-1.03,0-2.91.02-7.25-.84-9.29,1.03-1.03.01-2.07-.05-3.1,0-5.68.26-12.13.3-17.56,2.07-1.27-.17-2.79.05-4.13,0-2.2-.08-5.88-.68-7.23,1.03-.68-.04-1.38.03-2.07,0l-81.58,7.23c-1.84-.32-4.24.22-6.2,0ZM959.26,687.27c-12.27-55.2-23.03-110.87-30.81-166.95-5.51-39.73-9.57-80.44-10.54-120.61-.77-31.9,3.51-63.36,4.23-95.01.14-6.14-.02-12.51-7.67-11.84-17.95,1.57-44.27,11.26-62.8,15.75-55.45,13.44-123.75,24.61-176.36,43.6-42.82,15.46-51.11,52.51-50.65,93.94.78,70.31,11.37,172.34,34.07,238.56,20.01,58.37,39.27,72.99,102.76,69.68,51.33-2.68,131.98-28.8,176.4-54.92,6.99-4.11,13.45-11.4,21.38-12.19ZM1284.56,357.84l-357.32,33.05,3.11,69.2c8.26-1.91,16.86-3.18,25.3-4.13,85.52-9.61,171.43-15.13,257.12-23.77,7.37-.74,18.97-4.13,25.68-3.75,4.28.24,11.25,2.28,8.1,7.26l35.92,28.51,2.08-106.37ZM1184.38,442.53c-4.34.54-9.73.64-13.43,2.07-8.49.16-17.08,1.81-25.82,2.07-3.28.1-7.92-.91-10.33,1.03-7.6-.03-15.92,1.72-23.75,2.07-2.62.11-6.51-.88-8.26,1.03-4.47-.28-9.74.74-14.46,1.03-6.29.39-13.51.19-19.62,2.07-4.55.03-8.9.74-13.43,1.03-6.68.43-14.18.26-20.65,2.07-4.72.06-8.8.97-13.43,1.03l-23.75,2.07c-3.95.11-7.45.79-11.36,1.03-3.3.21-7.88-1-10.33,1.03-14.98.02-30.31,3.18-45.44,2.06l6.21,55.77c16.03-4.82,33-5.42,49.56-7.23,98.11-10.72,196.31-23.08,294.62-33.26l1.77-1.84c-2.56.04-5.16-.16-7.74,0-79.36,4.84-160.69,20.61-240.11,24.77-1.96.1-5.05-.76-6.2,1.03-1.71.02-3.46.07-5.16,0s-3.45.06-5.16-.01v-1.01c3.18.89,6.02-.67,8.26-1.04,3.4-.56,6.15-.63,9.29-1.03,2-.26,3.96-.89,5.16-1.03,10.93-1.34,22.09-1.91,33.05-3.1,2.41-.26,5.08-.8,7.23-1.03,20.96-2.26,42.03-3.96,62.99-6.2,1.93-.21,3.5-.96,4.13-1.03,8.97-.96,19.07-.89,27.88-2.07,1.76.14,3.57-.9,5.16-1.03,1.36-.11,2.78.14,4.13,0,2.5-.25,5.04-.77,7.23-1.03,7.58-.92,15.16-1.27,22.72-2.07,1.71-.18,3.18-.93,4.13-1.03,20.99-2.23,42.13-3.49,62.99-6.71-15.83-11.56-31.58-23.21-45.11-37.51-17.7-.13-35.38,3.81-52.99,6.01ZM1128.61,682.11c-.04.11-2.45.86-.5,2.08,12.04-2.82,24.66-3.62,36.99-5.35,23.73-3.34,56.23-6.39,76.41-18.06,2.12-1.23,5.24-1.06,6.89-3.45.31-.1.72.1,1.03,0,1.83-.61,3.77-1.96,4.13-2.07.32-.09.72.1,1.03,0,2.07-.64,4.9-.52,7.05-1.24.55-.45.02-1.53.17-1.86,2.65-5.77,3.65-15.85,4.84-22.53,7-39.39,10.88-80.55,13.74-120.51.23-3.22,1.45-19.84.57-21.21l-144.48,15.68c-2.51.8-1.85,7.31-1.73,9.72,2.51,47.49,9.27,124.18-6.16,168.8Z"/>
      <path class="cls-5" d="M872.51,157.5c-11.97,37.4-15.95,90.47-13.47,129.64.11,1.68.11,7.42,3.14,6.67-3.75.76-7.6,2.29-11.36,3.1,1.35-1.79.94-3.35.77-5.34-3.85-45.32-.39-92.18,13.68-135.1l7.23,1.03Z"/>
      <path class="cls-5" d="M1199.87,709.99c0,2.41,0,4.82,0,7.23-24.47,7.71-49.78,14.2-75.39,16.52,2.02-2.16,14.67-2.34,15.42-3.17.41-.46-.12-2.99.08-4.05-2.75,0-5.52-.02-8.27,0,22.79-5.11,45.83-9.59,68.16-16.52Z"/>
      <path class="cls-5" d="M929.3,66.63c5.71-5.29,11.51-9.64,17.56-14.46-.83,2.44-2.29,5.97-4.59,7.28-2.05,1.17-3.96.71-5.69,1.54-1.9.9-4.58,4.84-7.27,5.64Z"/>
      <path class="cls-5" d="M1199.87,719.29h2.06c-.3,2.58,1.02,6.48-1.03,8.26-.51-3.08-.88-4.65-1.03-8.26Z"/>
      <path class="cls-5" d="M1204,738.91h2.06s0,3.1,0,3.1c-.25-.49-1.19-.42-2.07-3.1Z"/>
      <path class="cls-5" d="M1201.94,733.75h2.06s0,2.07,0,2.07c-.65-.74-1.41,1.87-2.07-2.07Z"/>
      <path class="cls-5" d="M947.89,52.17c5.52-6.43,13.22-13.39,20.65-17.56-7.02,5.61-13.62,12.01-20.65,17.56Z"/>
      <path class="cls-5" d="M895.23,98.64c2.12-2.71,4.28-5.36,7.23-7.23-2.3,2.47-4.15,5.51-7.23,7.23Z"/>
      <path class="cls-5" d="M1208.13,745.11c-.42-.53-1.26-.57-2.07-2.07l2.07,2.07Z"/>
      <path class="cls-3" d="M1284.56,357.84l-2.08,106.37-35.92-28.51c3.15-4.98-3.83-7.02-8.1-7.26-6.71-.38-18.31,3.01-25.68,3.75-85.7,8.64-171.61,14.16-257.12,23.77-8.44.95-17.04,2.21-25.3,4.13l-3.11-69.2,357.32-33.05Z"/>
      <path class="cls-3" d="M927.24,341.32c.34-15.75,2.42-31.98,0-47.49,17.39.67,34.25-4.38,51.29-7.07,89.68-14.16,181.52-26.54,272.42-28.1,6.27-.11,24.81-1.04,29.53.51.97.32,1.88.79,2.54,1.59l1.53,74.37-39.9-28.76c-1.47-.84-5.45-2.46-6.94-2.27-.75.1-.16,1.95-2.12,2.2-16.6,2.11-34.86,3.38-51.72,5.07-73.08,7.29-146.86,12.72-219.83,21.82-9.89,1.23-20.03,2.23-29.55,5.05l10.32,1.02c-5.43,2.78-11.69,1.99-17.56,2.07Z"/>
      <path class="cls-3" d="M1243.24,666.62c2.17-.73,15.86-5.81,16.52-5.16-2.6,9.48-5.96,21.47-12.39,28.91-6.02.82-11.14,5.71-16.86,8.44-9.04,4.32-20.05,8.18-29.61,11.18-.31.1-.72-.1-1.03,0-22.33,6.93-45.37,11.41-68.16,16.52-.34,0-.69,0-1.03,0l-26.85,3.1c-.34.01-.69,0-1.03,0-5.97.16-13.05-.99-18.59,1.03-.69,0-1.38,0-2.07,0-12.02.01-24.13.24-36.14,0-2.4-.05-4.83.08-7.23,0-3.14-2.27-8.48-.52-12.39-1.03-2.1-.14-4.09-.84-6.2-1.03-1.69-.15-3.46.07-5.16,0-1.03-.04-2.07.01-3.1,0-1.42-1.82-4.96-.98-7.23-1.03-.34,0-.69,0-1.03,0-1.16-1.88-4.27-.81-6.2-1.03-.67-.08-1.4.09-2.07,0-6.92-.9-14.02-3.13-20.97-4.09-.76-3.01-2.78-5.84-3.81-8.3-1.05-2.51-5.97-15.67-6-17.24-.04-2.39,3.31-3.24,3.77-5.16.3-1.27-1.47-8.47-1.9-10.64,3.47,1.08,5.68,3.93,9.29,5.16l-5.16,5.15c5.4.6,11.65,1.85,16.99,2.12,31.14,1.58,67.85.86,99.22,0,9.64-.26,21.58-2.96,30.95-2.63,1.02.04,2.48,1.79,5.14,1.67,2.09-.09,5.07-2.35,7.76-3.22l4.13-1.03c1.22-.24,2.9.23,4.13,0l3.1-1.03c.95-.17,2.14.16,3.1,0l3.1-1.03c.96-.17,2.14.16,3.1,0l4.13-1.03c.96-.16,2.14.16,3.1,0l3.1-1.03c.96-.17,2.14.16,3.1,0l3.1-1.03c.96-.16,2.13.16,3.1,0l3.1-1.03c.96-.16,2.14.16,3.1,0l3.1-1.03c.96-.16,2.14.17,3.1,0l2.07-1.03c.96-.17,2.14.17,3.1,0l3.1-1.03c.96-.17,2.14.17,3.1,0l3.1-1.03c1.27-.22,2.86.21,4.13,0l2.07-1.03c1.03-.21,3.77.29,4.13,0l2.07-1.03c.65.07,2.98.11,3.1,0l2.07-1.03c.64.11,1.4-.07,2.07,0l2.07-1.03c.64.11,1.4-.07,2.07,0l2.07-1.03c1.79.11,3.46-.67,5.16-1.03l2.07-1.03c3.81-.98,6.63-1.87,10.33-3.1l2.07-1.03Z"/>
      <path class="cls-3" d="M931.37,74.89c-25.03,47.93-23.51,103.78-21.64,156.41.62,17.43.55,34.93,3.06,52.19-.4.08-1.48,1.66-2.07,2.07-13.35-.36-34.73,5.48-48.54,8.26-3.03.74-3.03-4.99-3.14-6.67-2.49-39.17,1.49-92.24,13.47-129.64,7.54-23.55,20.05-45.26,37.18-62.99,5.37-5.56,11.87-10.23,16.52-16.52,1.63-1.42,3.56-2.69,5.16-4.13v1.03Z"/>
      <path class="cls-6" d="M997.46,460.08c3.39-.09,13.01-.75,14.99,1.02l23.22,39.26c-3.14.41-5.89.47-9.29,1.03-10.74.17-21.38,1.93-32.01,3.1-1.95.15-5.04-.79-6.2,1.03h-4.13c-6.65-12.87-14.48-25.71-22.45-37.93-.94-1.44-2.34-2.21-3.36-1.3-1.66,1.48,22.06,33.98,23.74,37.7l-4.12,2.57c-7.57.78-15.14,1.01-22.72,2.07-1.3.18-3.4-.63-4.13,1.03h-1.03c-2.21-.1-7.32-.47-8.26,2.05l13.42-1.02c.69.02,1.38-.03,2.07,0,3.13.12,8.04.75,10.33-1.03,5.16-.2,10.36-.55,15.49-1.03,1.79.78,3.03,2.09,3.1,4.13-16.56,1.81-33.53,2.41-49.56,7.23l-6.21-55.77c15.13,1.12,30.46-2.04,45.44-2.06,2.33,0,4.74-.3,7.03.22l22.92,33.86-19.62-35.11c3.91-.25,7.41-.93,11.36-1.03ZM949.95,491.06c-1.79-7.68-6.58-15.5-11.34-21.69,1.04,7.51,6.92,15.42,11.34,21.69Z"/>
      <path class="cls-6" d="M1144.1,321.7c1.19,3.16,6.09,6.12,8.82,8.22,8.5,6.52,22.31,15.17,29.4,22.23,2.44,2.43-.93,1.07-2.08,2.6-8.85.93-17.97,1.14-26.85,2.07.09-2.34-1.43-2.76-2.77-3.94-8.07-7.11-23.6-19.93-32.39-25.44-1.62-1.01-3.09-1.89-5.11-1.59l27.88,23.23-6.19,1.53c7-1.07,10.74,1.09,15.95,5.15,1.57,1.22-1.05,1.29-1.5,2.09l-24.78,2.07-6.19-6.72,2.06-1.53-5.12-.56c-2.68-1.47-27.75-23.54-28.95-22.16-1.25,1.45.5,2.56,1.28,3.4,5.45,5.88,18.71,15.31,25.65,20.78,2.58,2.03,6.09,3.75,8.65,5.74,1.57,1.23-1.05,1.29-1.5,2.09-4.93-.5-9.63.53-14.46,1.03-2.08.22-4.38.95-5.16,1.03-1.69.17-3.47-.17-5.16,0l-7.6-7.88c-11.22-6.69-21.38-15.45-31.63-23.62l7.22-2.58c1.03-.05,2.07.01,3.1,0,2.92-.03,7.25.85,9.29-1.03.34,0,.69,0,1.03,0,6.38-.17,13.45-.12,19.62-2.07.69-.03,1.38,0,2.07,0,2.59-.02,6.55.81,8.26-1.03.69,0,1.38,0,2.07,0,10.81-.14,20.67-2.11,30.98-3.1,1.35-.13,2.78.14,4.13,0Z"/>
      <path class="cls-6" d="M950.99,339.26c1.36.23,6.05,2.42,7.56,3.28l39.41,27.73,1.56-2.08-38.2-27.39c6.66-2.3,13.97-1.63,20.94-1.32l41.01,30.25-4.13,1.54c-14.12,1.45-28.23,2.46-42.34,4.13-1.95.15-5.04-.79-6.2,1.03-.68.05-1.38-.01-2.07,0-2.27.04-5.82-.77-7.23,1.03-4.43.15-8.06.56-12.39,1.03-1.95.21-3.63.97-4.13,1.03-.34.04-.7-.05-1.03,0-1.95.28-4.35-.39-6.41.29l-9.07,2.8c4.65-.16,9.37.25,14.02.05,1.34-.06,2.34-1.07,2.5-1.07,2.05-.1,4.14.09,6.2,0,2.96-.13,7.21.92,9.29-1.03,4.44-.15,8.08-.63,12.39-1.03,3.08.28,6.74-.97,9.29,1.03l-55.76,6.2c1.09-15.12.7-30.24,1.03-45.44,5.87-.07,12.12.71,17.56-2.07,1.95.22,4.35-.32,6.2,0ZM947.89,356.81c-.89.17-2.06-.28-3.03.06l-1.1,7.16,15.48-3.1-9.63-2.28c-1.21-.07-1.32-1.45-1.72-1.84.84-.16,2.95.52,2.06-1.54-.48-1.11-9.66-11.36-11.35-9.82-.45,1.94,1.1,2.45,2.06,3.61,1.83,2.22,5.14,5.71,7.23,7.74Z"/>
      <path class="cls-6" d="M1102.8,450.79c1.99.12,2.7-.24,4.69.98,4.92,3.01,15.86,16.28,21.12,21.24,4.39,4.14,10.09,8.25,14.51,12.36,1.28,1.19,2.49,1.85.99,3.63-20.96,2.23-42.04,3.93-62.99,6.2l-5.2-1.51-28.87-36.19c-1.35-3.17,7.51-.11,8.25-2.57,4.52-.29,8.88-1,13.43-1.03,2.22-.02,4.45-.12,6.68.02,12.26,8.26,21.74,24.9,33.55,33.59,1.4,1.03,2.16,1.92,4.18,1.49l-33.04-35.62,8.26-1.54c4.72-.29,9.98-1.31,14.46-1.03Z"/>
      <path class="cls-6" d="M1184.38,442.53c17.61-2.2,35.29-6.14,52.99-6.01,13.52,14.29,29.27,25.95,45.11,37.51-20.86,3.22-42,4.48-62.99,6.71l-36.15-35.63,1.04-2.58Z"/>
      <path class="cls-6" d="M1170.95,444.59c2.22-.04,4.45-.1,6.68.02l2.16.95,34.57,32.59,1,3.61c-7.56.8-15.14,1.15-22.72,2.07-2.26.24-5.77-.93-7.23,1.03-1.35.14-2.77-.11-4.13,0l-36.14-38.21c8.73-.26,17.33-1.91,25.82-2.07Z"/>
      <path class="cls-6" d="M1034.64,456.98c2.42-.03,7.52-.55,9.29.52,9.32,13.36,21.62,24.83,29.95,38.72-10.96,1.19-22.11,1.76-33.05,3.1-2.55.16-2.62-1.59-3.64-3.08-7.89-11.55-14.56-23.94-22.17-35.67l6.18-2.56c4.63-.07,8.7-.97,13.43-1.03Z"/>
      <path class="cls-6" d="M1046,330.99c9.94,1.35,26.92,18.02,35.48,24.41,2.68,2,6.71,3.46,9.88,6.14,2.26,1.91.16,1.23-.95,2.5l-24.78,2.07c-1.95.15-5.04-.79-6.2,1.03h-4.13l-40.27-31.5c4.58-.97,9.3-1.17,13.97-1.56,1.97-.16,4.15,1.17,3.58-2.05.69.03,1.38-.04,2.07,0,1.2.07,4.72,2.12,7.24,1.03v-2.06c1.33.05,2.85-.17,4.12,0Z"/>
      <path class="cls-6" d="M1134.81,447.69c2.3,0,4.77-.54,6.77.98l37.63,35.69c.08.18-2.92,1.52-3.09,1.54-8.82,1.18-18.91,1.1-27.88,2.07l-37.18-38.21c7.84-.34,16.15-2.09,23.75-2.07Z"/>
      <path class="cls-6" d="M1173.02,318.6c2.91-.04,6.07-.48,8.64,1.18,10.98,10.37,27.5,17.85,38.32,27.77,2.48,2.27,1.69,1.48-.49,3.07l-23.75,2.07-9.26-.56c-11.73-10.39-25.21-18.85-37.14-28.96-2.25-1.91-.16-1.22.95-2.5,7.26-.73,15.55-1.96,22.72-2.07Z"/>
      <path class="cls-3" d="M978.87,727.55c4.18,1.08,8.11,2.26,12.39,3.1.63.12,1.43-.12,2.07,0l3.1,1.03c.95.17,2.15-.17,3.1,0l3.1,1.03c.97.15,2.14-.16,3.1,0l3.1,1.03c1.26.22,2.9-.24,4.13,0l4.13,1.03c1.1,1.09.85.55.81,2.21-.25,10.25-4.79,25.97-15.27,29.8h-4.13c-15.77-4.5-22.01-27.81-27.88-41.3,2.71.81,5.54,1.35,8.26,2.06Z"/>
      <path class="cls-5" d="M1282.49,342.35c.79.47,2.72-1.15,2.07,2.06l-4.14,2.07,4.13,2.06c-10.69.1-21.37,1.86-32.01,3.1-5.01-1.95-12.51-.53-18.06,0-87.25,8.54-174.82,19.7-261.8,27.87-4.31.41-7.95.88-12.39,1.03-2.95.1-7.22-.9-9.29,1.03-2.06.09-4.14-.1-6.2,0l-1.03-2.07c.34-.05.69.04,1.03,0l4.13-1.03c4.33-.47,7.96-.88,12.39-1.03,2.28-.08,5.8.81,7.23-1.03.68-.01,1.39.05,2.07,0,2.63-.2,4.41-.82,6.2-1.03,14.11-1.67,28.22-2.68,42.34-4.13,2.57-.26,4.94-.8,7.23-1.03,1.01-.1,2.08.1,3.1,0,1.65-.06,4.28.64,5.16-1.03,5.17-.53,10.21-1.56,15.49-1.03l5.16-1.03h4.13l6.2-1.03,24.78-2.07c1.78.12,3.54-.87,5.16-1.03s3.47.17,5.16,0c1.65-.06,4.28.64,5.16-1.03,4.83-.5,9.53-1.54,14.46-1.03l4.13-1.03,24.78-2.07c1.38-.2,2.75-.89,4.13-1.03,8.88-.93,18-1.14,26.85-2.07,4.32-.45,8.76-.54,13-.98.99-.1,1.82-.31,2.49-1.08l23.75-2.07c1.78.12,3.53-.86,5.16-1.03s3.48.18,5.16,0l4.13-1.03c4.11-.45,8.32-.59,12.39-1.03,1.61-.18,2.82-1,3.1-1.03,10.84-1.2,22.75-.52,33.05-4.13Z"/>
      <path class="cls-6" d="M1255.64,320.67v2.06s2.07,0,2.07,0c.28.4.73.67,1.03,1.03,1.19,1.43,1.6,3.17,4.13,3.1.3.39.74.66,1.03,1.03,1.19,1.47,1.62,3.15,4.13,3.1.27.31.78.94,1.03,1.03.5,1.44,1.59,2.05,3.1,2.07,1.52,2.66,7.54,6.6,10.33,8.26-10.3,3.61-22.2,2.93-33.05,4.13l-36.14-32.01c10.06-.75,20.22-2.19,30.32-2.8,4.99,2.59,7,6.57,12.03,9Z"/>
      <path class="cls-3" d="M1034.64,502.42c79.42-4.16,160.75-19.93,240.11-24.77,2.57-.16,5.17.04,7.74,0l-1.77,1.84c-98.3,10.19-196.51,22.54-294.62,33.26-.07-2.04-1.31-3.35-3.1-4.13,9.16-.86,18.96-2.17,28.39-3.11,3.61-.36,8.54-.88,11.89-2.06,1.71.07,3.45.02,5.16,0,1.95-.03,5.07.7,6.2-1.03Z"/>
      <path class="cls-3" d="M1215.36,739.94c.02-.21,1-1.13,1.08-2.49.54-8.89,1.17-17.66,2.49-26.47.93-1.45,9.43-2.53,11.92-3.05,2.23-.47,4.51-.21,7.23-1.03l2.07-1.03c3.6-1.34,6.86-2.62,9.82-5.16,2.04,12.01-12.15,45.81-24.89,47.47-4.5.59-10.15-3.91-9.71-8.23Z"/>
      <path class="cls-6" d="M1202.97,315.5c3.16-.02,6.59-.54,9.25,1.6,9.65,9.73,21.41,17.17,31.53,26.3,1.34,1.21,2.56,2.08,2.59,4.12-4.07.44-8.28.58-12.39,1.03-1.85.2-3.83,1-4.13,1.03-1.69.18-3.48-.18-5.16,0,.08-2.31-1.39-2.77-2.77-3.95-11.44-9.84-25.94-18.82-38.53-27.05l7.22-2.05c4.15-.3,8.24-1,12.39-1.03Z"/>
      <path class="cls-3" d="M1252.54,351.65c-1.01.12-2.09-.12-3.1,0l-4.13,1.03c-33.89,3.93-71.63,9.82-105.33,11.36-1.96.09-5.05-.75-6.2,1.03-50.14,2.64-101.43,12.98-151.81,15.49-2.55-2-6.22-.75-9.29-1.03,86.98-8.18,174.55-19.33,261.8-27.87,5.55-.54,13.05-1.96,18.06,0Z"/>
      <path class="cls-3" d="M1032.57,332.03c.57,3.22-1.62,1.89-3.58,2.05-4.67.39-9.39.59-13.97,1.56l40.27,31.5-5.16,1.03c.45-.8,3.07-.86,1.5-2.09-12.94-10.09-28.1-18.69-40.78-29.37-8.12-1.03-16.66.92-24.74,2.02l40.27,31.5c-2.29.24-4.66.77-7.23,1.03l4.13-1.54-41.01-30.25c-6.97-.31-14.28-.97-20.94,1.32l38.2,27.39-1.56,2.08-39.41-27.73c-1.51-.86-6.21-3.05-7.56-3.28l81.58-7.23Z"/>
      <path class="cls-5" d="M1247.37,690.37c-5.86,6.78-13.78,10.48-20.65,16.01l4.13,1.54c-2.49.52-10.99,1.61-11.92,3.05-1.32,8.8-1.95,17.58-2.49,26.47-.08,1.36-1.06,2.28-1.08,2.49-3.39.69-2.39-3.29-3.1-5.16l3.09-22.71-9.29,3.09c-.33-2.44-2.17-6.14-5.16-5.16,9.56-3.01,20.56-6.86,29.61-11.18,5.72-2.73,10.84-7.62,16.86-8.44Z"/>
      <path class="cls-3" d="M1063.55,328.93l-7.22,2.58c10.26,8.17,20.42,16.93,31.63,23.62l7.6,7.88c-1.62.17-3.38,1.15-5.16,1.03,1.11-1.27,3.21-.6.95-2.5-3.17-2.68-7.2-4.14-9.88-6.14-8.56-6.39-25.53-23.06-35.48-24.41,5.43-1.76,11.88-1.81,17.56-2.07Z"/>
      <path class="cls-3" d="M1150.3,320.67c-1.12,1.28-3.21.59-.95,2.5,11.92,10.11,25.4,18.57,37.14,28.96l9.26.56c-.67.77-1.5.98-2.49,1.08-4.24.45-8.68.53-13,.98,1.15-1.53,4.52-.16,2.08-2.6-7.1-7.06-20.91-15.71-29.4-22.23-2.73-2.1-7.64-5.06-8.82-8.22,1.71-.17,3.87-.8,6.2-1.03Z"/>
      <path class="cls-3" d="M1190.58,316.54l-7.22,2.05c12.6,8.23,27.09,17.21,38.53,27.05,1.37,1.18,2.84,1.64,2.77,3.95-1.63.18-3.38,1.15-5.16,1.03,2.18-1.59,2.96-.8.49-3.07-10.82-9.92-27.34-17.4-38.32-27.77-2.57-1.65-5.73-1.22-8.64-1.18,5.4-1.88,11.92-1.65,17.56-2.07Z"/>
      <path class="cls-5" d="M1026.38,501.39c-2.23.37-5.08,1.93-8.26,1.04v1.01c1.71.07,3.45-.06,5.16.01-3.35,1.17-8.27,1.7-11.89,2.06-9.43.94-19.23,2.25-28.39,3.11-5.13.48-10.33.83-15.49,1.03-3.29.13-7.91-.94-10.33,1.03-.69-.03-1.38.02-2.07,0-2.37-.08-4.46-1-5.16-1.03h1.03l4.13-1.03c7.58-1.05,15.15-1.29,22.72-2.07,2.12-.22,4.18-.23,6.2-1.03h4.13c2.28,1.02,4.98-.9,6.2-1.03,10.63-1.17,21.28-2.93,32.01-3.1Z"/>
      <path class="cls-3" d="M1111.06,449.75l37.18,38.21c-.63.07-2.2.83-4.13,1.03,1.49-1.78.28-2.44-.99-3.63-4.42-4.12-10.12-8.22-14.51-12.36-5.26-4.96-16.2-18.23-21.12-21.24-1.98-1.21-2.7-.85-4.69-.98,1.75-1.91,5.64-.92,8.26-1.03Z"/>
      <path class="cls-3" d="M1055.29,454.92c-.75,2.46-9.6-.6-8.25,2.57l28.87,36.19,5.2,1.51c-2.15.23-4.82.77-7.23,1.03-8.33-13.89-20.63-25.36-29.95-38.72-1.77-1.07-6.87-.55-9.29-.52,6.47-1.81,13.98-1.64,20.65-2.07Z"/>
      <path class="cls-3" d="M1145.14,446.66l36.14,38.21c-1.59.13-3.4,1.17-5.16,1.03.17-.02,3.17-1.37,3.09-1.54l-37.63-35.69c-2.01-1.52-4.48-.97-6.77-.98,2.41-1.95,7.05-.94,10.33-1.03Z"/>
      <path class="cls-3" d="M1088.34,451.82l-8.26,1.54,33.04,35.62c-2.02.43-2.78-.46-4.18-1.49-11.8-8.69-21.29-25.33-33.55-33.59-2.23-.14-4.46-.04-6.68-.02,6.11-1.88,13.33-1.68,19.62-2.07Z"/>
      <path class="cls-3" d="M1184.38,442.53l-1.04,2.58,36.15,35.63c-.95.1-2.43.85-4.13,1.03l-1-3.61-34.57-32.59-2.16-.95c-2.22-.13-4.46-.06-6.68-.02,3.69-1.43,9.09-1.52,13.43-2.07Z"/>
      <path class="cls-3" d="M1021.21,458.02l-6.18,2.56c7.61,11.73,14.27,24.12,22.17,35.67,1.01,1.48,1.09,3.24,3.64,3.08-1.2.15-3.16.77-5.16,1.03l-23.22-39.26c-1.97-1.77-11.6-1.11-14.99-1.02l23.75-2.07Z"/>
      <path class="cls-3" d="M1213.3,314.47l36.14,32.01c-.28.03-1.48.86-3.1,1.03-.04-2.03-1.25-2.91-2.59-4.12-10.12-9.13-21.88-16.58-31.53-26.3-2.65-2.14-6.09-1.62-9.25-1.6,2.45-2.06,7.02-.79,10.33-1.03Z"/>
      <path class="cls-3" d="M946.86,707.93c2.68-1.71,8.33-7.93,11.76-7.31,1.1.2.5,2.03.64,2.14.6,4.22,2.81,7.83,4.35,11.66.79,1.97,2,3.15-1.25,2.8-2.84-1.53-6.55-3.55-9.29-5.16-1.48-.87-3.54-3.81-6.2-4.13Z"/>
      <path class="cls-3" d="M1206.07,715.16l9.29-3.09-3.09,22.71c-1.46-3.85-3.03-7.26-4.13-11.36-.54-2.01-.06-4.6-2.07-6.2-.07-.67.09-1.4,0-2.07Z"/>
      <path class="cls-3" d="M986.1,461.11l19.62,35.11-22.92-33.86c-2.28-.51-4.7-.22-7.03-.22,2.44-2.03,7.02-.82,10.33-1.03Z"/>
      <path class="cls-5" d="M959.25,702.76c.15.13,1.44-.25,2.09.71,2.57,3.79,2.86,11.9,9.27,10.65,1.03,2.45,3.06,5.29,3.81,8.3,6.96.97,14.05,3.2,20.97,4.09h-4.14s0,4.13,0,4.13c-4.29-.83-8.21-2.01-12.39-3.1l3.1-2.05c-6.97-1.45-13.42-4.94-19.62-8.27,3.26.36,2.04-.83,1.25-2.8-1.54-3.83-3.74-7.44-4.35-11.66Z"/>
      <path class="cls-5" d="M1082.14,730.65c-1.07,1.71-3.92,1.03-5.67,1.05-8.26.1-16.56.09-24.81,0-1.75-.02-4.59.66-5.67-1.05,12.01.24,24.13.01,36.14,0Z"/>
      <path class="cls-5" d="M921.04,283.49c.65,8.31,5.5,4.89,12.39,4.13-7.62,5.64-11.83-.57-17.31-1.83-1.83-.42-3.59-.19-5.41-.24.59-.4,1.67-1.98,2.07-2.07,1.7-.35,5.77,1.45,8.26,0Z"/>
      <path class="cls-3" d="M1139.97,321.7c-10.32.98-20.18,2.96-30.98,3.1l30.98-3.1Z"/>
      <path class="cls-5" d="M1102.8,729.61c-5.5,1.91-12.68,1.02-18.59,1.03,5.54-2.02,12.62-.88,18.59-1.03Z"/>
      <path class="cls-3" d="M1041.87,330.99v2.06c-2.51,1.09-6.03-.95-7.23-1.03,1.35-1.71,5.03-1.12,7.23-1.03Z"/>
      <path class="cls-5" d="M1208.13,723.42c-4.35.7-2.01-5.66-2.07-6.2,2.01,1.6,1.52,4.19,2.07,6.2Z"/>
      <path class="cls-5" d="M1038.77,730.65c-4.22-.15-8.55-.78-12.39-1.03,3.91.51,9.25-1.24,12.39,1.03Z"/>
      <path class="cls-5" d="M1130.68,726.52c-8.69,2.62-17.9,2.77-26.85,3.1l26.85-3.1Z"/>
      <path class="cls-3" d="M1096.6,325.83c-6.17,1.95-13.24,1.89-19.62,2.07,6.13-1.78,13.3-1.81,19.62-2.07Z"/>
      <path class="cls-3" d="M1075.95,327.9c-2.04,1.88-6.38,1-9.29,1.03,2.04-1.87,6.38-1.01,9.29-1.03Z"/>
      <path class="cls-3" d="M1106.93,324.8c-1.72,1.84-5.67,1.01-8.26,1.03,1.72-1.84,5.68-1.01,8.26-1.03Z"/>
      <path class="cls-5" d="M1262.86,326.86c-2.53.07-2.94-1.67-4.13-3.1,4.09-.81,3.28,1.99,4.13,3.1Z"/>
      <path class="cls-5" d="M1268.03,330.99c-2.51.06-2.94-1.62-4.13-3.1,4.08-.9,3.39,2.24,4.13,3.1Z"/>
      <path class="cls-3" d="M1192.64,483.83c-2.19.27-4.73.78-7.23,1.03,1.46-1.96,4.97-.79,7.23-1.03Z"/>
      <path class="cls-5" d="M1011.92,728.58c-2.26-.03-5.82.77-7.23-1.03,2.27.05,5.81-.79,7.23,1.03Z"/>
      <path class="cls-5" d="M1003.66,727.55c-1.95-.03-5.07.71-6.2-1.03,1.92.22,5.04-.84,6.2,1.03Z"/>
      <path class="cls-5" d="M1139.97,364.04c-1.14,1.79-4.24.93-6.2,1.03,1.14-1.78,4.24-.94,6.2-1.03Z"/>
      <path class="cls-5" d="M1034.64,502.42c-1.12,1.74-4.25,1.01-6.2,1.03,1.15-1.79,4.24-.93,6.2-1.03Z"/>
      <path class="cls-5" d="M1020.18,728.58c-.68,1.63-4.48,1.63-5.16,0,1.71.07,3.47-.15,5.16,0Z"/>
      <path class="cls-5" d="M1269.06,332.03c.71.25,2.41-.43,3.01.1.43.38-.09,1.66.09,1.96-1.51-.01-2.6-.62-3.1-2.07Z"/>
      <path class="cls-5" d="M1255.64,320.67c.34.16,1.46-.35,1.94.14s-.04,1.69.13,1.93h-2.06s0-2.07,0-2.07Z"/>
      <path class="cls-5" d="M1223.62,672.82l-2.07,1.03c-.4-4.07,1.52-1.07,2.07-1.03Z"/>
      <path class="cls-5" d="M1219.49,673.85l-2.07,1.03c-.37-4.07,1.42-1.14,2.07-1.03Z"/>
      <path class="cls-5" d="M1215.36,674.88l-2.07,1.03c.18-.17-.12-1.46,0-2.06,1.18-.43,1.92,1,2.06,1.03Z"/>
      <path class="cls-5" d="M1210.2,675.91l-2.07,1.03c.17-.14-.11-1.47,0-2.06,1.11-.42,1.94,1.01,2.06,1.03Z"/>
      <path class="cls-5" d="M1134.81,688.31l-4.13,1.03c1.84-.6,2.27-.66,4.13-1.03Z"/>
      <path class="cls-5" d="M1155.46,685.21l-4.13,1.03c.8-.14,2.45-.74,4.13-1.03Z"/>
      <path class="cls-5" d="M1249.44,351.65c-.36.04-2.29.82-4.13,1.03l4.13-1.03Z"/>
      <path class="cls-5" d="M1017.08,734.78l-4.13-1.03c1.64.32,2.4-.67,4.13,1.03Z"/>
      <path class="cls-5" d="M1002.63,766.79c-.31.11-.68.99-1.66,1.08-1.66.14-2.05-.95-2.47-1.08h4.13Z"/>
      <path class="cls-5" d="M1191.61,679.01l-3.1,1.03c.16-.03,1.48-.75,3.1-1.03Z"/>
      <path class="cls-5" d="M1180.25,681.08l-3.1,1.03c.16-.03,1.45-.75,3.1-1.03Z"/>
      <path class="cls-5" d="M1174.05,682.11l-3.1,1.03c.16-.03,1.43-.75,3.1-1.03Z"/>
      <path class="cls-5" d="M1167.86,683.14l-3.1,1.03c.16-.03,1.43-.75,3.1-1.03Z"/>
      <path class="cls-5" d="M1148.24,686.24l-3.1,1.03c.16-.03,1.46-.75,3.1-1.03Z"/>
      <path class="cls-5" d="M1142.04,687.27l-3.1,1.03c.16-.03,1.51-.75,3.1-1.03Z"/>
      <path class="cls-5" d="M996.43,731.68l-3.1-1.03c1.55.29,2.94,1,3.1,1.03Z"/>
      <path class="cls-5" d="M1161.66,684.18l-3.1,1.03c.16-.03,1.46-.75,3.1-1.03Z"/>
      <path class="cls-5" d="M1002.63,732.71l-3.1-1.03c1.64.29,2.94,1.01,3.1,1.03Z"/>
      <path class="cls-5" d="M1008.82,733.75l-3.1-1.03c1.66.28,2.94,1,3.1,1.03Z"/>
      <path class="cls-5" d="M1197.8,677.98l-3.1,1.03c.16-.03,1.45-.75,3.1-1.03Z"/>
      <path class="cls-5" d="M1240.15,705.86l-2.07,1.03c.11-.03,1.13-.69,2.07-1.03Z"/>
      <path class="cls-5" d="M1243.24,666.62l-2.07,1.03c.43-.14,1.13-.72,2.07-1.03Z"/>
      <path class="cls-5" d="M1230.85,670.75l-2.07,1.03c.11-.02.63-.66,2.07-1.03Z"/>
      <path class="cls-5" d="M1185.41,680.05l-2.07,1.03c.11-.02.36-.74,2.07-1.03Z"/>
      <path class="cls-5" d="M1204,676.95l-2.07,1.03c.11-.02.42-.69,2.07-1.03Z"/>
      <path class="cls-5" d="M909.68,94.51c5.02-5.96,10.65-11.41,16.52-16.52-4.65,6.29-11.16,10.97-16.52,16.52Z"/>
      <path class="cls-3" d="M977.84,506.55l4.12-2.57c-1.68-3.72-25.4-36.22-23.74-37.7,1.02-.91,2.42-.14,3.36,1.3,7.97,12.23,15.8,25.06,22.45,37.93-2.01.8-4.08.82-6.2,1.03Z"/>
      <path class="cls-3" d="M949.95,491.06c-4.42-6.26-10.3-14.18-11.34-21.69,4.76,6.18,9.54,14,11.34,21.69Z"/>
      <path class="cls-3" d="M949.96,509.65c.7.03,2.8.95,5.16,1.03l-13.42,1.02c.93-2.52,6.04-2.15,8.26-2.05Z"/>
      <path class="cls-3" d="M967.51,509.65c-2.29,1.78-7.2,1.15-10.33,1.03,2.42-1.97,7.04-.9,10.33-1.03Z"/>
      <path class="cls-3" d="M994.36,504.49c-1.21.13-3.92,2.06-6.2,1.03,1.16-1.83,4.25-.88,6.2-1.03Z"/>
      <path class="cls-3" d="M955.12,508.62l-4.13,1.03c.73-1.66,2.83-.85,4.13-1.03Z"/>
      <path class="cls-3" d="M1153.4,356.81c-1.38.14-2.75.83-4.13,1.03.45-.8,3.08-.86,1.5-2.09-5.22-4.06-8.96-6.23-15.95-5.15l6.19-1.53-27.88-23.23c2.02-.3,3.49.58,5.11,1.59,8.79,5.51,24.33,18.33,32.39,25.44,1.34,1.18,2.86,1.6,2.77,3.94Z"/>
      <path class="cls-3" d="M1120.35,360.94c.45-.8,3.07-.86,1.5-2.09-2.56-1.99-6.07-3.71-8.65-5.74-6.94-5.47-20.2-14.9-25.65-20.78-.77-.84-2.53-1.95-1.28-3.4s26.27,20.69,28.95,22.16l5.12.56-2.06,1.53,6.19,6.72-4.13,1.03Z"/>
      <path class="cls-3" d="M1105.9,361.98c-.88,1.67-3.51.97-5.16,1.03.79-.08,3.08-.82,5.16-1.03Z"/>
      <path class="cls-3" d="M947.89,356.81c-2.09-2.03-5.4-5.52-7.23-7.74-.96-1.16-2.51-1.67-2.06-3.61,1.69-1.54,10.86,8.71,11.35,9.82.9,2.06-1.22,1.37-2.06,1.54.4.39.51,1.78,1.72,1.84l9.63,2.28-15.48,3.1,1.1-7.16c.96-.34,2.13.11,3.03-.06Z"/>
      <path class="cls-3" d="M943.76,379.53l1.03,2.07c-.16,0-1.16,1.02-2.5,1.07-4.65.2-9.37-.22-14.02-.05l9.07-2.8c2.06-.67,4.46,0,6.41-.29Z"/>
      <path class="cls-3" d="M960.29,380.56c-2.08,1.95-6.34.9-9.29,1.03,2.07-1.93,6.35-.93,9.29-1.03Z"/>
      <path class="cls-3" d="M968.55,376.43c-1.43,1.84-4.95.95-7.23,1.03,1.41-1.81,4.96-.99,7.23-1.03Z"/>
      <path class="cls-3" d="M976.81,375.4c-1.79.21-3.57.83-6.2,1.03,1.16-1.83,4.25-.88,6.2-1.03Z"/>
      <path class="cls-3" d="M948.93,378.5l-4.13,1.03c.5-.07,2.18-.82,4.13-1.03Z"/>
      <path class="cls-3" d="M1065.62,366.11l-6.2,1.03c1.16-1.83,4.25-.88,6.2-1.03Z"/>
      <path class="cls-6" d="M1026.38,370.24l-40.27-31.5c8.08-1.1,16.63-3.05,24.74-2.02,12.68,10.68,27.84,19.28,40.78,29.37,1.57,1.23-1.05,1.28-1.5,2.09-5.28-.52-10.32.5-15.49,1.03-2.09.21-4.38.95-5.16,1.03-1.01.1-2.08-.1-3.1,0Z"/>
      <path class="cls-3" d="M1034.64,369.2c-.88,1.67-3.51.97-5.16,1.03.78-.08,3.08-.82,5.16-1.03Z"/>
      <path class="cls-3" d="M1233.95,348.55l-4.13,1.03c.3-.03,2.28-.83,4.13-1.03Z"/>
      <g>
        <path class="cls-6" d="M1261.83,652.16c-2.43.87-6.13.4-7.23,3.1-.31.1-.72-.09-1.03,0l-4.13,2.07c-.31.1-.72-.1-1.03,0-6.92,2.3-13.27,4.93-20.43,6.94-32.2,9.01-66.07,14.64-99.36,17.85,15.43-44.62,8.67-121.31,6.16-168.8-.13-2.4-.78-8.92,1.73-9.72l144.48-15.68c.88,1.37-.34,17.99-.57,21.21-2.86,39.96-6.74,81.12-13.74,120.51-1.19,6.68-2.19,16.76-4.84,22.53ZM1217.22,536.81c-5.71.51-33.06,4.8-26.56,14.52.64.95,1.27,1.4,2.26,1.93,7.19,3.9,31.74,1.55,40.2-.55,4.15-1.03,24.36-7.43,15.23-13.58-5.5-3.71-24.17-2.94-31.13-2.32Z"/>
        <path class="cls-5" d="M1248.41,657.33c-1.65,2.39-4.77,2.22-6.89,3.45-20.18,11.67-52.68,14.72-76.41,18.06-12.33,1.73-24.95,2.53-36.99,5.35-1.94-1.22.46-1.97.5-2.08,33.29-3.21,67.17-8.84,99.36-17.85,7.16-2,13.51-4.63,20.43-6.94Z"/>
        <path class="cls-5" d="M1261.83,652.16c-.15.33.38,1.4-.17,1.86-2.15.72-4.98.6-7.05,1.24,1.1-2.7,4.8-2.23,7.23-3.1Z"/>
        <path class="cls-5" d="M1253.57,655.26c-.36.11-2.3,1.45-4.13,2.07l4.13-2.07Z"/>
        <path class="cls-5" d="M1217.22,536.81c6.97-.62,25.63-1.39,31.13,2.32,9.13,6.16-11.08,12.55-15.23,13.58-8.47,2.1-33.01,4.45-40.2.55-.98-.53-1.62-.98-2.26-1.93-6.51-9.72,20.84-14.01,26.56-14.52ZM1242.21,541.67c-3.33-4.39-33.51,3.56-39.02,5.89-1.25.53-3.04.61-3.32,2.35,8.18,1.9,17.77,1.29,26.05-.27,1.58-.3,18.79-4.66,16.28-7.97Z"/>
        <path class="cls-6" d="M1242.21,541.67c2.51,3.31-14.7,7.67-16.28,7.97-8.28,1.56-17.87,2.17-26.05.27.27-1.74,2.06-1.82,3.32-2.35,5.5-2.33,35.69-10.28,39.02-5.89Z"/>
      </g>
      <g>
        <path class="cls-3" d="M958.22,56.3c14.3-16.39,27.72-24.43,48-32.03,67.89-25.45,177.77-29.89,235.99,18.61l2.07,2.07c.77.71,1.35,1.34,2.07,2.07l3.1,3.1c27.88,31.98,27.5,86.17,31.02,126.46l-.04,74.91h-26.85c-3.78,0-7.58,0-11.36,0-1.93-1.74-7.37-1.74-9.29,0-2.75,0-5.51-.01-8.26,0-3.9.02-9.32-.87-12.39,1.03-1.03,0-2.07,0-3.1,0-4.24.02-9.99-.88-13.43,1.03-.69,0-1.38,0-2.07,0-37.2.09-76.02,2.28-113.07,6.21-8.72.92-17.79,2.2-26.34,4.12-.34.03-.69-.03-1.03,0-3.95.34-8.98.13-12.39,2.07-.34.05-.7-.05-1.03,0-1.65.06-4.28-.64-5.16,1.03-.34.04-.69-.04-1.03,0-1.65.06-4.28-.64-5.16,1.03-.34.04-.69-.04-1.03,0-3.3.37-7.44.06-10.33,2.07-.34.04-.69-.04-1.03,0-6.49.82-13.59,1.4-19.62,4.13-.33.06-.7-.06-1.03,0-6.11,1.03-12.92,1.48-18.59,4.13-.33.06-.7-.06-1.03,0l-4.13,1.03c-.34.05-.7-.05-1.03,0-2.77.39-5.93.06-8.26,2.07-.34.05-.7-.05-1.03,0-4.07.64-8.77.89-12.39,3.1-.34.05-.7-.06-1.03,0-4.36.73-9.52.76-13.43,3.1-.34.04-.69-.04-1.03,0-6.89.76-11.74,4.18-12.39-4.13-.41-5.23.95-9.3,1.08-13.9,1.72-65.93-11.32-156.86,34.04-211.23l2.07-2.07ZM1017.22,92.29c-.77-.69-.02-5.53-4.74-5.06-7.42.74-12.27,25.44-12.82,31.68-.32,3.57-.8,14.35.07,17.22,1.8,6,11.48,3.68,12.21-2.38h1.51c5.63,7.35,13.4,4.77,18.08-2.07,0,3.74-1.5,10.56,4.45,9.15,4.14-.98,7.83-22,7.73-26.19-.29-12.23-9.11-15.84-17.33-6.71.78-4.01,2.99-14.53-2.59-15.5-1.73-.3-5.84.52-6.58-.14ZM1081.12,108.98c-23.95-8.24-31.6,32.95-5.79,29.85,10.8-1.29,16.89-13.98,10.95-23.16-1.97-3.04-7.41-4.28-5.16-6.7ZM1119.31,145.11c.13.14.14,2.56.83,3.8,4.53,8.12,12.7,11.09,16.94,1.05,3.54-8.38,4.17-29.91.55-38.13-4.52-10.27-12.61,1.44-11.08,8.49-1.13,1.32-6.25-7.13-12.95-.04-2.42,2.56-9.2,17.53-10.56,21.45-1.76,5.04-7.1,23.04,1.48,23.82,6.9.62,10.05-14.72,12.51-19.11.5-.89.82-2.88,2.29-1.32ZM1244,126.74c-5.86,1.17-15.5,8.25-16.27,14.73-2.04,17.05,2.24,42.04,2.17,59.9-.03,6.88-3.88,27.51-.16,32.1,3.27,4.04,10.11,1.35,13.83-.77,22.38-12.75,17.04-72.1,11.36-93.61-1.7-6.43-2.47-14.04-10.94-12.35ZM1178.18,178.14c13.08-21.14-17.18-24.09-25.18-8.13-3.73,7.44.64,6.24,3.7,11.55,3.19,5.55,9.03,29.6,18.39,25,4.58-2.25,2.94-10.23,1.03-13.94,29.05,7.91,25.3-9.56,2.07-14.48ZM1088.43,192.7c3.9-.09,14.75-6.48,10.26-10.95-4.42-4.4-28.54,1.45-34.65,3.6-4.03,1.42-6.51,1.98-6.64,6.89-.16,6.2,12.03,5.05,16.54,4.93,2.96,5.84,1.53,27.68,10.81,27.44,9.45-.25,4.38-26.01,3.68-31.9ZM1135.85,208.12c2.73-.65,9.18-4.6,8.22-7.68-1.37-4.43-23.45-3.06-27.38.39-1.84,2.77-.12,26.36,1.51,30.58,4.66,12.05,27.98-1.25,28-5.24-.33-3.47-4.29-3.06-6.22-5.17.02-1.16,7.25-2.57,4.66-7.75l-8.8-5.14ZM1051.88,208.4c-5.93-7.24-26.29-.16-24.43,12.53,1.17,7.98,14.03,10.12,14.44,11.44.91,4.08-9.28,5.46-10.25,8.42-1.9,5.77,8.71,7.67,12.81,7.66,10.66-.03,26.4-12.35,17.06-22.3-3.52-3.75-8.93-2.78-12.42-6.2-.39-1.8,7.27-6.08,2.78-11.55Z"/>
        <path class="cls-5" d="M1193.67,253.54c-1.07,1.71-3.92,1.03-5.67,1.05-45.58.56-88.64,5.25-133.75,9.28,8.55-1.92,17.62-3.2,26.34-4.12,37.05-3.93,75.87-6.11,113.07-6.21Z"/>
        <path class="cls-5" d="M1280.42,251.48c-.11,1.43-1.52.95-2.53,1.08-5.17.64-13.12.03-18.66-.03-1.75-.02-4.59.66-5.67-1.05h26.85Z"/>
        <path class="cls-5" d="M1209.16,252.51c-3.43,1.91-9.18,1.02-13.43,1.03,3.43-1.91,9.18-1.02,13.43-1.03Z"/>
        <path class="cls-5" d="M1224.66,251.48c-3.08,1.9-8.49,1.02-12.39,1.03,3.08-1.9,8.49-1.02,12.39-1.03Z"/>
        <path class="cls-5" d="M1242.21,251.48c-3.09,0-6.2,0-9.29,0,1.93-1.74,7.37-1.74,9.29,0Z"/>
        <path class="cls-5" d="M1053.23,263.87c-3.32,2.11-8.62,1.49-12.39,2.07,3.41-1.93,8.44-1.73,12.39-2.07Z"/>
        <path class="cls-5" d="M1039.8,265.94c-1.23.18-3.07.76-5.16,1.03.88-1.67,3.51-.97,5.16-1.03Z"/>
        <path class="cls-5" d="M1033.61,266.97c-1.05.14-3.04.79-5.16,1.03.88-1.67,3.51-.97,5.16-1.03Z"/>
        <path class="cls-5" d="M1027.41,268c-2.89,2.01-7.03,1.69-10.33,2.07,2.89-2,7.03-1.7,10.33-2.07Z"/>
        <path class="cls-5" d="M1016.05,270.07c-6.24,2.41-13.08,3.03-19.62,4.13,6.03-2.73,13.13-3.31,19.62-4.13Z"/>
        <path class="cls-5" d="M995.4,274.2c-5.67,2.67-12.49,3.07-18.59,4.13,5.67-2.65,12.48-3.1,18.59-4.13Z"/>
        <path class="cls-5" d="M947.89,284.52c-3.91,2.2-9.04,2.55-13.43,3.1,3.91-2.34,9.07-2.36,13.43-3.1Z"/>
        <path class="cls-5" d="M975.78,278.33c-.81.14-2.28.76-4.13,1.03l4.13-1.03Z"/>
        <path class="cls-5" d="M961.32,281.43c-3.62,2.23-8.33,2.43-12.39,3.1,3.63-2.21,8.32-2.46,12.39-3.1Z"/>
        <path class="cls-5" d="M970.61,279.36c-2.3,2-5.52,1.68-8.26,2.07,2.33-2.01,5.49-1.67,8.26-2.07Z"/>
        <path class="cls-5" d="M931.37,74.89v-1.03c.48-.43.76-1.68,1.55-2.06l.52.52-2.08,2.57Z"/>
        <path class="cls-5" d="M956.15,58.36c.79-.94,1.54-1.47,2.07-2.07l-2.07,2.07Z"/>
        <path class="cls-5" d="M1249.44,50.1l-3.1-3.1c1.1,1.11,1.9,1.72,3.1,3.1Z"/>
        <path class="cls-5" d="M1244.28,44.94l-2.07-2.07c.94.78,1.4,1.46,2.07,2.07Z"/>
        <path class="cls-5" d="M1244,126.74c8.47-1.69,9.24,5.92,10.94,12.35,5.68,21.52,11.02,80.86-11.36,93.61-3.72,2.12-10.56,4.81-13.83.77-3.72-4.59.13-25.23.16-32.1.07-17.87-4.21-42.85-2.17-59.9.77-6.48,10.41-13.56,16.27-14.73ZM1246.25,131.77c-7.33-.21-11.07,8.63-11.3,14.94-.61,16.22,2.82,35,2.09,51.57-.43,9.9-4.26,21.35-3.14,31.04.75,6.5,6.99,1.44,9.89-1.56,14.96-15.52,11.27-59.8,7.2-79.56-1.15-5.56-2.69-11.14-4.75-16.43Z"/>
        <path class="cls-5" d="M1017.22,92.29c.75.67,4.85-.16,6.58.14,5.58.97,3.36,11.49,2.59,15.5,8.22-9.13,17.04-5.52,17.33,6.71.1,4.2-3.59,25.22-7.73,26.19-5.95,1.4-4.45-5.41-4.45-9.15-4.68,6.84-12.45,9.43-18.08,2.08h-1.51c-.73,6.05-10.41,8.37-12.21,2.37-.86-2.87-.38-13.65-.07-17.22.55-6.24,5.4-30.94,12.82-31.68,4.72-.47,3.97,4.38,4.74,5.06ZM1012.95,92.45c-2.26-.38-2.48.94-3.04,2.63-3.67,10.99-3.64,26.09-5.21,37.64,2.7.5,1.81-.52,2.53-2.06,2.14-4.54,4.75-19.78,6.21-21.72,1.24-1.64,3.98-.92,5.7-1.01-.25,3.86-3.54,28.13,2.51,26.81,6.99-4.79,6.68-17.06,17.12-14.41.27-2.4.42-15.35-3.59-14.45-1.42,1.33-2.9,2.63-4.09,4.18-1.88,2.44-7.18,15.82-10.91,12.33-1.15-1.08,3.64-23.15,2.06-26.85-5.57.49-4.97,9.54-11.36,6.17l2.07-9.27Z"/>
        <path class="cls-5" d="M1119.31,145.11c-1.47-1.56-1.8.43-2.29,1.32-2.46,4.4-5.6,19.74-12.51,19.11-8.58-.77-3.24-18.78-1.48-23.82,1.37-3.92,8.15-18.89,10.56-21.45,6.7-7.08,11.82,1.36,12.95.04-1.53-7.05,6.56-18.76,11.08-8.49,3.62,8.22,2.99,29.75-.55,38.13-4.24,10.04-12.41,7.07-16.94-1.05-.69-1.24-.7-3.66-.83-3.8ZM1104.87,161.63c5.15-2.64,6.99-20.12,11-21.52,8.59-3.01,7.68,9.03,12.24,13.26,8.21,1.93,7.54-34.41,5.66-39.24-1.54-.26-1.28,1.94-1.54,3.08-.55,2.4-2.42,25.94-8.2,15.45-1.55-2.82-1.58-12.67-5.62-10.16-.86.54-6.36,16.26-7.47,18.87-1.03,2.44-3.15,3.95-4.09,6.24-1.6,3.91-2,9.77-1.98,14.02Z"/>
        <path class="cls-5" d="M1178.18,178.14c23.23,4.93,26.99,22.39-2.07,14.48,1.91,3.7,3.55,11.69-1.03,13.94-9.36,4.6-15.19-19.45-18.39-25-3.06-5.31-7.43-4.11-3.7-11.55,8-15.95,38.26-13.01,25.18,8.13ZM1169.92,176.09c.61-.22,1.24.46,2.13-.66,3.45-4.33,4.98-14.38-3.16-12.33-3.23.81-11.44,8.06-11.32,11.45.09,2.78,13.57,21.62,13.4,27.35,4.76.55-.04-8.43-.83-10.02s-5.7-5.69-1.74-6.49c2.7-.55,18.07,8.78,23.2,6.19.37-5.18-6.68-7.79-10.8-9.33-4.52-1.69-11.09-.54-10.88-6.16-11.57,4.13-7.64-8.88-1.04-5.7,3.21,1.55,1.11,3.82,1.04,5.7Z"/>
        <path class="cls-5" d="M1088.43,192.7c.7,5.9,5.77,31.66-3.68,31.9-9.28.24-7.85-21.6-10.81-27.44-4.51.11-16.7,1.26-16.54-4.93.13-4.91,2.61-5.46,6.64-6.89,6.1-2.16,30.23-8,34.65-3.6,4.5,4.47-6.36,10.87-10.26,10.95ZM1094.54,183.33c-5.59-.18-29.02,3.13-30.85,7.87-.25.64-.58,2.41.39,2.45,3.62,1.02,8.29-1.17,11.3-1,9.66.57,4.75,21.03,9.35,26.8,4.23-7.19-3.22-22.57-1.62-28.28.19-.68,11.12-3.72,11.43-7.85Z"/>
        <path class="cls-5" d="M1051.88,208.4c4.48,5.47-3.18,9.75-2.78,11.55,3.48,3.42,8.9,2.45,12.42,6.2,9.33,9.95-6.4,22.27-17.06,22.3-4.09.01-14.71-1.89-12.81-7.66.97-2.96,11.16-4.34,10.25-8.42-.41-1.31-13.27-3.46-14.44-11.44-1.86-12.69,18.49-19.77,24.43-12.53ZM1037.79,244.18c.26.42,4.57,1.21,5.62,1.19,5.1-.08,13.63-4.91,14.78-10.13,2.89-13.04-15.03-9.17-16.3-13.27-.96-3.11,6.05-5.61,5.18-11.25-1.01-6.56-12.63,2.05-13.45,6.19-2.49,12.52,13.97,11.17,14.51,16.52,1.04,5.27-12.98,6.52-10.34,10.75Z"/>
        <path class="cls-5" d="M1135.85,208.12l8.8,5.14c2.59,5.18-4.63,6.59-4.66,7.75,1.93,2.11,5.88,1.7,6.22,5.17-.02,3.98-23.34,17.29-28,5.24-1.63-4.22-3.35-27.81-1.51-30.58,3.93-3.45,26.01-4.83,27.38-.39.95,3.08-5.5,7.02-8.22,7.68ZM1137.91,200.89c-6.19-.7-11.76,1.35-17.52,3.15,1.61,4.52,2,28.69,5.77,29.83,2.28.69,22.43-8.19,12.02-9.98-3.52-.61-7.07-.18-10.6-.29-3.17-2.75,15.7-5.25,12.38-10.31l-14.45-2.09c-2.33-2.55,12.68-6.89,12.39-10.31Z"/>
        <path class="cls-5" d="M1081.12,108.98c-2.25,2.42,3.19,3.66,5.16,6.7,5.95,9.18-.15,21.86-10.95,23.16-25.82,3.09-18.16-38.09,5.79-29.85ZM1073.59,111.18c-9.56,2.68-13.34,28.35,1.59,24.38,12.91-3.44,7.43-26.9-1.59-24.38Z"/>
        <path class="cls-1" d="M1246.25,131.77c2.07,5.28,3.61,10.86,4.75,16.43,4.07,19.76,7.76,64.05-7.2,79.56-2.9,3.01-9.14,8.06-9.89,1.56-1.12-9.7,2.7-21.14,3.14-31.04.72-16.57-2.7-35.35-2.09-51.57.24-6.31,3.97-15.15,11.3-14.94Z"/>
        <path class="cls-3" d="M1012.95,92.45l-2.07,9.27c6.39,3.37,5.79-5.68,11.36-6.17,1.58,3.7-3.21,25.77-2.06,26.85,3.72,3.5,9.03-9.89,10.91-12.33,1.19-1.55,2.67-2.85,4.09-4.18,4.01-.9,3.86,12.05,3.59,14.45-10.44-2.65-10.13,9.62-17.12,14.41-6.05,1.32-2.76-22.95-2.51-26.81-1.72.09-4.46-.63-5.7,1.01-1.47,1.93-4.07,17.17-6.21,21.72-.72,1.53.17,2.56-2.53,2.06,1.57-11.55,1.54-26.65,5.21-37.64.56-1.69.78-3,3.04-2.63Z"/>
        <path class="cls-1" d="M1104.87,161.63c-.02-4.25.38-10.11,1.98-14.02.94-2.29,3.06-3.8,4.09-6.24,1.1-2.62,6.6-18.34,7.47-18.87,4.04-2.52,4.07,7.34,5.62,10.16,5.79,10.5,7.65-13.05,8.2-15.45.26-1.14,0-3.34,1.54-3.08,1.89,4.82,2.55,41.17-5.66,39.24-4.56-4.23-3.65-16.27-12.24-13.26-4.01,1.41-5.85,18.89-11,21.52Z"/>
        <path class="cls-3" d="M1169.92,176.09c-.2,5.62,6.36,4.46,10.88,6.16,4.12,1.54,11.17,4.15,10.8,9.33-5.13,2.59-20.5-6.74-23.2-6.19-3.96.81.97,4.96,1.74,6.49s5.6,10.58.83,10.02c.17-5.73-13.3-24.58-13.4-27.35-.11-3.4,8.09-10.64,11.32-11.45,8.14-2.05,6.61,8,3.16,12.33-.9,1.12-1.52.44-2.13.66.07-1.88,2.17-4.15-1.04-5.7-6.6-3.18-10.53,9.83,1.04,5.7Z"/>
        <path class="cls-3" d="M1094.54,183.33c-.3,4.13-11.23,7.17-11.43,7.85-1.6,5.72,5.85,21.09,1.62,28.28-4.6-5.78.3-26.24-9.35-26.8-3.01-.18-7.67,2.02-11.3,1-.97-.04-.64-1.81-.39-2.45,1.83-4.74,25.26-8.05,30.85-7.87Z"/>
        <path class="cls-4" d="M1037.79,244.18c-2.63-4.23,11.39-5.48,10.34-10.75-.54-5.35-16.99-4-14.51-16.52.82-4.14,12.44-12.75,13.45-6.19.87,5.64-6.14,8.14-5.18,11.25,1.27,4.1,19.18.23,16.3,13.27-1.15,5.22-9.68,10.05-14.78,10.13-1.04.02-5.35-.77-5.62-1.19Z"/>
        <path class="cls-1" d="M1137.91,200.89c.29,3.42-14.71,7.76-12.39,10.31l14.45,2.09c3.32,5.05-15.55,7.55-12.38,10.31,3.53.11,7.08-.31,10.6.29,10.4,1.8-9.75,10.67-12.02,9.98-3.77-1.14-4.17-25.32-5.77-29.83,5.76-1.8,11.33-3.85,17.52-3.15Z"/>
        <path class="cls-1" d="M1073.59,111.18c9.01-2.52,14.5,20.94,1.59,24.38-14.92,3.97-11.14-21.7-1.59-24.38ZM1072.56,119.43c-3.94,1.06-4.5,10.18.84,11.2,11.87,2.27,6.72-13.25-.84-11.2Z"/>
        <path class="cls-5" d="M1072.56,119.43c7.57-2.05,12.72,13.47.84,11.2-5.35-1.02-4.78-10.14-.84-11.2Z"/>
      </g>
      <g>
        <path class="cls-6" d="M974.74,521.01c15.39-.84,31.57-2.62,46.98-4.14,34.28-3.39,68.46-8.23,102.77-11.36.29,7.72-.39,15.56-.05,23.28,2,44.79,6.17,88.19-.1,133.03-1.19,8.48-3.19,16.93-5.25,25.22-1.9,1.95-25.7,1.39-30.28,1.31-2.44-.04-4.7-1.09-7.14-1.12-31.77-.42-70.01,2.94-100.73.04l-2.07-1.03c-.93-.17-2.37.25-3.1,0-3.61-1.23-5.82-4.08-9.29-5.16-9.95-50.04-19.16-99.41-27.88-149.74,4.73-4.45,11.03-5.67,17.22-7.1,1.87-.43,4.05,1,3.44-2.19,1.37-.04,2.76,0,4.13,0,3.57-.01,8.64.86,11.36-1.03ZM1001.59,562.33c-1.86,3.41-1.05,6.48,2.35,8.49,12.33,7.27,52.27,2.7,64.08-5.57,4.39-3.08,5.56-6.2-.06-8.88-10.47-4.99-55.83-1.92-67.87,1.88-2.86.9-6.77,1.45-5.73,5.11l7.22-1.02Z"/>
        <path class="cls-3" d="M959.25,522.04c.61,3.19-1.57,1.76-3.44,2.19-6.19,1.43-12.49,2.66-17.22,7.1-.23-1.31-2.95-7.42-2.06-8.26,7.6-.03,15.11-.79,22.71-1.04Z"/>
        <path class="cls-3" d="M974.74,521.01c-2.72,1.9-7.79,1.02-11.36,1.03,2.79-2.03,7.72-.83,11.36-1.03Z"/>
        <path class="cls-3" d="M980.94,687.27c-1.81-.17-1.95-1.01-2.07-1.03l2.07,1.03Z"/>
        <path class="cls-5" d="M1001.59,562.33l-7.22,1.02c-1.03-3.66,2.87-4.2,5.73-5.11,12.04-3.8,57.39-6.87,67.87-1.88,5.62,2.68,4.45,5.8.06,8.88-11.81,8.28-51.75,12.84-64.08,5.57-3.4-2.01-4.21-5.07-2.35-8.49ZM1061.5,559.22c-15.13-1.36-30.82-1.71-45.98,0-7.29.82-7.65,6.7-.73,9.02,10.2,3.41,30.89.11,41.05-3.83,2.86-1.11,6.67-1.48,5.67-5.18Z"/>
        <path class="cls-6" d="M1061.5,559.22c1,3.7-2.81,4.07-5.67,5.18-10.16,3.94-30.85,7.24-41.05,3.83-6.92-2.32-6.56-8.2.73-9.02,15.17-1.7,30.85-1.36,45.98,0Z"/>
      </g>
    </g>
  </g>
</svg>